<?xml version="1.0" encoding="utf-8"?>
<!-- Generator: Adobe Illustrator 26.0.2, SVG Export Plug-In . SVG Version: 6.00 Build 0)  -->
<svg version="1.1" id="Слой_1" xmlns="http://www.w3.org/2000/svg" xmlns:xlink="http://www.w3.org/1999/xlink" x="0px" y="0px"
	 viewBox="0 0 1915.5 1077.4" style="enable-background:new 0 0 1915.5 1077.4;" xml:space="preserve">
<style type="text/css">
	.st0{fill:#B1FF5C;}
	.st1{fill:#FFEC8B;}
	.st2{fill:#5CB8FF;}
	.st3{fill:#F55CFF;}
	.st4{fill:#FF4579;}
	.st5{fill:#38FF2E;}
	.st6{fill:#B9BCFF;}
	.st7{fill:#F7FFB3;}
	.st8{fill:#730019;}
	.st9{fill:#ACFF73;}
	.st10{fill:#4F3F22;}
	.st11{fill:#D7C498;}
	.st12{fill:#B7E0ED;}
	.st13{fill:#606060;}
	.st14{fill:#4E6E75;}
	.st15{fill:none;stroke:#4F3F22;stroke-miterlimit:10;}
	.st16{opacity:0.5;fill:#D7F4B3;stroke:#000000;stroke-width:2;stroke-miterlimit:10;}
	.st17{opacity:0.5;fill:#F9EAAF;stroke:#000000;stroke-width:2;stroke-miterlimit:10;}
	.st18{opacity:0.5;fill:#A8D5F4;stroke:#000000;stroke-width:2;stroke-miterlimit:10;}
	.st19{opacity:0.5;fill:#FACAFF;stroke:#000000;stroke-width:2;stroke-miterlimit:10;}
	.st20{opacity:0.5;fill:#FF4579;stroke:#000000;stroke-width:2;stroke-miterlimit:10;}
	.st21{opacity:0.5;fill:#31FFC9;stroke:#000000;stroke-width:2;stroke-miterlimit:10;}
	.st22{opacity:0.5;fill:#B9BCFF;stroke:#000000;stroke-width:2;stroke-miterlimit:10;}
	.st23{opacity:0.5;fill:#F7FFB3;stroke:#000000;stroke-width:2;stroke-miterlimit:10;}
	.st24{opacity:0.5;fill:#7A3F4E;stroke:#000000;stroke-width:2;stroke-miterlimit:10;}
	.st25{opacity:0.5;}
	.st26{fill:#D7F4B3;stroke:#000000;stroke-width:2;stroke-miterlimit:10;}
	.st27{fill:#F9EAAF;stroke:#000000;stroke-width:2;stroke-miterlimit:10;}
	.st28{fill:#A8D5F4;stroke:#000000;stroke-width:2;stroke-miterlimit:10;}
	.st29{fill:#FACAFF;stroke:#000000;stroke-width:2;stroke-miterlimit:10;}
	.st30{fill:#FF4579;stroke:#000000;stroke-width:2;stroke-miterlimit:10;}
	.st31{fill:#31FFC9;stroke:#000000;stroke-width:2;stroke-miterlimit:10;}
	.st32{fill:#B9BCFF;stroke:#000000;stroke-width:2;stroke-miterlimit:10;}
	.st33{fill:#EDA6A6;stroke:#000000;stroke-miterlimit:10;}
	.st34{fill:#7A3F4E;stroke:#000000;stroke-width:2;stroke-miterlimit:10;}
	.st35{fill:#B1FF5C;stroke:#000000;stroke-width:2;stroke-miterlimit:10;}
	.st36{fill:#FFEC8B;stroke:#000000;stroke-width:2;stroke-miterlimit:10;}
	.st37{fill:#5CB8FF;stroke:#000000;stroke-width:2;stroke-miterlimit:10;}
	.st38{fill:#F55CFF;stroke:#000000;stroke-width:2;stroke-miterlimit:10;}
	.st39{fill:#38FF2E;stroke:#000000;stroke-width:2;stroke-miterlimit:10;}
	.st40{fill:#F7FFB3;stroke:#000000;stroke-width:2;stroke-miterlimit:10;}
	.st41{fill:#730019;stroke:#000000;stroke-width:2;stroke-miterlimit:10;}
	.st42{fill:#00D087;}
</style>
<g>
	<rect x="245" y="69" class="st12" width="1426" height="958"/>
	<path class="st26" d="M268,779c14-13,21,4,32,12c4,3,8,1,10-3c1-2,0-4-1-5c-6-1-11-4-11-10c-1-9-2-17-5-26c-5-17,17-10,26-16
		c4-2,8-11,15-8c5,3,10,7,10,12c1,8,3,16,10,20c2.9,1.1,5.4,0.7,8-0.2c-1.5-12.6-1.6-25,10-31.8c22-13,23-33,27-55c1-4,3-15,11-14
		c4,0,6,8,11,7c6-2,10-7,12-13c1-8-8-12-13-13c-16-2-18-22-27-28c-7-6-18,23-26,8c-8-16,2-42-22-51c-1.6-0.4-2.7-1.3-3.5-2.5
		c-3.7,3.5-7.3,7-10.8,10.7c-8.1,8.5-16.2,16.7-28.8,11.7c-8.3-3.3-16.3-9.8-25.4-10.8c-9.5-1.1-15.6,4.6-24.5,5.9
		c-2.3,0.3-4.7,0.6-7,0.9v171.1c2.4,4.4,4.2,9.4,6,14.1C253,769,263,772,268,779z"/>
	<path class="st26" d="M253,869c8-4,19-11,25-2c6,7,10,19,21,16c8-2,16-9,24-9c6,1,12,7,18,4c3-1,6-5,10-7c8-2,9,8,9,14
		c-1,4-8,6-7,11c0,8-6,15-4,22c2,11,11,0,18-4c0,6.9,2.3,12.4,6.5,16.5c1.3-2.5,3.1-4.6,5.5-5.5c12-3,22-13,22-24c1-18-10-36-1-53
		c3-6,12-4,17-2c4,2,12,3,14-1c3-5,0-13-3-16c-6-7-14-13-17-23c-2-8,4-14,8-20c2-3,5-10,3-13c-7-9-25-12-25-26c-2,0-4-1-5,0
		c-9,9,0,25-11,32c-6,4-16-1-17-7c-0.3-5.4-1.3-11.3-2-17.2c-2.6,0.8-5.1,1.3-8,0.2c-7-4-9-12-10-20c0-5-5-9-10-12c-7-3-11,6-15,8
		c-9,6-31-1-26,16c3,9,4,17,5,26c0,6,5,9,11,10c1,1,2,3,1,5c-2,4-6,6-10,3c-11-8-18-25-32-12c-5-7-15-10-17-14
		c-1.8-4.7-3.6-9.7-6-14.1v118.2C247,870.6,249.4,871,253,869z"/>
	<path class="st26" d="M523,1007c-3-2-4-7-8-7c-17,0-33,8-50,2c-2,0-5,4-7,3c-3-2-7-1-9-4c-2-5-1-11,1-15s3-11-1-14
		c-10-9-24-13-35-1c-1,1-4,1-5,0c-9-14-18-22-34-26c-4.2-0.7-4.5-8.8-1.5-14.5c-4.2-4.1-6.5-9.6-6.5-16.5c-7,4-16,15-18,4
		c-2-7,4-14,4-22c-1-5,6-7,7-11c0-6-1-16-9-14c-4,2-7,6-10,7c-6,3-12-3-18-4c-8,0-16,7-24,9c-11,3-15-9-21-16c-6-9-17-2-25,2
		c-3.6,2-6,1.6-8,0.1V1027h294.5c0.9-2.3,1.9-4.6,2.5-7C547,1006,530,1012,523,1007z"/>
	<path class="st27" d="M463,708c0-1,1-4,0-5c-4-3-11,1-15-2c0,0-1-4,1-4c22-2,12-19,17-34c1-2,4-4,7-6c1-2,0-6,0-6c-10-3-21,0-26,11
		c-1,2-6,5-9,3c-3.6-2.7-6.4-6.3-7.7-11.4c-2.2,3.4-5.3,6.1-9.3,7.4c-5,1-7-7-11-7c-8-1-10,10-11,14c-4,22-5,42-27,55
		c-17,10-9,32-8,49c1,6,11,11,17,7c11-7,2-23,11-32c1-1,3,0,5,0c0,14,18,17,25,26c2,3-1,10-3,13c-4,6-10,12-8,20
		c1.5,4.9,4.1,8.8,7.2,12.4c13-6.8,22-19.3,25.8-35.4c1-8,15-9,19-17s-5-12-8-18c-8.3-18.8,6.1-28,21.8-35.7
		c-0.3-0.8-0.5-1.6-0.8-2.3C474,706,467,710,463,708z"/>
	<path class="st27" d="M589.8,584.7c-1.7,4.2-4.7,6.2-10.8,2.3c-7-3-4-15-10-19c-4-3-9,0-13,3c-6,7-4,17-12,23c-11,7-22-1-21-13
		c-9,0-21,6-27,1c-8-8-14-15-23-10c-4,3-4,11-8,16c-5,5-13,4-16-1c-1-2-3-5-3-5c-18-11-19-30-31-43c-9-8-24,0-36-3
		c-1.4-0.4-2.7-0.9-3.9-1.5c-4.6,3.6-10.1,6.7-13.5,9.5c-6.9,5.6-13.6,11.5-20.1,17.5c0.8,1.2,1.9,2.1,3.5,2.5c24,9,14,35,22,51
		c8,15,19-14,26-8c9,6,11,26,27,28c5,1,14,5,13,13c-0.7,2-1.6,3.9-2.7,5.6c1.2,5.1,4,8.7,7.7,11.4c3,2,8-1,9-3c5-11,16-14,26-11
		c0,0,1,4,0,6c-3,2-6,4-7,6c-5,15,5,32-17,34c-2,0-1,4-1,4c4,3,11-1,15,2c1,1,0,4,0,5c4,2,11-2,13,2c0.3,0.7,0.5,1.5,0.8,2.3
		c5.2-2.5,10.5-4.9,15.2-7.3c5-3,5-14,12-15c12-1,26-3,29-15c2-10-2-22,8-28c19-12,50-9,57-36C600.9,600.5,595.7,592.7,589.8,584.7z
		"/>
	<path class="st27" d="M579.8,513c-17.2,7.3-29.9,2.4-46.2-3.8c-8.6-3.3-18.4-6.7-27.7-4.8c-10.9,2.2-15.4,16-27.1,10.3
		c-12.9-6.2-21.6-16.8-35.7-21.1c-15.4-4.8-32-4.9-47.9-3.3c-6.4,0.6-17.5,1.4-20.5,8.5c-2.9,6.9,3.8,11.7,7.1,16.8
		c5,7.7,0,13.9-6.7,19c1.2,0.6,2.5,1.1,3.9,1.5c12,3,27-5,36,3c12,13,13,32,31,43c0,0,2,3,3,5c3,5,11,6,16,1c4-5,4-13,8-16
		c9-5,15,2,23,10c6,5,18-1,27-1c-1,12,10,20,21,13c8-6,6-16,12-23c4-3,9-6,13-3c6,4,3,16,10,19c6.1,3.9,9.1,1.9,10.8-2.3
		c-4.2-5.7-8.7-11.6-10.8-18.7c-2-12,1-25,12-30c13-7,23-18,26-32c0.4-1.5,0.7-3,0.9-4.5C605.4,504.7,591.6,508,579.8,513z"/>
	<path class="st28" d="M415,876c13,3,24-12,34-6c9,5,7,20,17,24c6,3,12-1,18-3c8-4,9,9,11,15c3,6,12,7,15,4c7-10,2-25,7-36
		c5-10,19,0,27-5c9-6,4-21,14-27c7-5,13,3,15,11c1,1,4,2,6,3c3,1,4-4,6-6c1-2,4-6,8-5c8,2,13,16,19,10s2-19,5-28
		c1.8-5.4,10.1,2.2,14.7,0.1c-4.1-14.8-16-23.8-31.7-29.1c-11-4-19-14-17-28c0-3-2-7-5-9c-10-8-25-12-27-25c-3-14,2-27-7-40
		c-4.3-5.7-14.7-5.8-19.6-10.5c-5.8,3-13.4,4-20.4,4.5c-7,1-7,12-12,15c-19,10-48,18-37,43c3,6,12,10,8,18s-18,9-19,17
		c-3.8,16-12.9,28.6-25.8,35.4c3.2,3.7,6.8,7.1,9.8,10.6c3,3,6,11,3,16c-2,4-10,3-14,1c-5-2-14-4-17,2c-3.1,5.9-3.8,11.9-3.5,18
		C401.4,871.1,407.1,875.1,415,876z"/>
	<path class="st28" d="M574,1017c3-2,7-1,11,2c3,3,7-3,10-3c6-1,12,1,18-1c3,0,0-7,2-7c6-2,13-1,20-1c0-14,17-13,23-23
		c3-5-4-11-8-14c-10-6-18-12-27-18c-5-3-12,1-18,4c-6,4-19,9-25,2c-10-12-24-6-34-14c-4-4,1-13,5-20c1-2,1-5,0-7
		c-8.1-15.4-16.2-30.1-17.9-46.9c-6.4-0.8-13-2.3-16.1,3.9c-5,11,0,26-7,36c-3,3-12,2-15-4c-2-6-3-19-11-15c-6,2-12,6-18,3
		c-10-4-8-19-17-24c-10-6-21,9-34,6c-7.9-0.9-13.6-4.9-18.5-10c0.7,11.5,5.1,23.2,4.5,35c0,11-10,21-22,24c-8,3-10,19-4,20
		c16,4,25,12,34,26c1,1,4,1,5,0c11-12,25-8,35,1c4,3,3,10,1,14s-3,10-1,15c2,3,6,2,9,4c2,1,5-3,7-3c17,6,33-2,50-2c4,0,5,5,8,7
		c7,5,24-1,19,13c-0.6,2.4-1.6,4.7-2.5,7h27.8C568,1023.1,570.5,1019.4,574,1017z"/>
	<path class="st28" d="M770,998c-13-10-13-19-13-34c-2,0-3-2-5-2c-13,0-32,12-35-5c-3-15-13-20-24-25c-14-6-18-23-9-37
		c4-6-2-10-4-15c-2-4-3-10,1-12c15-11,37-21,27-39c-6-10-11,9-21,12c-2,0-5,1-6,0c-9-13-24-1-34,3c-7,3-14-4-14-10
		c-0.3-2.4-0.7-4.8-1.3-6.9c-4.5,2.2-12.9-5.5-14.7-0.1c-3,9,1,22-5,28s-11-8-19-10c-4-1-7,3-8,5c-2,2-3,7-6,6c-2-1-5-2-6-3
		c-2-8-8-16-15-11c-10,6-5,21-14,27c-3,1.9-7,1.6-10.9,1.1c1.7,16.7,9.8,31.5,17.9,46.9c1,2,1,5,0,7c-4,7-9,16-5,20c10,8,24,2,34,14
		c6,7,19,2,25-2c6-3,13-7,18-4c9,6,17,12,27,18c4,3,11,9,8,14c-6,10-23,9-23,23c-7,0-14-1-20,1c-2,0,1,7-2,7c-6,2-12,0-18,1
		c-3,0-7,6-10,3c-4-3-8-4-11-2c-3.5,2.4-6,6.1-6.6,10h178.4c0.4-2.8,0.5-5.8,0.2-9c0-2,3-4,4-4C762,1015,781,1006,770,998z"/>
	<path class="st29" d="M868,579c-1-4,2-9-1-11c-5-3-10,3-15,5c-11,3-15-5-15-15c0-1-3-4-6-5c-1-1-1-4,0-5c7-10,25-14,18-27
		c-3-7-9-12-15-17c-5-3-11-1-12,5c-13-7-24-4-38-3c-2,0-6-5-7-10c-3.3-17.4,5-33.4,3.4-49.8c-5.3,0.8-10.6,4.2-13.9,7.8
		c-2.5,2.7-4.7,6.3-8.4,7.1c-6.6,1.5-25-8.7-30.9-11.9c-15.6-8.3-24.7-25.5-40.4-33.9c-10.2-5.5-25.7-3.9-32,6.7
		c-9.9,16.7,2.3,37.4-8.6,55.5c-6.6,10.8-16.8,17.2-28.3,22c-0.2,1.5-0.5,3-0.9,4.5c-3,14-13,25-26,32c-4.8,2.2-8.1,5.9-10.1,10.5
		c11.6,7.3,27.8,2.2,42.1,4.5c4,1,7,10,11,12c17,7,28-14,45-17c5-1,8,1,12,3c8,5,16-3,25-5c1,7,4,16,1,20c-16,19-45,34-42,61
		c1,5,6,7,8,13c1,3,6,3,10,3c0,4,5,4,6,7c0.3,7.5,1.7,14.7,4.2,21.5c9.2-4.1,17.8-8.6,24.8-17.5c6-6,15,2,20,8c7,7,14,23,24,18
		s5-17,3-27c-3-11,6-20,11-29c2-4-1-11,3-13c17-9,35-25,55-10c12.7,9.8,23.2,5.7,31.2-4.1c-1.2-3.5-2-7.5-2.2-11.9
		C870,584,869,581,868,579z"/>
	<path class="st29" d="M1020,515c-5-10,3-24,2-35c-1-6-12-11-21-12c-13-1-15-16-25-22c-1.1-0.5-2.2-1.1-3.3-1.7
		c-3.1,1.2-6,3-8.7,5.7c-6.4,5.4-5.1,13.7-4.9,21.1c0.4,10.2-3.3,21.2-11.4,27.8c-11,9-20.2,5.7-29.6-3.3
		c-5.5-5.3-11.2-10.6-18-14.2c-14-7.4-28.6-4.7-43.8-5.2c-11-0.4-23.2-4.3-27.8-14.2c-1.9-4-2.3-8.8-5.1-12.3
		c-9.3-12-13.6,12.3-24.7,6.3c-3.7-2-6.3-5.5-9.7-7.9c-2.6-1.8-5.6-2.3-8.7-1.8c1.6,16.4-6.8,32.4-3.4,49.8c1,5,5,10,7,10
		c14-1,25-4,38,3c1-6,7-8,12-5c6,5,12,10,15,17c7,13-11,17-18,27c-1,1-1,4,0,5c3,1,6,4,6,5c0,10,4,18,15,15c5-2,10-8,15-5
		c3,2,0,7,1,11c1,2,2,5,5,4c0.1,4.4,0.9,8.3,2.2,11.9c8.3-10.3,13.8-27,15.8-40.9c1-7,16-18,30-15c22,5,30,25,45,38c5,3,11,3,16,7
		c3,3,6,7,9,9c11,6,16-10,16-16c0-21,23-18,33-25C1057,541,1027,528,1020,515z"/>
	<path class="st29" d="M693,641c-4,0-9,0-10-3c-2-6-7-8-8-13c-3-27,26-42,42-61c3-4,0-13-1-20c-9,2-17,10-25,5c-4-2-7-4-12-3
		c-17,3-28,24-45,17c-4-2-7-11-11-12c-14.3-2.4-30.5,2.8-42.1-4.5c-2.6,5.8-3,12.8-1.9,19.5c5,17,24,27,19,45c-7,27-38,24-57,36
		c-10,6-6,18-8,28c-1.3,5-4.4,8.3-8.6,10.5c4.9,4.7,15.3,4.8,19.6,10.5c9,13,4,26,7,40c2,13,17,17,27,25c3,2,5,6,5,9
		c-2,14,6,24,17,28c6.1,2,11.7,4.7,16.4,8c5.5-11.6,9.6-24.3,21.6-28c14-5,35-7,40-21c7-20,3-43,2-66c0-5,2-12,7-14
		c5.5-2.9,10.9-5.2,16.2-7.5c-2.4-6.8-3.8-14-4.2-21.5C698,645,693,645,693,641z"/>
	<path class="st30" d="M770,890c11-4,19-13,23-23c6-14,12-30,23-38c13-9,27-17,35-32c8-18-9-26-20-37c-17-18,4-44,17-65
		c8-12-8-26-18-36c-8-9,6-22,2-34c15-1,31-1,40-14c3.5-4.8,3.7-10.1,2.2-15c-7.8,9-18,12.4-30.2,3c-20-15-38,1-55,10c-4,2-1,9-3,13
		c-5,9-14,18-11,29c2,10,7,22-3,27s-17-11-24-18c-5-6-14-14-20-8c-11,14-26,17-41,25c-5,2-7,9-7,14c1,23,5,46-2,66
		c-5,14-26,16-40,21c-12,3.7-16.1,16.4-21.6,28c9.2,6.4,15.3,15.5,16.6,28c0,6,7,13,14,10c10-4,25-16,34-3c1,1,4,0,6,0
		c10-3,15-22,21-12c10,18-12,28-27,39c-4,2-3,8-1,12c2,5,8,9,4,15c-6.9,10.8-6.1,23.3,1,31.3c17.4-2.1,28.8-16.8,43-29.3
		C739,886,756,895,770,890z"/>
	<path class="st30" d="M974,856c-6-3-17,3-19-4c-2-11,0-23-8-31c-6-5-18-3-20,2c-5,17,5,36-3,52c-6,13-18,34-31,30c-6-2-9-16-15-18
		c-6-3-13,6-20,12c-2,1-5,1-6-1c-5.6-25.8-8.7-56.1-22.2-78.5c-4.5,3.3-9.2,6.3-13.8,9.5c-11,8-17,24-23,38c-4,10-12,19-23,23
		c-14,5-31-4-42,7c-14.2,12.5-25.6,27.2-43,29.3c2.1,2.4,4.8,4.3,8,5.7c11,5,21,10,24,25c3,17,22,5,35,5c2,0,3,2,5,2
		c0,15,0,24,13,34c11,8-8,17-20,16c-1,0-4,2-4,4c0.3,3.2,0.2,6.2-0.2,9h140.9c1.2-6,4-11.5,9.3-16c8-6,23,1,27-7c7-13-2-39,20-40
		c3-18-15-33-3-49c6-8,16-12,26-14c-3.5-15.5,4.4-27.5,16.6-34.6C980.6,861.9,978.3,857.9,974,856z"/>
	<path class="st30" d="M1047,838c-6-14-6-26-9-40c-1-4-7-7-7-12c1-11,13-23,7-31c-5-6-7,12-15,15c-1-5-9-8-10-2c-3,9,1,20-6,26
		c-6,5-11-6-9-13c1-7,6-13,3-19c-8-16-6-32-6-49c1-5-6-10-10-8c-5,2-13,5-16-1c-4-13-5-27,0-40c8-18,27-31,33-50
		c2.1-7.1,0.7-14.6-1-22c-2.5,2.4-5.8,3.3-10,1c-3-2-6-6-9-9c-5-4-11-4-16-7c-15-13-23-33-45-38c-14-3-29,8-30,15
		c-2.1,14.3-7.9,31.8-16.8,42c1.5,4.9,1.3,10.2-2.2,15c-9,13-25,13-40,14c4,12-10,25-2,34c10,10,26,24,18,36c-13,21-34,47-17,65
		c11,11,28,19,20,37c-5.2,9.7-12.9,16.5-21.2,22.5c13.5,22.3,16.6,52.7,22.2,78.5c1,2,4,2,6,1c7-6,14-15,20-12c6,2,9,16,15,18
		c13,4,25-17,31-30c8-16-2-35,3-52c2-5,14-7,20-2c8,8,6,20,8,31c2,7,13,1,19,4c4.3,1.9,6.6,5.9,8.6,10.4c5.2-3,11.1-5.2,17.4-6.4
		c7-2,2-13,7-18c5-4,7,8,9,12c5,9,20,10,27,2C1047,851,1049,844,1047,838z"/>
	<path class="st31" d="M1017,1021c-4-2-9,0-11-3c-3-5,7-8,4-11c-7-8-20,2-26-5c-7-7,1-20,9-23c15-7,32-5,45-15c4-4,3-10,1-15
		c-4-9,2-23,12-26c13-4,27-3,40-6c13-4,23-18,13-26c-15.8-13.2-18.5-34-6.1-45.7c-4.8-1.2-9.9-1.9-14.9-2.3c-8-1-20-7-17-18
		c1-3,5-7,5-9c-3-17,3-32,11-46c6-10,1-21-4-30c-4-9-17-12-22-17c-12-11-7-34-18-47c-14.5-16.1-32.1-28.3-45.3-44.9
		c-8,10.9-18.4,20.8-23.7,32.9c-5,13-4,27,0,40c3,6,11,3,16,1c4-2,11,3,10,8c0,17-2,33,6,49c3,6-2,12-3,19c-2,7,3,18,9,13
		c7-6,3-17,6-26c1-6,9-3,10,2c8-3,10-21,15-15c6,8-6,20-7,31c0,5,6,8,7,12c3,14,3,26,9,40c2,6,0,13-4,18c-7,8-22,7-27-2
		c-2-4-4-16-9-12c-5,5,0,16-7,18c-21,4-39,19-34,41c-10,2-20,6-26,14c-12,16,6,31,3,49c-22,1-13,27-20,40c-4,8-19,1-27,7
		c-5.3,4.5-8.1,10-9.3,16h128.4c0.3-0.3,0.6-0.7,0.9-1C1017,1024,1018,1021,1017,1021z"/>
	<path class="st31" d="M1200,970c-11-4-24,11-31,3s4-23,13-31c4.3-3.4,9.8-6,14.7-9.1c0.3-4.6,1.3-9.3,1.3-13.9c-13,1-26-8-29-18
		c-3-13,8-27-8-35c-6-3-13,1-18,5c-7,7-20-4-26-14c-4.3-6.2-11.3-9.7-19.1-11.7c-12.4,11.7-9.7,32.5,6.1,45.7c10,8,0,22-13,26
		c-13,3-27,2-40,6c-10,3-16,17-12,26c2,5,3,11-1,15c-13,10-30,8-45,15c-8,3-16,16-9,23c6,7,19-3,26,5c3,3-7,6-4,11c2,3,7,1,11,3
		c1,0,0,3-1,5c-0.3,0.3-0.6,0.7-0.9,1h176.9c-0.9-3.6-2.5-7.3-4.9-11c-1-3-1-6,0-9c5-9,18-5,21-15C1210,983,1206,973,1200,970z"/>
	<path class="st31" d="M1198,839c-2,0-3-3-3-5c2-15,5-28,2-43c0-3-6-5-7-8c-8-13-17-22-27-33c-14-13,0-32-2-48c-1-14-13-24-25-32
		c-4-3-7,1-11,3c-5,3-9-4-11-6c-11-14-26-15-40-25c-2-2-5-6-5-9c-2-20,4-44-16-55c-10.2-5.4-19-12.3-25.8-21.1
		c-9.8,2.8-20.2,6-20.2,20.1c0,3.7-1.9,11.2-6,15c1.7,7.4,3.1,14.9,1,22c-2,6.2-5.3,11.8-9.3,17.1c13.1,16.6,30.8,28.8,45.3,44.9
		c11,13,6,36,18,47c5,5,18,8,22,17c5,9,10,20,4,30c-8,14-14,29-11,46c0,2-4,6-5,9c-3,11,9,17,17,18c13,1,27,4,34,14
		c6,10,19,21,26,14c5-4,12-8,18-5c16,8,5,22,8,35c3,10,16,19,29,18c0,4.6-1,9.3-1.3,13.9c5.4-3.3,10.2-7.2,12.3-12.9
		c5-17,7-33,11-50C1226,853,1219,836,1198,839z"/>
	<path class="st32" d="M1153,616c-7-27,24-38,43-46c13-6,32-8,35-23c5-25-10-57,16-73c10-7,27-16,22-28c-3.7-7.5-6.7-14.6-8.2-22
		c-6.5,7-12,16.7-22.8,12c-7-3-8-17-3-25s6-20,1-28c-1-2-2-5-2-6c-4-10,4-24-6-29c-7-3-15-5-18-12c-4-11-8-35-18-28
		c-14,11,4,36-9,55c-5.2,7.6,9.6,21.6-3.5,26c-3,1-6.3,0.9-9.3-0.2c-11.1-4-23.4-13.8-35.1-9.5c-1.1,0.4-2.1,0.9-2.9,1.8
		c-1.2,1.5-1.2,3.7-1.8,5.6c-4.1,12.9-17.4-3-23.8,5.2c-5.8,7.4-15.6,14-25.6,14c-9.1,0-24.7-18.4-32.2-6.3
		c-4.7,7.6,10.5,20.6-1.9,25.8c-7.3,3.1-15.8-2.4-22.4,3.6c-6.4,5.8-5.1,14.6-16.4,14.4c-11.6-0.2-24.6-3.6-35.5,0.7
		c1.1,0.6,2.3,1.2,3.3,1.7c10,6,12,21,25,22c9,1,20,6,21,12c1,11-7,25-2,35c7,13,37,26,20,37c-3.3,2.3-8,3.5-12.8,4.9
		c6.8,8.8,15.6,15.7,25.8,21.1c20,11,14,35,16,55c0,3,3,7,5,9c14,10,29,11,40,25c2,2,6,9,11,6c4-2,7-6,11-3
		c5.5,3.7,11.1,7.8,15.5,12.6C1163.1,664.4,1158.4,636.7,1153,616z"/>
	<path class="st32" d="M1234,602c11,5,30,2,35,15c7,18-2,39-18,53c-4,2-7,9-4,12c15,19,33,38,14,62c-5,7,5,13,11,19s17,8,23,1
		c6-8-1-21,5-27c6-5,15,2,21,7c16,18,39,29,63,24c8-2,19-11,13-18c-6-8-19-7-26-15c-1-3,2-3,4-4c8-2,15,8,21,4
		c12.8-7.8,7.4-19.2-0.4-28.7c-4.6,2.9-8.9,6.5-12.6,10.7c-4,5-12,3-18,1s-8-10-5-16c9-16,28-21,39-37c5-7,17-1,25-4
		c14-5,25-17,40-23c10-4,15-20,5-28c-8-7-30-9-23-19c11-16,10-28,1-42c-5-9-19-9-25-4c-10,10-20,18-35,18c-2,0-5,6-2,9c3,5,9,1,14,0
		c4,0,4,4,3,7c-2,6-9,8-14,7c-16-2-41,1-40-18c0-17,25-23,18-45c-1-5,4-11,9-12c12-3,24,2,34-4c16-9,17-30,8-45c-3-5-10-9-13-14
		c-7-13,12-24,23-18c7,3,19,8,20,3c2.3-6.2,5.1-14.9,9.9-21.4c-2.7-1.7-5.6-2.9-8.7-3.5c-8.8-1.9-18.7-1.2-27.7-2
		c-4.4-0.4-9-2-9.5-7.1c-1-12-8-24-21-20c-6.1,1.2-4.6,9.3-8.8,12c-1.3,0.8-2.8,0.8-4.2,1.4c-2.2,0.9-3.6,3-4.9,5
		c-4.7,7.2-11.4,15.4-21,13.5c-7.2-1.4-15.9-7.8-23.1-2.9c-8,4-19-1-25,4c-5,3,0,12-2,16c-2,5-11,12-15,6c-5-7-9-20-19-15
		c-2.3,1.1-4.3,2.9-6.2,5c1.5,7.4,4.4,14.6,8.2,22c5,12-12,21-22,28c-26,16-11,48-16,73c-2,9.9-10.9,14.1-20.4,17.6
		C1214,581.1,1218.8,596.9,1234,602z"/>
	<path class="st32" d="M1467,750c-12-7-2-26-6-35c-3-8-19-8-27-13c-11-5.9-25.8-3.7-38.4,4.3c7.8,9.5,13.2,20.9,0.4,28.7
		c-6,4-13-6-21-4c-2,1-5,1-4,4c7,8,20,7,26,15c6,7-5,16-13,18c-24,5-47-6-63-24c-6-5-15-12-21-7c-6,6,1,19-5,27c-6,7-17,5-23-1
		s-16-12-11-19c19-24,1-43-14-62c-3-3,0-10,4-12c16-14,25-35,18-53c-5-13-24-10-35-15c-15.2-5.1-20-20.9-23.4-37.4
		c-5,1.8-10.1,3.4-14.6,5.4c-19,8-50,19-43,46c5.4,20.7,10.1,48.4-1.5,66.6c5.2,5.5,8.9,11.9,9.5,19.4c2,16-12,35,2,48
		c10,11,19,20,27,33c1,3,7,5,7,8c3,15,0,28-2,43c0,2,1,5,3,5c21-3,28,14,22,31c-1.9,8-3.3,15.9-4.9,23.7c9.5,0.9,18.7,2.6,27.9,3.3
		c40,5,85,13,119-14c10-7,4-22,13-30c26-21,54-35,75-63c6-9,17-13,25-20c4-4.4,6.6-9.4,8.5-14.7C1477.8,754.4,1472.2,753,1467,750z"
		/>
	<path class="st33" d="M1645,443c-5,3-13,0-20,2c-2,0-5,1-6,3c-5,18-19,24-34,33c-5,3-12,9-10,16c5,19,0,44-18,51c-16,6-42,7-42,24
		c-1,18-1,44-21,50c-6.5,1.4-13.1,1.1-19.6,0.8c-0.5,6.5-4.6,12.9-10.4,15.2c-15,6-26,18-40,23c-8,3-20-3-25,4c-11,16-30,21-39,37
		c-3,6-1,14,5,16s14,4,18-1c14-16,36-23,51-15c8,5,24,5,27,13c4,9-6,28,6,35c5.2,3,10.8,4.4,16.5,5.3c2.4-6.7,3.8-14,5.5-21.3
		c4-15,19-26,33-31c31-11,70-11,89-42c16.3-27.8,35.8-53.3,60-72.4V439.5c-1.7-0.4-3.4-0.9-5-1.5C1659,435,1652,439,1645,443z"/>
	<path class="st33" d="M1632,419c3-11,1-24-7-32c-7-6-16,0-22-5c-13-10-13-29-8-44c3-7,16-8,17-17c2-7,3-14-1-19c-12-17-32-8-50-6
		c-2,0-4-2-4-3c0.3-6.1-2.2-9.9-6.1-12.3c-3.1,5.1-4.9,10.4-5.4,16c-0.8,8-8.7,13.2-16.2,10.5c-1.8-0.7-3.6-1.5-5.4-2.4
		c-6.3-3.5-11.3-10.8-18.9-11.2c-4.8-0.3-7.6,2.1-11.3,4.5c-2.7,1.8-5.4,2.3-8.8,3.1c-6,1.5-11,3.9-7.9,10.9c2,3,10,3,12,6
		c3.4,5.1,5.5,10.3,8.3,15.7c2.6,4.9,10.7,9.6,10.8,15.1c0,2.1-0.6,4.1-1,6.2c-0.3,2.2-0.3,4.6,0.5,6.7c2.1,5.4,7.6,5.1,12.3,6.6
		c6.4,2.1,11,8.1,13,14.5c1.9,6,4.4,23-0.8,28.2c-1,1-7,3-9,5c-8,11,4,27-11,33c-6.7,2.7-13.7-3.5-20.4-3.3
		c-6.1,0.1-7.3,6.9-12.7,6.9c-4.5,0-9.3-5.2-10.9-9c-3.2-7.6,1.4-15.2-2.7-23c-2-3.7-5-6.7-8.5-9c-4.8,6.4-7.6,15.2-9.9,21.4
		c-1,5-13,0-20-3c-11-6-30,5-23,18c3,5,10,9,13,14c9,15,8,36-8,45c-10,6-22,1-34,4c-5,1-10,7-9,12c7,22-18,28-18,45
		c-1,19,24,16,40,18c5,1,12-1,14-7c1-3,1-7-3-7c-5,1-11,5-14,0c-3-3,0-9,2-9c15,0,25-8,35-18c6-5,20-5,25,4c9,14,10,26-1,42
		c-7,10,15,12,23,19c4.2,3.4,5.7,8.1,5.4,12.8c6.5,0.3,13.1,0.6,19.6-0.8c20-6,20-32,21-50c0-17,26-18,42-24c18-7,23-32,18-51
		c-2-7,5-13,10-16c15-9,29-15,34-33c1-2,4-3,6-3c1.6-0.5,3.3-0.7,5-0.7C1629.8,435.9,1629.4,427.4,1632,419z"/>
	<path class="st33" d="M1641,116c-14-13-22-28-44-27c-7.1,0.3-13.8-4.4-20.6-5.7c-10.3-2-13.9,8.2-23.1,10.2
		c-10.5,2.4-21-5.2-29.4-10.5c-5.3-3.4-9.8-0.6-14.5,2.1c-2.4,1.4-4.8,3-7.7,3.3c-3.9,0.5-7.7-1.5-11.6-0.5
		c-4.6,1.2-7.4,5.8-10.8,8.8c-3.5,3.1-7.5,5.5-12,6.8c-4.8,1.4-9.5,0.1-13.9,3.2c-2.7,1.9-4.7,4.6-6.8,7.2
		c-4.2,5.3-19.7,19.7-13.1,27.3c1.2,1.4,3.3,1.3,5.2,1c6.9-0.9,13.8-1.8,20.5-3.7c4.8-1.4,9.6-3.4,13.7-6.2
		c4.4-3,14.3-10.3,14.2,0.7c0,2-0.4,4-0.2,6c0.5,4.7,5.3,6.2,9.1,7.6c9.3,3.5,13.3,9.8,18.3,17.8c2.8,4.5,6.4,8.4,9.8,12.5
		c0.9,1,1.8,2.1,2.1,3.4c0.5,1.9-0.3,4-1.4,5.6c-3.2,4.8-15.1,14.3-8,20.1c16,13,23,24,27,43c2,7,16,19,10,27
		c-1.2,1.6-2.2,3.1-3.1,4.7c3.9,2.4,6.5,6.2,6.1,12.3c0,1,2,3,4,3c18-2,38-11,50,6c4,5,3,12,1,19c-1,9-14,10-17,17c-5,15-5,34,8,44
		c6,5,15-1,22,5c8,8,10,21,7,32c-2.6,8.4-2.2,16.9-2,25.3c5.5-0.2,11.1,1,15-1.3c7-4,14-8,21-5c1.6,0.6,3.3,1.1,5,1.5V117.6
		C1662.4,123.4,1650,123.4,1641,116z"/>
	<path class="st34" d="M1445,1010c14-10,31,5,47-4c3-2,6-8,10-7c18,2,37,4,55-3c10-4,21,2,31-4c5-3,13-6,14-13c3-12-11-17-15-25
		c-8-16,9-30,20-44c3-4,6-12,4-15c-10-17-14-35-27-49c-2-1-6-2-8-1c-14,14-35,12-45-4c-11-17-30-9-45-15c-3-1-8-5-9-8
		c-5.5-14.1-3.6-29.3-8.7-43c-6.7,4.4-13.8,8.3-18.3,15c-21,28-49,42-75,63c-9,8-3,23-13,30c-34,27-79,19-119,14
		c-9.2-0.7-18.3-2.4-27.9-3.3c-1.7,8.7-3.5,17.4-6.1,26.3c-4,11-18,15-27,22c-9,8-20,23-13,31s20-7,31-3c6,3,10,13,8,22
		c-3,10-16,6-21,15c-1,3-1,6,0,9c2.5,3.7,4,7.4,4.9,11h241.5C1435.1,1021.1,1439.6,1013.6,1445,1010z"/>
	<path class="st34" d="M1671,588.6c-24.2,19.1-43.7,44.6-60,72.4c-19,31-58,31-89,42c-14,5-29,16-33,31c-3,13-5,26-14,36
		c-2.1,1.8-4.4,3.4-6.7,5c5.1,13.6,3.3,28.9,8.7,43c1,3,6,7,9,8c15,6,34-2,45,15c10,16,31,18,45,4c2-1,6,0,8,1c13,14,17,32,27,49
		c2,3-1,11-4,15c-11,14-28,28-20,44c4,8,18,13,15,25c-1,7-9,10-14,13c-10,6-21,0-31,4c-18,7-37,5-55,3c-4-1-7,5-10,7
		c-16,9-33-6-47,4c-5.4,3.6-9.9,11.1-11.5,17H1671V588.6z"/>
	<g>
		<path class="st7" d="M821,301c-7,1-15,3-19-1c-10-7-16-34-29-19c-4,5,1,16-4,22c-8,10-24,3-35,0c-4-2,2-12-3-15c-4-2-12-3-14,1
			c-8,12-18,21-32,15c-10-5-3-17-9-24c-2-2-11,2-13-1c-3-5,1-14-3-19c-3-5-11-8-17-5c-16,8-16,27-27,36c-6,6-15-2-22-9
			c-6-6-21-6-32-8c-6.8-2.3-9.8-9.1-13.4-15.6c-4.4,6-6.9,14-8.3,21.4c-2.1,11.9-2.7,24.1-1.7,36.1c0.3,3.6,0.9,7.6,3.7,9.9
			c2.6,2.3,6.5,2.4,9.5,4.1c7.2,4.1,6.7,15.4,1.2,21.7c-5.4,6.3-13.8,9-21.4,12.4c-7.6,3.3-15.5,8.3-17.7,16.4
			c-1.1,4-0.7,8.6-7.4,10.4c-3.3,0.9-6.8,0.5-10-0.9l-29.4-12.6c-7-3-14.5-6.1-22.1-3.1c-4.2,1.6-7.2,5.6-7.1,10.1
			c0.2,13.3,24,11.2,30.5,22.9c6.1,10.8-5.5,28.9,6.9,34.5c1.2,0.5,2.5,0.8,3.8,1c16.4,1.9,33.3,4.1,49.5,0.9
			c15.6-3.1,30.8-11.9,37.6-26.3c3-6.3,5.2-14.5,12-16.2c2.8-0.7,5.7-0.1,8.5-0.1c17.2-0.1,25.5-20.9,37.7-33.4
			c4.8-4.9,10.2-8.6,16.9-9.2c4.6-0.4,9.2,0.8,13.7,1.8c20.1,4.3,41,4.5,61.2,0.4c6.5-1.3,15.6-2.5,19,4.9
			c2.5,5.4,2.8,11.5,2.8,17.4c0,5.2-2.7,12.2,2.4,15.9c2.3,1.7,5.3,2.1,8.1,1.8c6.6-0.7,12.6-4.4,18.7-6.7
			c9.6-3.7,18.4-9.2,25.6-16.6c3-3.1,6.6-5.6,10.9-3.8c2.9,1.1,4.3,4,6.9,5.5c1.5,0.9,3.5,1.3,5.2,0.6c1.8-0.7,2.8-2.6,3.8-4.3
			c4.6-8.5,9.1-17.1,13.8-25.5c2.7-5,5.5-10.1,6.1-15.7c1.2-11.2-6.5-22.1-11.6-32.6C825.6,301,823.3,300.8,821,301z"/>
		<g>
			<path d="M820.6,299.6c-4.1,0.6-8.3,1.6-12.5,1.3c-3.2-0.2-5.5-2-7.6-4.2c-3.7-3.9-6.1-8.8-9.2-13.2c-2.4-3.5-5.6-7.9-10.3-8.4
				c-4.8-0.4-9.9,4.1-10.9,8.6c-1.4,6.6,2,14.6-3.7,19.8c-5.3,4.8-13.5,3.3-19.7,1.7c-3.5-0.9-7-2-10.5-3.1
				c-1.2-0.4-2.1-0.3-2.2-1.7c-0.2-1.3,0.1-2.8,0.3-4.1c0.3-2.5,0.7-5.5-0.7-7.8c-1.4-2.3-4.5-3-7-3.5c-2.9-0.5-6.2-0.6-8.8,1
				c-1.3,0.8-2,2-2.8,3.2c-1.2,1.7-2.5,3.4-3.8,5c-4.7,5.5-10.8,10.4-18.4,10.1c-3.5-0.2-8-1.3-10.2-4.2c-1.8-2.4-2-5.7-2.1-8.6
				c-0.2-4.2-0.2-13.3-6.1-13.7c-2.7-0.2-5.4,0.7-8.1,0.7c-1.5,0-2.1-0.3-2.6-1.8c-0.5-1.7-0.4-3.6-0.4-5.4c0.1-3.5,0.5-7.2-1-10.5
				c-1.3-2.9-3.8-5.4-6.7-6.9c-3-1.5-6.5-2.2-9.9-1.6c-3.5,0.6-6.6,2.8-9.2,5c-5,4.3-8.2,10.2-11,16.1c-2.7,5.5-5.2,11.5-9.8,15.7
				c-1.3,1.1-2.5,2.1-4.3,2.3c-1.9,0.1-3.9-0.7-5.5-1.7c-3.8-2.1-7-5.2-10.1-8.3c-5-4.9-12-6.1-18.7-7.1c-4-0.6-7.9-1-11.9-1.5
				c-1.8-0.3-3.4-0.5-5-1.5c-1.7-1-3.2-2.4-4.4-4c-2.4-3-4.1-6.6-5.9-9.9c-0.6-1.1-2-0.9-2.6,0c-4.7,6.6-7.2,14.6-8.6,22.5
				c-1.6,9-2.3,18.2-2.1,27.3c0.1,6.7-0.5,16.9,6.3,20.7c3.1,1.7,7,1.8,9.6,4.2c2.1,2,3,5,3,7.8c0.1,16.2-20.4,19.2-31.2,25.8
				c-5.7,3.5-10.7,8.4-12.2,15.1c-0.5,2.3-0.8,4.9-2.7,6.5c-3.1,2.6-8.1,2.4-11.7,1.1c-6.6-2.4-13-5.6-19.5-8.3
				c-3.2-1.4-6.4-2.7-9.6-4.1c-5.3-2.3-10.7-4.7-16.5-4.9c-7.1-0.3-14.8,3.4-15.8,11.1c-0.6,4.8,1.7,8.7,5.6,11.3
				c4.1,2.7,9,4.1,13.5,5.9c4.4,1.8,9.4,4.1,11.7,8.6c2.6,5.1,1.3,11.6,0.7,17.1c-0.5,4.9-0.9,10.7,2.6,14.7c2,2.3,5,3.5,8,3.9
				c4.5,0.6,9,1.1,13.6,1.5c9.1,0.9,18.4,1.5,27.6,0.6c14.7-1.3,29.5-6.4,39.9-17.2c2.4-2.5,4.5-5.2,6.3-8.2
				c1.7-2.9,2.9-6.1,4.2-9.1c1.3-2.8,2.7-5.7,5.1-7.7c3.3-2.7,7.4-1.7,11.4-1.7c12.7-0.1,21-11,27.9-20.3c4-5.3,7.8-10.9,12.7-15.4
				c2.8-2.6,6-4.8,9.6-6c4.3-1.4,8.7-1.1,13.2-0.2c9,1.8,17.9,3.5,27,4.1c9.2,0.6,18.5,0.3,27.7-0.8c4.3-0.5,8.5-1.3,12.7-2.1
				c2.8-0.5,5.8-0.9,8.7-0.7c2.9,0.3,5.7,1.5,7.3,4.1c2.1,3.7,2.8,8.4,3,12.6c0.2,3.5,0,6.8-0.4,10.3c-0.3,2.9-0.5,6.1,0.9,8.8
				c3.7,7.2,13.5,5.4,19.6,3.1c3.9-1.5,7.5-3.4,11.4-4.9c3.6-1.4,7.2-3.1,10.6-5c3.4-1.9,6.6-4.2,9.7-6.6c3-2.4,5.5-5.7,8.8-7.8
				c1.7-1.1,3.7-1.7,5.7-1.1c1.8,0.6,3,2,4.3,3.3c2.3,2.2,5.3,4.2,8.6,3.3c3.6-1,5.1-5,6.7-7.9c2.2-4.1,4.5-8.3,6.7-12.4
				c2.2-4.1,4.4-8.1,6.6-12.2c2-3.6,3.9-7.4,4.8-11.4c1.8-7.9-0.8-15.6-4.2-22.7c-1.7-3.6-3.7-7.1-5.6-10.7
				c-0.9-1.6-1.2-3.6-3.2-3.9c-2.1-0.4-4.3-0.4-6.5-0.3c-1.9,0.1-1.9,3.1,0,3c2.2-0.1,4.3,0,6.5,0.3c-0.3-0.2-0.6-0.5-0.9-0.7
				c3.6,7.4,8.3,14.4,10.5,22.4c1.1,4,1.4,8.1,0.4,12.1c-1,4.1-3,7.9-5.1,11.6c-4.4,8-8.7,16.1-13,24.1c-0.8,1.5-1.6,3.4-2.8,4.7
				c-1.6,1.7-3.8,1.4-5.6,0.2c-2.7-1.9-4.3-4.8-7.7-5.7c-7.3-1.9-12.4,6-17.4,9.9c-6.4,5.1-13.4,8.4-20.9,11.6
				c-3.7,1.6-7.3,3.4-11.1,4.7c-3.8,1.2-8.4,2.2-12,0c-3-1.9-3.1-5.4-2.8-8.6c0.3-3.4,0.7-6.6,0.5-9.9c-0.2-6.3-1-15.1-6.7-19
				c-4.6-3.1-10.7-2.4-15.9-1.4c-17.6,3.3-35.4,4.1-53.2,1.3c-8.2-1.3-16.9-4.7-25.3-3c-6.8,1.4-12.4,6-16.9,11.1
				c-4.1,4.6-7.6,9.8-11.4,14.7c-3.6,4.7-7.5,9.6-12.5,12.9c-2.4,1.6-5.1,2.7-7.9,3.2c-3.5,0.6-7.1-0.3-10.6,0.2
				c-6.5,0.9-9.7,6.8-12.1,12.2c-2.8,6.4-5.8,12.1-10.9,16.9c-5.1,4.8-11.3,8.4-17.8,10.8c-16.2,6-33.9,4.8-50.7,2.9
				c-6.3-0.7-15-0.3-16.6-8.1c-1.1-5.4,0.5-11.1,0.7-16.5c0.2-5.2-0.7-10.4-4.4-14.2c-3.3-3.4-8-5.3-12.3-7c-4.3-1.6-9.2-3-12.7-6
				c-4.2-3.7-3.7-10.1,0.8-13.5c6.9-5.1,16.3-1.2,23.2,1.7c2.3,1,4.6,2,6.9,3c7.2,3.1,14.4,6.2,21.5,9.2c4.5,1.9,9.5,2.7,14.2,0.7
				c2.5-1.1,4.2-3,5.1-5.6c0.9-2.5,1-5.1,2.1-7.5c3-6.5,9.8-10.3,16.1-13.1c6.7-3,13.9-5.4,19.4-10.3c4.4-3.9,7.1-9.5,6.8-15.5
				c-0.3-6.1-3.8-10.4-9.6-12.3c-1.7-0.6-3.5-1-5-1.9c-1.7-1.1-2.7-2.9-3.2-4.9c-1-3.9-1-8.2-1.1-12.1c-0.2-9.1,0.4-18.3,1.9-27.3
				c1.3-7.7,3.7-15.3,8.3-21.8c-0.9,0-1.7,0-2.6,0c3.4,6.1,6.9,14.3,14.3,16.3c3.6,1,7.7,1.1,11.4,1.6c3.9,0.5,7.9,1,11.7,2
				c3.3,0.9,6.2,2.1,8.7,4.5c3.1,3,6.2,6.1,9.9,8.4c2.8,1.8,6.2,3.3,9.6,2.5c3-0.7,5.5-3.3,7.3-5.6c8.4-10.2,10-25.1,22.5-32
				c6.5-3.6,16.4,0,17.5,7.8c0.7,4.6-2.4,15.7,4.5,16.9c2.8,0.5,5.6-0.5,8.4-0.6c1.5-0.1,1.9,0,2.6,1.3c0.7,1.3,1.1,2.8,1.3,4.3
				c0.8,5.7-0.5,12.4,4.3,16.8c5.1,4.7,13.9,5.1,20.1,2.5c6.9-2.9,12-9,16.2-15c1-1.4,1.6-2.4,3.3-2.8c1.6-0.4,3.3-0.3,4.9,0
				c1.4,0.2,3.2,0.6,4.4,1.3c1.1,0.7,1.3,2,1.4,3.2c0.1,2.7-0.8,5.4-0.5,8.1c0.3,3.1,2.2,3.8,4.9,4.6c6.9,2,13.9,4.6,21.1,4.6
				c6.4-0.1,13.2-3.2,15.1-9.8c1-3.4,0.6-6.9,0.6-10.4c-0.1-3.4,0-6.4,2.6-8.9c1.5-1.5,3.5-2.9,5.8-2.5c2,0.4,3.6,2,4.9,3.5
				c6.8,7.7,10.8,22.2,23.1,22.3c4.1,0.1,8.2-0.9,12.2-1.4C823.3,302.2,822.5,299.3,820.6,299.6z"/>
		</g>
	</g>
	<g>
		<path class="st7" d="M989.1,137.1c-1.9-10.7-10.6-18.7-18.9-25.8c-11.2-9.7-23.3-19.8-38-21.4c-21.7-2.3-40.3,14.5-54.7,30.9
			c-6.5,7.4-13.1,13.1-23.4,13c-6.6,0-13-2.1-19.2-4.3c-8.6-3.1-18.6-8.7-27-2.4c-5.4,4.1-9.9,10.4-16.9,11.6
			c-4.6,0.8-9.5,0.2-13.8,2.2c-6.6,3.1-6.7,12.7-13.9,15c-4,1.3-8-1.3-12-2.8c-3.6-1.4-7.4-1.8-11.2-1.6c0.6,3,0.6,6.2-0.2,9.6
			c-3,7-9,12-14,18c-7,8-5,21,6,25c15,5,31-2,47,1c-4,14,8,21,20,16c8-3,19-9,23-4c10,11,13,10,24,18c6.9,4.9-2.6,18.5,0.8,29.4
			c6.6-2.3,13.2-4.8,17.6-9.8c4.4-5.1,6-11.9,8.9-18c9.4-19.4,35.1-28.9,54.8-20.2c7.9,3.5,15.9,9.6,24.3,7.2
			c12.1-3.4,12.6-20.2,10.2-32.6s-3.1-28.8,8.5-33.6C981.5,160.6,991,147.8,989.1,137.1z"/>
		<g>
			<path d="M990.5,136.7c-1.8-9.9-9.1-17.4-16.3-23.9c-7.7-6.8-15.6-13.8-24.7-18.7c-8.8-4.8-18.7-7-28.7-5.2
				c-9.7,1.7-18.4,6.8-26,12.8c-4,3.1-7.7,6.6-11.3,10.2c-3.5,3.6-6.7,7.4-10.1,11c-3,3.1-6.5,6-10.5,7.7c-4.7,1.9-9.9,2-14.9,1.1
				c-5.6-1-11-2.9-16.3-5c-4.6-1.8-9.3-3.8-14.3-4c-5.1-0.2-9.2,1.9-12.9,5.2c-3.4,3-6.5,6.5-10.7,8.4c-4.7,2.1-10.2,1-15.1,2.4
				c-4,1.2-6.5,4-8.5,7.5c-1.7,2.9-3.3,6.6-6.6,8c-2.4,1-5,0.2-7.3-0.7c-2.6-1-5.1-2.3-7.9-2.9c-2.7-0.6-5.4-0.8-8.1-0.7
				c-1,0-1.6,0.9-1.4,1.9c0.4,2,0.4,4.1,0.2,6.1c-0.2,2.2-0.9,3.9-2.1,5.8c-2,3.3-4.7,6.2-7.3,9c-2.4,2.6-5,5.1-6.8,8.1
				c-1.4,2.4-2.2,5.1-2.4,7.9c-0.4,5.7,2.2,11.1,6.8,14.5c2.9,2.1,6.5,3.1,10.1,3.6c4,0.6,8.1,0.7,12.2,0.4
				c9.7-0.6,19.4-2.5,29.1-0.8c-0.3-0.6-0.7-1.2-1-1.8c-1.1,4-1.2,8.3,0.6,12c1.5,3.1,4.3,5.3,7.5,6.5c8.3,3.1,16.3-2,23.9-4.7
				c2-0.7,4.1-1.5,6.3-1.7c1.4-0.2,3.2-0.2,4.4,0.7c0.8,0.6,1.4,1.4,2,2.1c0.9,0.9,1.8,1.8,2.7,2.7c1.5,1.4,3,2.7,4.6,4
				c2.6,2,5.5,3.6,8.4,5.3c1.8,1.1,3.5,2.2,5.2,3.3c1.4,1,3,1.8,3.6,3.5c0.6,1.7,0.4,3.6,0.2,5.3c-0.3,2.3-0.8,4.5-1.3,6.7
				c-0.9,4.7-1.6,9.7-0.2,14.4c0.2,0.7,1.1,1.3,1.8,1c7.4-2.6,15.1-5.6,19.8-12.2c4.4-6.2,5.7-14,9.9-20.4
				c7-10.8,19.7-17.6,32.5-18.5c6.6-0.4,13.2,0.7,19.1,3.5c7.1,3.4,14.6,8.7,22.9,7.1c13.3-2.5,14.6-18.8,13.3-29.6
				c-0.7-6.4-2.3-12.5-2.2-18.9c0.1-5.6,1.1-12,5.6-15.9c1.1-0.9,2.3-1.6,3.6-2.2c-0.4,0.1-0.8,0.1-1.2,0.2
				c5.7,1.7,11.4-0.9,15.1-5.4C989.6,148.9,991.5,142.7,990.5,136.7c-0.3-1.9-3.2-1.1-2.9,0.8c1.2,6.9-2.7,15.3-9.3,18.1
				c-1.5,0.7-3.2,1-4.8,0.8c-0.8-0.1-1.8-0.5-2.6-0.4c-0.9,0.1-1.8,0.7-2.5,1.2c-2.8,1.7-4.9,4.3-6.3,7.3c-6.2,13.9,1.6,28.7-0.1,43
				c-0.7,6.2-3.4,12.9-10,14.7c-4.6,1.3-9.2-0.3-13.4-2.3c-4.2-2-8.2-4.4-12.5-5.9c-14.2-5.1-30.7-1.5-42.5,7.7
				c-6.3,4.9-10.6,11.3-13.5,18.7c-1.7,4.3-3.2,8.8-6.2,12.5c-2.8,3.6-6.8,5.9-10.9,7.6c-2.1,0.9-4.4,1.7-6.6,2.5
				c0.6,0.3,1.2,0.7,1.8,1c-1.2-4.1-0.7-8.4,0.1-12.5c0.7-3.7,1.9-7.6,1.6-11.4c-0.1-1.5-0.5-3.1-1.3-4.4c-1.1-1.7-2.9-2.7-4.6-3.8
				c-3-2.1-6.2-3.8-9.3-5.7c-3.1-1.9-5.9-4.2-8.5-6.7c-1.5-1.5-2.9-3.5-4.7-4.7c-1.5-0.9-3.3-1.2-5-1.1c-4.3,0.2-8.5,2-12.4,3.7
				c-3.8,1.6-7.8,3.6-12,3.8c-3.7,0.2-7.6-0.8-10.1-3.7c-2.9-3.3-2.9-8-1.8-12c0.2-0.7-0.2-1.7-1-1.8c-8.3-1.5-16.6-0.5-25,0.3
				c-4,0.4-8.1,0.7-12.2,0.5c-3.7-0.2-7.9-0.7-11.3-2.4c-4.9-2.4-7.8-7.4-7.6-12.8c0.3-6.5,5.1-10.8,9.2-15.3c2.8-3,5.5-6.2,7.5-9.8
				c1.1-2.1,1.7-4.1,1.9-6.5c0.2-2.2,0-4.5-0.4-6.7c-0.5,0.6-1,1.3-1.4,1.9c2.9-0.1,5.7,0.1,8.5,0.9c2.6,0.7,5,2,7.6,2.9
				c4.3,1.6,8.7,1.1,12-2.3c2.5-2.6,3.8-6.1,5.9-9c2.8-3.9,7.2-4.4,11.8-4.7c2.5-0.2,5-0.3,7.4-1.1c2.1-0.7,4-1.8,5.8-3.1
				c3.6-2.7,6.5-6.2,10.2-8.7c4.3-2.8,9.4-2.3,14.2-0.9c4.9,1.5,9.6,3.6,14.4,5.3c9.7,3.2,20.3,5,29.5-0.5c3.8-2.2,7-5.4,10-8.6
				c3.3-3.7,6.6-7.3,10.1-10.8c7-6.9,14.9-13.3,24-17.3c9-4,18.9-4.8,28.2-1.8c9.7,3.1,18.1,9.6,25.8,16.1
				c7.4,6.2,15.6,12.7,19.9,21.5c1.1,2.1,1.8,4.4,2.2,6.7C988,139.3,990.9,138.5,990.5,136.7z"/>
		</g>
	</g>
	<g>
		<path class="st7" d="M846,235c-11-8-14-7-24-18c-4-5-15,1-23,4c-12,5-24-2-20-16c-16-3-32,4-47-1c-11-4-13-17-6-25
			c5-6,11-11,14-18c0.8-3.5,0.8-6.7,0.2-9.6c-19.1,0.7-39.9,16.3-56.5,6.2c-13.4-8.2-18.2-30.7-33.9-30c-10.9,0.5-17,12.8-18.8,23.5
			c-1.8,10.7-2.3,22.9-10.2,30.3c-2.4,2.2-5.4,3.9-7.7,6.3c-7.9,8.3-4.9,21.6-2,32.6c2.9,11,4.1,25.2-5.5,31.5
			c-12.5,8.3-28.9-5.7-43.6-2.7c-5.7,1.2-10.2,4.7-13.5,9.4c3.7,6.6,6.6,13.4,13.4,15.6c11,2,26,2,32,8c7,7,16,15,22,9
			c11-9,11-28,27-36c6-3,14,0,17,5c4,5,0,14,3,19c2,3,11-1,13,1c6,7-1,19,9,24c14,6,24-3,32-15c2-4,10-3,14-1c5,3-1,13,3,15
			c11,3,27,10,35,0c5-6,0-17,4-22c13-15,19,12,29,19c4,4,12,2,19,1c2.3-0.2,4.6,0,6.9,0.4c-4-8.1-6.5-15.9-2.4-23.6
			c4.1-7.7,12.7-10.4,21.3-13.4C843.4,253.5,852.9,239.9,846,235z"/>
		<g>
			<path d="M846.8,233.7c-4.4-3.2-9.3-5.7-13.8-8.8c-2.3-1.6-4.4-3.4-6.4-5.3c-2-2-3.7-4.7-6.5-5.6c-2.6-0.8-5.5-0.2-8.1,0.5
				c-3.1,0.9-6.1,2.1-9.1,3.4c-5.3,2.2-10.8,4.6-16.5,2.4c-6.3-2.4-7.6-9-5.9-14.9c0.2-0.7-0.2-1.7-1-1.8
				c-8.3-1.5-16.5-0.5-24.8,0.2c-4.1,0.4-8.1,0.7-12.2,0.5c-3.8-0.2-8-0.7-11.4-2.4c-4.9-2.5-7.8-7.5-7.5-13
				c0.3-6.4,5.2-10.7,9.3-15.1c2.8-3,5.6-6.2,7.6-9.9c2.1-4,2.2-8.6,1.4-13c-0.1-0.6-0.8-1.1-1.4-1.1c-11.5,0.5-22.1,5.5-33.1,8.2
				c-5.2,1.3-10.7,2.1-15.9,0.9c-4.7-1-8.6-3.6-11.9-7c-6-6.2-9.8-14.3-16.1-20.3c-2.8-2.7-6.2-4.8-10.1-5.4
				c-4.5-0.7-9,0.6-12.6,3.4c-8.2,6.5-10.3,17.4-11.7,27.2c-0.8,5.4-1.6,11-3.8,16c-1.1,2.5-2.6,4.8-4.5,6.8
				c-2.1,2.1-4.6,3.6-6.8,5.5c-9,7.7-7.4,20.3-5,30.6c2.2,9.3,5.8,20.5,0.9,29.6c-2.3,4.2-6.5,7-11.3,7.4c-5,0.4-10-1.1-14.8-2.4
				c-5.1-1.5-10.3-3-15.6-3.2c-5.4-0.2-10.6,1.4-14.9,4.8c-2.1,1.6-3.9,3.6-5.4,5.8c-0.3,0.4-0.2,1.1,0,1.5
				c3.4,6.1,7.3,15.1,15.1,16.5c7.7,1.3,15.6,1.5,23.2,3.7c3.3,1,5.9,2.4,8.4,4.8c3.1,3,6.3,6.1,10.1,8.2c3,1.7,6.6,3,10,1.7
				c2.9-1.1,5.3-3.9,7.1-6.3c3.9-5.1,6.1-11.3,9.1-17c3.2-6,7.6-12.1,14.1-14.7c6.7-2.7,15.5,2.2,16,9.5c0.4,5.1-2.2,15.8,5.5,16.1
				c2.8,0.1,5.5-1,8.3-0.7c2.1,0.2,2.8,4.5,3,6.3c0.6,6.1-0.3,12.9,5.3,17c3,2.2,7.3,3.1,11,3.1c3.5,0,6.9-0.9,10-2.6
				c3.2-1.7,6.1-4.2,8.5-6.9c1.3-1.5,2.6-3,3.8-4.6c0.6-0.8,1.2-1.6,1.7-2.4c0.4-0.7,0.8-1.5,1.4-2c2.2-1.9,6.3-1.2,8.9-0.5
				c1.2,0.3,2.7,0.7,3.3,1.8c0.6,1.1,0.5,2.4,0.5,3.6c-0.2,2.6-1,5.4-0.3,8c0.9,3.1,4.5,3.3,7.1,4.1c6.8,2.1,14.2,4.6,21.4,3.7
				c3.3-0.4,6.5-1.7,8.9-4c2.7-2.5,3.8-5.6,4.1-9.2c0.3-3.6-0.4-7.2,0.1-10.8c0.4-2.9,2.3-5.2,4.9-6.6c4-2.3,7.4,1.4,9.7,4.4
				c3.4,4.4,5.9,9.4,9.4,13.8c1.6,2,3.5,4,5.7,5.3c3.3,2,7.4,1.7,11.1,1.3c2.1-0.2,4.1-0.6,6.1-0.9c2.6-0.4,5.1-0.3,7.7,0.1
				c1.3,0.2,2.3-1,1.7-2.2c-3.8-7.8-6.8-17.2-0.7-24.7c4.6-5.7,12.1-7.8,18.7-10.1c0.8-0.3,1.3-1,1-1.8c-1.7-5.8,0.1-11.8,1.1-17.5
				C850.2,242,850.9,236.8,846.8,233.7c-1.5-1.2-3,1.4-1.5,2.6c3.4,2.6,1.4,8.7,0.7,12.1c-1.1,5.4-2.2,11-0.6,16.4
				c0.3-0.6,0.7-1.2,1-1.8c-7.5,2.6-15.9,5.2-20.8,11.9c-6.3,8.5-3.2,18.7,1,27.3c0.6-0.7,1.1-1.5,1.7-2.2c-2.5-0.4-5-0.7-7.5-0.4
				c-2.1,0.2-4.3,0.7-6.4,1c-3.5,0.5-8.1,1.1-11.1-1.3c-4.1-3.3-6.8-7.7-9.6-12.2c-2.5-4-5.4-9-9.8-11.1c-4.7-2.3-10,0.8-12.6,4.9
				c-3.8,5.9,0.5,13.8-2.6,19.9c-3.4,6.7-12,6.6-18.4,5.3c-3.6-0.7-7.1-1.8-10.7-2.9c-0.8-0.3-1.6-0.5-2.5-0.7
				c-0.8-0.2-1.8-0.3-2.5-0.7c-0.8-0.4-0.7-1.3-0.7-2.2c0-2.8,0.8-5.5,0.5-8.3c-0.4-3.1-2.5-4.7-5.4-5.5c-3-0.9-6.5-1.4-9.5-0.4
				c-3.4,1.1-4.8,4.5-6.8,7.1c-4.3,5.6-10.2,11.4-17.7,12c-3.6,0.3-8.1-0.4-11-2.7c-2.4-1.8-3.2-4.7-3.5-7.6
				c-0.3-3.1-0.1-6.2-0.8-9.2c-0.5-2.4-1.7-6.1-4.3-6.8c-2.6-0.7-5.5,0.3-8.1,0.5c-0.9,0.1-2.3,0.3-3.1-0.3c-1-0.8-1-3.1-1-4.2
				c-0.1-3.7,0.5-7.4-0.3-11c-0.7-3.3-3.2-6.2-6-8.1c-3-2-6.9-3-10.5-2.5c-3.7,0.5-6.9,2.5-9.7,4.8c-5.2,4.3-8.4,10.3-11.3,16.3
				c-2.7,5.6-5.2,11.7-9.9,15.9c-1.2,1.1-2.4,2.1-4.1,2.2c-1.7,0.1-3.3-0.5-4.8-1.2c-3.9-2-7.2-5-10.2-8.1c-2.5-2.4-4.9-4.2-8.2-5.3
				c-3.5-1.3-7.3-1.9-11-2.4c-4-0.6-8-1-11.9-1.6c-1.9-0.3-3.6-0.6-5.2-1.6c-1.6-1-3-2.3-4.1-3.7c-2.5-3.1-4.2-6.7-6.1-10.1
				c0,0.5,0,1,0,1.5c3.3-4.5,7.9-7.9,13.4-8.8c5.2-0.8,10.4,0.5,15.4,1.9c9.1,2.5,19.9,6.6,28.4,0.4c8.3-6.1,8.4-17.5,6.8-26.7
				c-1.8-10.2-6.7-21.2-3.1-31.6c0.9-2.6,2.5-4.8,4.5-6.6c2.2-2,4.8-3.5,6.9-5.5c3.8-3.7,6-8.7,7.4-13.8c2.7-10.2,2.2-21.1,7.7-30.4
				c2.4-4,5.8-7.5,10.5-8.6c3.9-0.8,7.7,0.2,10.9,2.5c3.3,2.3,5.8,5.7,8.2,8.9c2.6,3.6,5.1,7.3,7.9,10.7c2.8,3.3,6,6.4,9.9,8.4
				c4.6,2.3,9.7,2.9,14.8,2.5c11.3-1,21.7-6,32.7-8.4c2.6-0.6,5.3-1,8-1.1c-0.5-0.4-1-0.7-1.4-1.1c0.4,2.1,0.5,4.3,0.2,6.4
				c-0.3,2.3-1.1,4-2.3,5.9c-2.1,3.3-4.8,6.2-7.4,9.1c-2.3,2.4-4.8,4.9-6.4,7.8c-1.4,2.4-2.2,5.2-2.4,8c-0.3,5.5,2.2,10.9,6.7,14.2
				c6.2,4.5,15.3,4.5,22.6,4.1c9.6-0.6,19.2-2.5,28.8-0.7c-0.3-0.6-0.7-1.2-1-1.8c-1.5,5.5-1.1,11.9,3.5,15.9
				c4.3,3.7,10.3,4.3,15.6,2.9c6.4-1.7,12.2-5.6,18.8-6.6c1.1-0.2,2.4-0.3,3.5,0c1.5,0.4,2.4,1.8,3.4,2.9c2.2,2.3,4.5,4.4,7,6.4
				c5,3.8,10.8,6.6,15.9,10.3C846.8,237.4,848.3,234.8,846.8,233.7z"/>
		</g>
	</g>
</g>
</svg>
