<svg xmlns="http://www.w3.org/2000/svg" viewBox="0 0 59.55 53.68"><defs><style>.cls-1,.cls-2{fill:#cc925e;}.cls-1{fill-rule:evenodd;}</style></defs><g id="Слой_2" data-name="Слой 2"><g id="Слой_1-2" data-name="Слой 1"><path class="cls-1" d="M57.7,20.45,56,19.73c-.2-.09-.47-.11-.58-.26a4.84,4.84,0,0,1-.78-3.15l1.29.28,0-.1-1.15-.68.06-.21,1.31.19c-.21-.17-.33-.28-.45-.39l0-.14,3.8.76a1.71,1.71,0,0,0-.76-.38l-3.2-.85a3.17,3.17,0,0,1-.6-.32l.09-.18,2.62.35,0-.17c-.53-.15-1-.33-1.58-.43S55,14,54.47,13.89a.67.67,0,0,1-.47-.32,5.57,5.57,0,0,0-1.71-2.43,2,2,0,0,1-.24-.39l1.68-.44c-.77-.18-1.43-.79-2,0l-.65-.52a2.25,2.25,0,0,1-.37-.31,2.26,2.26,0,0,1-.22-.44A2.36,2.36,0,0,1,51,9c.13,0,.27.13.39.12A2.21,2.21,0,0,0,52,8.92c-1.32-.23-2.56-.39-3.11-1.81-.71.24-.78.19-.84-.56,0-.43-.26-.52-.64-.42.08.28.16.52.24.77L47.46,7l-.9-1A10.88,10.88,0,0,1,48,5.53c.1,0,.28.36.51.68,0-.45.2-.87.07-1.16a2.07,2.07,0,0,0-.86-.82,3.88,3.88,0,0,0-1.19-.44c-.4-.08-.82,0-1.22-.06s-.59-.11-.77.25a.42.42,0,0,1-.36.2c-.12,0-.29-.2-.29-.31,0-.42-.3-.38-.55-.35a2,2,0,0,0-.54.19c-.15-.16-.27-.4-.42-.41a6.23,6.23,0,0,1-2.09-1,4.91,4.91,0,0,0-1-.3A9.48,9.48,0,0,1,38,1.6,27,27,0,0,0,32.46.24,45,45,0,0,0,27.79,0a17.44,17.44,0,0,0-8.48,1.9A21.24,21.24,0,0,0,12.07,7.3a7.57,7.57,0,0,1-1.35,1.18,4.55,4.55,0,0,0-1.63,1.95c-.33.71-.73,1.38-1.11,2.06-.84,1.54-1.81,3-2.5,4.65a16.87,16.87,0,0,0-.84,2.45,2,2,0,0,1,0-.34l.08-.05c-.07,0,0-.11,0-.17a0,0,0,0,1,0,0,1.1,1.1,0,0,0,0-.48,1,1,0,0,0,0-.57,1.17,1.17,0,0,0,0-.46,2.35,2.35,0,0,0-.15-.47c0,.05-.05,0-.08.05s0-.06,0-.09,0,.08,0,.1-.06.14,0,.18,0,0-.07.06a.78.78,0,0,1,0,.22,1.13,1.13,0,0,0-.09-.22,3.39,3.39,0,0,0,0,1s0,.06,0,.08H4a.34.34,0,0,0,0,.1c-.1,0,0,.19.06.27s-.06,0-.09-.07,0,.07-.07.06,0-.07,0-.12.05.07,0,.08,0,0,0,.06,0,0,0,0,0-.06-.08-.07,0,0,0,0,0-.06,0-.1,0,0,.06,0-.1-.15-.1-.25,0,.1.08.13,0-.12,0-.11,0-.23,0-.35c-.05.06,0,.14,0,.22a.18.18,0,0,1,0-.26.32.32,0,0,1,0-.27c-.07-.3,0-.55,0-.84-.06.05,0,.11-.12.15a.19.19,0,0,1-.08.18l0,0c-.07,0,0,.1-.06.13s0,0-.06-.05,0,.12,0,.18,0,0-.07,0,0,.14,0,.24-.07-.1-.09-.15l0,.05h0c0,.05,0,.07,0,.1s0,0,0,0a.42.42,0,0,1,0,.22.05.05,0,0,0,.08,0,.09.09,0,0,1,0,.08H3.21a.33.33,0,0,0-.11-.29,1.42,1.42,0,0,1,.08-.41c-.08,0,0-.08,0-.13s0,.06,0,.08,0-.12,0-.18,0,0,.06,0,0-.18,0-.26,0-.14,0-.24,0,.07,0,.1a.45.45,0,0,1,0-.4c-.07-.11.08-.41-.09-.47,0-.08,0-.13,0-.19s0,.05.06.05c0-.19-.1-.38-.23-.42s-.09.1-.14.07-.08.23-.21.23c.05.06,0,.13.07.15s0,0,0,0,0,0,0,0a.08.08,0,0,0-.06.08s0,0-.07,0,0,0,0,.06-.06.22,0,.33,0,.26,0,.4h0c-.1-.07-.08-.19-.13-.27s0,0-.06.05a2.28,2.28,0,0,1,0,.51h0a.36.36,0,0,0-.06-.23s0,.06-.05.08.05,0,0,.06l.08,0c0,.06,0,.21.05.2s-.06,0,0,0,0,0-.06,0,0,.1.09.09-.06,0-.09,0,.06,0,.08.08,0,0-.05,0,0,.05.05.06,0,.05-.08.05,0-.06,0-.09,0,.1.06.11a.23.23,0,0,0,0,.21c0,.05,0,0-.08,0v-.14a.08.08,0,0,1-.12,0s0,0,0,.06,0,.05-.07.05,0,.12,0,.2,0-.07,0-.07,0,0,0,0v0c-.05,0,0,.08,0,.13s-.07,0-.12,0,0,0,0,.08-.05,0-.08,0,0,0,0,0,0,0-.07,0a.58.58,0,0,1,0,.19c-.05,0,0,0-.05-.07s0,.07,0,.09,0,0,.05,0c-.08.15,0,.33-.1.47s0,0,0,0,0,.07,0,.09c-.17,0,0,.22-.07.3-.13-.07-.06-.17-.1-.27s0,.11-.06.1l0,.08s0,0-.06,0,0-.07,0-.09,0,0-.06-.05.07.12,0,.15l.12.18s-.05,0-.07,0,0,.06-.06.09.06,0,.07.07,0-.05,0-.06a.11.11,0,0,1,0,.11l.05.12c-.06,0,0,0-.06,0s-.05,0-.09,0,.05.09.1.18a.75.75,0,0,1-.1.17.45.45,0,0,1,.11.23s0-.05-.07-.05.08.23.13.3c.06-.09-.06-.16-.07-.23s0,0,.05,0,0-.08,0-.07-.08-.3.07-.38a.33.33,0,0,1,0,.36c.12.11.06.26,0,.39a.42.42,0,0,0-.15-.12s0,.06,0,.1c-.14.06,0,.15-.11.2a.56.56,0,0,1,0,.18s0,0,.05,0,0,.05,0,.09-.05,0,0-.06,0,.13,0,.14,0,.1-.06.12.05.15,0,.19-.1-.06-.14-.11.05.14,0,.23-.05,0-.06,0,0-.06.05,0a.09.09,0,0,0,0-.09c.05,0,.05,0,.06,0s0,0,0,0-.07,0-.07.07,0,0,.05,0,0,.07,0,.1,0,0,0,0,0,0,0,0-.05,0-.09,0c.1.19,0,.32.07.49,0,0,0,0-.05,0a.31.31,0,0,1,0,.22c-.05,0,0-.13-.07-.13s0-.05,0,0a.76.76,0,0,1-.05.33c-.08,0,0-.12-.07-.14s0,0,0,.08-.05.41-.08.55,0-.1-.07-.05,0,.09,0,.14.05-.05.05-.08,0,0,0,0-.09.1,0,.19,0,0-.06,0,0,.1,0,.16a0,0,0,0,1-.05,0s0,.05,0,.06,0,0,0,0a1,1,0,0,0-.1.24.56.56,0,0,0,0,.12.66.66,0,0,0,0,.15s0,0-.05-.05,0,.07,0,.1.06,0,.07.06A.15.15,0,0,0,.59,24s0,0-.07,0,0,0,.06,0,0,.06,0,.15,0,0-.07,0a0,0,0,0,0,0,0c0,.08-.13.24-.2.21,0,.14.09-.08.13,0s0,0-.09.07,0,.14,0,.19,0,.14-.1.14L.3,25c.07,0,0,0,0-.07s0,.26,0,.41c0,0-.07,0-.07-.1-.08.09.05.14,0,.25s0,.14,0,.22a.28.28,0,0,0,0,.25c-.05,0,0-.08,0-.11s0,0-.09,0,0,.21.11.29,0,.06,0,.12,0-.18-.07-.07c0-.05,0-.09,0-.14s0,.18,0,.16,0,.11,0,.19,0,.08-.06.16a.9.9,0,0,1,.08.25s.07-.06,0-.11,0,.13,0,.18-.06,0-.07,0,0,.05-.08.05,0,.08.09.15,0-.06,0-.09.05.09,0,.13,0,0,0,0,0,.06,0,0,.07,0,0,.07.06,0,.1,0,0,0-.06,0,.05,0,.07,0,0,0,0,.06-.09,0-.13,0,.06,0,.08,0,0,.08,0,.12,0,0-.07.06,0,.1,0,.15.06.11.06.17,0-.06-.06,0,0,.11.05.18,0,0,.07,0S.18,28,.16,28s0,.05,0,.05.07.23,0,.35.06.06.11.13,0,0,0,.08,0-.06-.06-.09,0,.13.06.18,0,0-.08.07,0,.07.05.09l0,.05c.05,0,.08.1,0,.15s0,.07,0,.13,0,0,0,0,0,.06,0,.09-.05,0-.08,0a.23.23,0,0,1-.06.16s0,0,0,0,0,.12,0,.17c0-.13.08-.11.09-.23.1.1-.05.13,0,.21s.08-.1.12-.09,0,.12-.07.15.09,0,.14,0-.06.05-.1.1-.05-.05-.08,0,0,0,.09,0,0,.08,0,.05a.3.3,0,0,1,0,.11s0-.11-.08-.08.16.34,0,.3.05.06,0,.1c.11,0,0,.18.15.26-.06,0,0,.09-.07.07s0,0,.08.08a.37.37,0,0,0,.06.27c-.06,0,0,.1,0,.1s0,.07,0,.11,0,0,.08-.05a.13.13,0,0,1,0,.12c0,.07.07,0,0,.12s0,0,0,0a.22.22,0,0,1,0-.16,2,2,0,0,0,0,.26l0,0s0-.12-.06-.12.07.11,0,.21a.05.05,0,0,1,0,.05.06.06,0,0,0,.05,0s0,.1,0,.15,0,0,0,.06,0,0,0,0,0,0,0,0,0,0,0,0c-.09.21.07.42.05.58s-.05,0-.07,0,.1.12,0,.21,0,0,.05,0,0,0,0,.07,0,0,0,0,0,.07,0,.11,0,0,0,0,0,0,0,.07,0,0,0,0l0,0s0,0,0,.06a3.58,3.58,0,0,1,.11.35l0,0s.06.06,0,.1,0,0,0,0a.45.45,0,0,0,.11.23s0,.06,0,.1,0,0,.06,0,0-.17-.06-.29,0,0,0,0,0,0,0-.07,0,0,.05-.12c0,.16.13.34.1.46s0,0,0,0,0,0,0,0,.08.14.09.22.07.06.07.11-.09,0-.12,0,0-.1-.07-.09,0,0,0,.09,0,0,.09,0,0,.08.06.11,0,.17.07.24,0,.07,0,.11,0,0-.05,0,.09.14.1.22,0,0,.06,0,0,.07,0,.07,0,0,0,0,.05,0,.05.05,0,0-.05,0,0,.17.1.17,0,0,0,.07,0,.05,0,.05.13.07.1.18.07.1.1.14,0,0,0,0,0,.09.12.12,0-.08,0-.09.06,0,.06.05,0-.05,0-.07,0,0,.06,0,0,.09,0,.11,0,.07-.06.06.05.07,0,.13h0s.06,0,.08,0l-.08,0h0a.7.7,0,0,1-.16-.1s0,.08,0,.12.06,0,.05,0,0,0,.05,0,0,0,0,.09.16.14.09.2,0,0,.07.05,0-.06,0-.11,0,.09.05.13,0,0,.08,0,0,0,0,0,.06,0,.07,0,0-.06-.06-.07l.05,0s0,.11.06.15-.14,0-.12,0,0,0,.07,0,0,0,0,.07.05,0,.08,0,.06.07,0,.14c-.05-.12-.15-.19-.16-.35-.05.08-.07-.08-.14,0s0,0,0,.06.06.1,0,.13.07,0,.11,0,.05.05,0,.08,0-.08-.05,0,0-.05,0-.05,0,0,0,.05.05.07,0,.1.08.12.12.18,0,0,0-.05.07.17.15.18,0,0-.07,0a.76.76,0,0,1-.06-.16.05.05,0,0,0-.07,0s0,0,0,0a0,0,0,0,0,0,0c0,.08.08.21.15.22-.11,0,0,.09-.08.14s0,0,0,.05,0-.05,0-.08.08,0,.16,0-.07,0-.11,0,0,0,.06.08,0,0,.06,0,0,0,0,.06-.08-.07,0-.13-.11-.08-.12-.13,0,0,0,.05,0-.06,0,0c.18-.08.14.28.25.4s0,0,0,0,0,0,0-.07.09.05.05.09.13,0,.09.08-.06,0,0-.07-.07,0-.12,0,0,0,0,.1,0-.12-.12-.17,0,0-.06.08.05-.06.1,0a.73.73,0,0,0,.07.19s0,0,.05,0a.29.29,0,0,0,0-.09s.06,0,.08,0a0,0,0,0,1,0,0c0,.07.06,0,.06.07s-.06,0-.09,0,.06.19.16.24,0,0-.06.05,0,.07.08.09a.1.1,0,0,1,0-.06s0,.09.07.12-.12,0-.08-.06-.06,0-.08,0,.06.07.13.13,0,0,0-.07,0,.06.07.08,0,0,0,0,0,.11.09.14-.07,0-.12,0l0,0s-.05,0-.06,0,0,.08.07,0,0,.07,0,.1-.07,0,0,0,.09.1,0,.13l.07,0s0,0,0,0,0,0,0,.06,0,.11,0,.21,0,.2.07.29,0-.05,0-.08.06.11.07.16,0-.06-.06,0,0,.06-.05.07l.13.09c0,.05,0,.05,0,.09s.07.09,0,.09a.35.35,0,0,1,.07.25c0,.06-.07,0-.09,0s.06,0,.09,0,0,.06-.06.1,0,.06,0,.09,0,0-.07,0,0,0,0,0,0,0,0,0,0,.06,0,.09,0,0,0-.06.05,0,.07,0,0,0,0,.07,0,0-.07,0,0,0,.06,0a.78.78,0,0,1,0,.16l-.09,0c0,.06-.08.12,0,.17s-.09.07-.08.18,0-.08,0-.08,0,.07,0,.1,0,0,.06,0,0-.14,0-.14.05,0,.08,0-.06,0,0,.08,0,0-.06,0,.07,0,.05.1,0,0,0,0,0,0,0,0,0,.09-.06.07.07.09,0,.09.1,0,.08.11,0,0-.06,0,0,.18,0,.19,0,.1,0,.05a.34.34,0,0,0,.24.25.41.41,0,0,0,0,.08c0,.05-.08,0-.1,0s0-.06,0-.1-.08,0-.11,0,0,0,0,0,0,.06,0,.11,0,0,0,0,0,.06,0,.11.06.15,0,.24.12.06.11,0,0,0,0-.07,0,0,0,0,0-.15,0-.22c.1.19.11.5.21.73,0,0,0,0,0,0s0,.08,0,.1,0,.05,0,.11-.07-.07-.07,0,0,.07,0,.16.1.07.06.15,0,.09.09.12a.36.36,0,0,0,0,.29,1.06,1.06,0,0,1,.09.36s.1,0,0,.07.06,0,.08,0,0,0,0,0,0,0-.1,0,.09,0,.06.1.06,0,.09.1-.05,0-.08,0a.83.83,0,0,1,.12.21.33.33,0,0,0,.17.16s0,.06,0,.11-.08,0-.08,0,.06,0,.08,0,0,0,.09.09-.14,0-.16-.06,0,0,0,0a.34.34,0,0,0,.17.38c0,.06-.08,0-.08,0s.09.19.15.28,0,0,.07,0,0,0,0,0,0,0,.07,0,0,0,0,0,.06.12.1.09a0,0,0,0,0,0,0s0,0,0,0a.37.37,0,0,1,0,.11l.06.12a.28.28,0,0,0,.13.15c0,.14.07.07.09.15s.12.06.22.12,0-.07,0-.1,0,.08.09.1,0,0-.05,0a1.34,1.34,0,0,0,.12.24s0,0-.06,0,0,.08.09.1.17.28.32.34c-.09-.14-.19-.27-.27-.41.06,0,.07.08.1.13s0-.06,0-.1a.38.38,0,0,0,.1,0s0,0,0,.07.17,0,.23.14-.1,0-.14-.05,0,.06,0,.05.17,0,.21.1,0,0-.07,0,.14,0,.18.11-.07,0,0,.07a0,0,0,0,0,0,0s0,.06.08,0,.06.1.08,0,.06,0,.06.07-.12,0-.13,0l.12,0s0,0,0,.08a1.37,1.37,0,0,1,.16.18s0,0-.08,0,.17,0,.18.14.08,0,.08,0,0,0,0-.06h0c0,.09.11.11.13.2s-.12,0-.11-.1a.15.15,0,0,1-.1,0s0,.15.14.14,0,0,0,.1.19.09.27.17,0,0-.06,0,0,0,0,.1.1.09.17.11.08,0,.22.1c0,0-.1-.06-.12-.11s0,0,0,0a.1.1,0,0,1-.07-.07s0,0,0,0,0-.18-.1-.18-.09-.17-.17-.21,0,0,0,0a.6.6,0,0,0-.24-.32c0-.05-.09-.11,0-.13s-.06,0-.11-.07,0,0,0,.07l-.07,0s0,0,0,0,0,0,0-.1,0,0,0,0,0-.08,0-.08,0-.06,0-.07.07,0,0,0-.22-.18-.21-.25,0,0-.07,0,0,0,0,0,0,0,0-.1-.17-.2-.24-.31-.06,0-.1-.05.07,0,.09.09,0,0,0,.06-.13-.12-.1-.17,0,.09.06.09,0-.11,0-.09-.08-.16-.13-.23,0,0,0-.08a.16.16,0,0,1,.05.14s0,0,0,0,0-.09-.08-.12,0,0,0,.09-.08-.14-.16-.18,0,0-.07,0,0,0,0-.1,0,0,0,0S5,45.62,5,45.5s-.14-.19-.2-.3.08,0,.13,0-.11-.06,0-.13a.09.09,0,0,0-.09,0,.52.52,0,0,1-.13-.28c-.09,0-.11-.09-.13-.16s0,0,.05,0,0,.05,0,.07,0,0,0,0h0c0-.06-.08-.08,0-.15s0,.06.05.08,0-.08,0-.12,0-.1,0-.18a.07.07,0,0,1-.11,0c.06,0,0,0,.08-.08s0,0,0,0-.07,0-.13,0,0-.17-.08-.22.05,0,.08,0a.66.66,0,0,1,0-.2l-.06,0,0,.07c.07,0,0,.09,0,.14s0-.12-.09-.17c.12,0,0-.15,0-.27,0,0,0,.07,0,.11s0-.11,0-.14,0,0-.08,0,0,0,0-.09,0,0,0-.05-.08,0,0-.12,0,0-.1,0,.07.07.1,0-.07-.05-.13-.07.07.06.1,0,0-.08-.08-.1,0,0,.06,0,0-.14-.1-.24,0,0,.05-.07,0-.11-.07-.16.06,0,.08,0,0,0,0,0,0,0-.06,0,.06.09.07.18,0-.12,0-.17,0,.07,0,0a.5.5,0,0,0,0,.17s0,0,0,0,0,0,0,.08,0,0,0,0,0,.13.1.17-.06,0,0,.07.07,0,.12,0,0-.06,0-.1,0,0,0,0,0-.07,0-.12,0,0,.07,0,0,.09.06.13-.06,0,0,.07.14.33.21.48-.07,0-.09,0,0-.25-.08-.37c0,0,0,.09-.06,0a.67.67,0,0,1,.06.12s-.06,0-.07,0,0,0,.07.1,0,0-.06.06a.36.36,0,0,0,.15.22s0,0,0,0,0,0,0-.05,0,.15,0,.24l.1.06s0,0,0,.11,0-.06.07-.09,0,.12,0,.14-.1,0-.1.07,0,0,0,0a1,1,0,0,1,.13.29c.06,0,.06-.07,0-.11s.15,0,.14.11,0-.05-.07,0,0,0,0,.09,0,0,.09,0,0,.05,0,0,.11,0,.1.1-.09,0-.08,0,.06,0,.09,0a.05.05,0,0,1,0,0s-.07,0-.1,0,0,.06,0,.14a.52.52,0,0,0,.1.18l.11.12c-.1,0,.09.21.12.3s-.07-.11-.15-.12.17.14.16.24,0,0,0,0,0,0,.09.06.14.19.11.28.12.16.24.2,0,0,0-.07c.15.07.09.17,0,.23s.06,0,.11,0a.44.44,0,0,1,.08.15s-.06,0-.09,0,.1.17.13.19,0,.06,0,0,0,0,.06.05,0,0,0,0,.09.28.23.34v.08s0,.05.07.05.15.15.15.3a.39.39,0,0,1,.21.28c-.07,0-.09,0-.15,0s.23.12.23.21c.06-.07.15,0,.19-.13a1.4,1.4,0,0,1,.1.16c.06-.07-.14-.17-.06-.25s0,.06,0,.08.07.07.14.06a.08.08,0,0,0,0,.1s.06,0,.12,0,0,.14.06.1,0,.06,0,.09,0,0-.06,0a.19.19,0,0,0,.12.09c0,.06-.08,0-.07.08s.1-.05.1,0,.06,0,0-.06a.11.11,0,0,0,.11,0s0,.07,0,.06,0,0,0-.07,0,.05.07.06-.07,0,0,.06.07,0,0,0,.14.07.15.18,0,0,.07,0,0,0,0-.08,0,0,0,0a.2.2,0,0,1-.08-.1.38.38,0,0,0-.05-.12c.08,0,.07.13.14.15a.36.36,0,0,1,0-.11s0,.07.11.05,0,0,0,.07,0,0,0,0,0,0,0,0,0,0,0,.06.07,0,.11,0-.05.05-.05.1.09.1.07.13,0,.06.08.09,0,0-.05,0,.07.09.09.15a.18.18,0,0,0,.09,0,.08.08,0,0,0,.11,0s-.05,0,0,.06.06,0,.05.07,0,0,.08,0-.09,0-.11,0,0-.08,0-.06,0,.1.08.11,0,0,0,.07.16.07.14.12,0,0,0,0,.06,0,0,.11,0,0,.09,0,0-.11-.09-.11.07,0,0-.11.05.06.06.08,0-.06,0-.09-.05,0,0-.05-.05,0-.08,0,0,0,0,.07,0-.07,0-.06.06,0,0-.07,0,0-.06-.07.06,0,.06,0,0-.11-.06-.13-.05-.1,0-.18-.08,0-.12,0,0,0,.06,0,0-.08-.05-.13,0,0,0,0-.05-.06-.08,0,0-.06,0-.06,0,0,.05,0-.08-.07-.06-.16c-.09.06,0-.09-.12-.06.06,0,0-.05,0-.08s.06,0,0,.1.11.08.12.16a.1.1,0,0,1,.1,0c-.14,0-.1-.31-.3-.25,0-.05-.09-.08-.11-.15s0,0,0,0H8.16a.06.06,0,0,1,0-.06s0,0,.1,0,0-.06,0-.1H8.14a.1.1,0,0,1,0,0s0,0,.08,0-.1,0-.15,0,0,0,0,0-.06,0-.07,0,0-.18,0-.25.15.19.2.13.08.12.14.15S8.19,48,8.18,48s0,0,.11,0,0,0,0,.13.07,0,.09-.07,0,.06,0,.09,0,0,.08,0,0,0,0,.07,0,0,0,.06.08.06.13.07,0,0,0,.06-.08-.13-.13-.06.06,0,.09,0a.05.05,0,0,0,0,0c.07,0,.07,0,.07.06s.05-.06.12,0h0c0,.05,0,0-.06.06s0,0,0,.09a0,0,0,0,0,0,0c.06,0,0,.14.14.12S9,48.86,9,49s.06.05.09.07.05,0,.09,0,0-.06,0-.12l-.09,0s0-.09-.12-.09.09,0,.12,0-.08-.08,0-.11S9,48.63,9,48.52s.07,0,.12.07,0,0,0-.09,0,0,0,0-.08-.15-.16-.19,0,0,.06,0,0,0,0-.07a.18.18,0,0,0,0,.13l0,0,0-.06s.05,0,0-.06,0,0-.06,0,0,0,0,0,0,0,.06,0,0,.07.07.06a3.93,3.93,0,0,0-.31-.38c-.11-.12-.24-.26-.35-.4-.07,0-.13-.07-.1-.13s-.05.07-.1.09,0-.09-.07-.11,0,0,0,0-.11-.06-.13-.12-.06-.14-.07-.26,0,0,0,.06,0,0-.07-.13,0,0,0,0a.06.06,0,0,1,0-.06.1.1,0,0,1-.08,0c-.06,0,0-.06-.07-.07s0,0,.06,0,0-.13-.18-.24,0,0,0,0-.15-.16-.25-.22,0,0,0,0a.2.2,0,0,0-.14,0c0-.05,0-.06,0-.05-.11-.09-.12-.27-.3-.31,0-.05,0,0,0-.07s0,0,.06,0a.64.64,0,0,1-.27-.29s0,.1,0,.07,0-.13-.06-.17,0,0,0,.09-.07-.06-.11-.09l.1,0c-.08-.09-.2-.12-.24-.26s0,0,0,0,0,0,0-.06,0,0-.09,0a.14.14,0,0,0,0-.07.49.49,0,0,1-.1-.15s0,0,0,0A.16.16,0,0,0,6,44.7c0-.07,0,0,.09,0s-.16-.11-.18-.2.08,0,0,0,0-.08,0-.13,0,.06,0,0,0,.06,0,.06,0-.07,0-.12-.08,0-.07,0,0,0,0,.05a.26.26,0,0,0-.14-.1c0-.06.06,0,.06-.05s-.07-.08-.11-.06,0-.22-.1-.27,0,0-.08,0,.09,0,.07-.1,0,0,0,.08,0-.1,0-.15,0,0,0,0,0-.06,0-.11,0,0-.08,0,.06-.1,0-.13,0,0,0-.06a.06.06,0,0,1,0,.07.59.59,0,0,0-.06-.31,1.6,1.6,0,0,1-.11-.33.1.1,0,0,1,.09,0s0-.07,0-.12,0,0-.08,0,0-.3-.13-.37c0,0,0,0,.08,0a.44.44,0,0,1,0-.15s0,0,0,0,0-.22,0-.24,0,0,.06-.07-.08-.05,0-.1c-.11,0,0-.19-.1-.27s0,0,.06,0-.08-.1,0-.17a.13.13,0,0,1,0-.06s0,0,0,0-.05-.07,0,0a.19.19,0,0,1,0-.16S5,41,5,41s0,0,0,0,0-.11,0-.17,0,.06.06.07a.14.14,0,0,0,0-.11s0,0,.05,0-.05.09,0,.13.07,0,0-.09.06,0,.07.06,0,0-.07,0,0,.05.06.07a.11.11,0,0,1,0,.11c0-.08-.07-.05-.07-.11s0,.07-.06,0,.07,0,0,0,0,0-.06,0,0,0,0,0,.06.19,0,.28,0,0,.07,0a.34.34,0,0,0-.07-.15c.13-.05.12.14.17.19s-.1,0-.14.08,0,.08.06.11,0-.14,0-.11.05.05,0,.14-.07,0-.09.05l.06,0s0,0,0,0a1.88,1.88,0,0,1,.12.3s0-.07,0-.11.1.16,0,.21a.08.08,0,0,0,0-.08c-.05,0,0,.05-.05,0s.12.11,0,.18,0,.05,0,.07,0,0,0,0,.09.21,0,.28a.75.75,0,0,0,.06.13h0s0,0,.07,0-.07,0-.1,0,0,.11,0,.15.07,0,.13,0-.1,0-.07-.1.06,0,.09,0,0,.19,0,.27,0,0-.07,0,0,.07,0,.1l0,0s0,0,0,0,.1.1,0,.19.08.08,0,.11.13.11.13.19,0,0,0,0,0,.12,0,.14l.09.05c0,.09-.07,0-.08.06s.06.08.07.14.08,0,.12,0-.1,0-.11,0,.15.09.14.17.09,0,.11.08-.09,0,0,0-.07,0-.12,0,0,0,0,0v0s0,0,.1,0,0,.07,0,.14,0,.08.07.11,0-.1-.05-.13a.19.19,0,0,0,0-.09s0,0,0,.1,0,0,.06,0,0,.15.09.23,0-.08,0-.09.12,0,.13.1,0-.07-.06,0,0,0,.06.08.11.14.08.26.12,0,.19.07.1.15.14.15,0,0,0,0,0,.05.1.06,0,.06.12.11,0,0,0,.07.15.17.27.26,0,0,0,.06.08,0,.06.09.11,0,.14,0,0,0-.08,0,0,0,0,.06,0,0,.06,0,0,0,0,0,.07.06.1,0,0,0,0,.07.08,0,.12,0,0,0,0,.09.07,0,.08.06,0,0,0,0,.13.15.18.06.11,0,.11.07,0,0-.1,0,.06,0,.08.09.17.08.22.09-.08,0-.11,0,0,0,0,0,0,0-.09,0,.07.07.06.17,0,0,0,0,.25.23.31.31.09,0,.09,0,.05.11.11,0,0,0-.06.06,0,0,0-.07,0,.07-.09,0,.07,0,.14,0a.43.43,0,0,0,0,.05c.05,0,0,0,0-.06s0,.06.1,0a2.57,2.57,0,0,0-.34-.4c0-.05,0,0,0-.06s0,0-.07,0,.07,0,.13,0,.09.21.22.25,0,.07.06.09,0-.05,0,0,0,0,.06,0,.07.09.12.14,0,0,0,.08a.05.05,0,0,1,.1,0s-.07,0-.05.05,0,0,0,0a.06.06,0,0,1,.06,0,.58.58,0,0,1,.1.21c.08,0,0,.07.11.07s0,0-.07,0a.18.18,0,0,1,.07.1s.08,0,.08,0,0,0,.11,0-.05-.13-.13-.15,0,0,0-.06-.08,0-.09,0,0,0-.08,0,0-.08-.06-.09.06,0,.1,0,0,0-.07,0a.18.18,0,0,0,0-.12s-.07,0-.11,0,0,0,0-.11,0,0-.07-.06,0,0,0-.06a.89.89,0,0,1-.25-.26c-.1,0-.08-.11-.16-.12s-.26-.15-.22-.31c0,0,0,0-.08,0a.16.16,0,0,0,0-.1c.05,0,.05.07.11,0s0,0,0,.08,0,0,0-.06.09.06.13.09-.06,0-.06,0,.1.09.13.14-.05,0,0-.08.13.07.21.13-.09,0-.06,0h.06a.33.33,0,0,0,.23.17c-.09,0,0,.06,0,.11s.06,0,0,0c.12,0,0,.09.14.09s0,.06-.06.08.1,0,.11,0,.06.15.12.1.05.09,0,.1.17.07.22.18a.18.18,0,0,0-.13,0s0,.09,0,.13,0-.08,0,0,0,0,0,0,.17,0,.15.11.21,0,.21.12h.06s0,0,0,0,.11,0,.11.09-.05,0-.08,0,.22.14.21.26.05.06.11.06,0,0,0,0,.13.12.14.22-.08,0-.08,0,.07.13.11.18,0,0,0-.08.05.06.1.06,0,0,.05,0,0,0,0-.06l.05,0c0,.09,0,.09,0,.17s0-.08-.09-.07,0,.05,0,.09.11,0,.13,0,0,0,0,0,0,.05,0,.09,0,0,0,0,.09.13.16.17,0,0,0-.08,0,0,0,0,.07,0,.12.07,0-.06-.06,0,.08,0,0-.05.1.05.1,0-.05,0,0,0,0,0,0,0-.05,0-.09,0-.07-.12-.15-.14-.1-.14-.13-.22.1.08.17,0c-.11-.07-.11-.18-.26-.23,0-.06,0-.1-.06-.1a.07.07,0,0,1,.11,0s0,0,0-.05-.09,0-.08.07c0-.1-.13-.11-.17-.18s.18.07.2.09-.14-.11-.2-.15,0-.09-.06-.11,0,0,0,0l0,0s0,0,0,0a1.5,1.5,0,0,0-.24-.18s0,0,0,0,.14.06.22.12c0-.09-.11-.13-.15-.2s0,0,0,.06,0,0-.06,0,.05-.06,0-.1,0,0-.06,0l0,0s-.06.08,0,.06-.06,0-.09,0,0-.07,0-.07-.08,0-.09,0,.08,0,.11,0,0-.06.06-.06-.08,0-.09-.1.06,0,.11,0-.08,0-.07-.12,0,.05,0,.1-.06,0-.07-.09,0,.06-.07.09l0,0s0,0,0-.06-.26-.22-.19-.27-.07,0-.09,0,0-.06,0-.11.12.06.15.12-.1-.16-.17-.2,0,0,0-.06a.13.13,0,0,1-.13-.11s-.07,0-.08.06-.07,0-.09-.1-.08,0-.12,0,.08,0,.06-.08a.08.08,0,0,1-.1,0L9.32,46c.1.06.16.16.26.18s-.06,0,0-.07c-.19,0-.17-.24-.33-.27s-.29-.27-.26-.39a.86.86,0,0,1-.07-.1c-.07,0-.08,0-.13-.08s0,0,0,0-.1,0-.06-.05c-.12,0-.14-.18-.24-.24s-.05,0-.07,0,.06,0,.07,0-.14-.13-.2-.2,0-.14-.06-.12,0,0,0-.07-.12-.23-.26-.25c0-.14-.2-.15-.14-.28,0,0,0,.05.05.07s-.08-.08-.1-.16,0-.15-.07-.12,0-.05,0-.07-.07-.1-.13-.13a.3.3,0,0,0-.05-.14l-.08-.16a13.26,13.26,0,0,1-.55-2.38l-.22-1.37-.12-.72-.07-.38c0-.12-.06-.26-.09-.4a16.45,16.45,0,0,0-1.08-3,23.38,23.38,0,0,1-1-2.46s0,0,.07,0c0,.25.2.45.23.7,0,0,0,0,.07.05s0,0,0,0,.07.06,0,.12,0,0,.08,0,0,.29.15.41a.57.57,0,0,0,.14.34,0,0,0,0,1,0,0c.13.15.16.43.29.53s0,0,0,0,0,0,0,0c0,.26.24.41.27.69.07,0,.06.15.09.21s.13.16.1.22a.3.3,0,0,1,.1.28c0,.05,0,0,.07,0s0,.08,0,.06,0,.12.1.18,0,0,0,0,.08.16.14.24,0,0,0,.09a.06.06,0,0,1,.07,0,.1.1,0,0,0,0,0c.09,0,0,.19.15.29s0,0,0,0a5.21,5.21,0,0,0,.2.53c0,.08,0,.17.08.24s0,.22,0,.24,0,.24.06.35l.06.32c0,.22.08.42.1.65,0,0,0,0,0,0s0,0,0,.11c.11.22,0,.56.18.8,0,0,0,0,0,0a1,1,0,0,1,.07.3s.11-.05.15,0-.07,0-.07.08-.08,0,0-.07,0,.08,0,.07.08.25,0,.4.08.1,0,.17,0,0,0,0,0,.23,0,.34h0c0,.17.13.35.07.49s0,0,0,0a2.1,2.1,0,0,0,.06.24.27.27,0,0,1,0,.12.51.51,0,0,1,0,.13.67.67,0,0,1,.09.19l.06.22s0,0,.08,0,0,0,0,0,0,.11,0,.17,0,0,0-.06,0,0,.06,0,0,.17,0,.26,0,0,.07,0,0,0,0,0H7.73s0,.06,0,.06,0,0,0,0,0,0,0-.06,0,.06.08,0,0,.07,0,.1,0,0-.07,0,0,0-.06,0,0,.06,0,.16,0-.05,0-.05,0,0,0,0,0,0,0,0,.08,0,.15.06,0,0,0,.06.11,0,.11.07-.05,0-.07,0,0,0,.06,0,0,.06,0,.07,0,0,0,0,.19.09.13.14,0,.08.1.07.09.09.05.16c.12,0,.06.18.19.18s.11.12.14.2,0,0,0,0c.16,0,.16.22.3.28S9,45,9,45l0,0s.05.12.09.17,0,0,0,0,0,0,.07,0a0,0,0,0,0,0,.06c.12,0,.09.15.21.15s0,.06-.06.06,0,0,0,.07,0,0,0-.06.06,0,.09,0,0,0-.06,0,.11.1.17.15,0,0,0,.06.22.16.31.18.06.1,0,.09.05,0,.07,0,0,.11.06.12,0,0,0-.06,0,0,0,0,.15.22.3.25c0,0,0,0,0,.11s0-.06,0-.1.06.13.16.13-.08,0-.07.09.07,0,.1,0,0,.06,0,.07,0,0-.06,0,.09.06.1,0,.06.07,0,.17.08,0,.12.12,0-.06.08,0V46.7s-.06,0-.06-.06,0,0,0,0-.23-.22-.13-.26-.06,0-.08,0,0-.06.09,0-.11-.11-.1,0-.06-.1-.14-.1.07,0,.08,0-.16-.1-.07-.14-.06,0-.05,0a.22.22,0,0,1-.08-.13s0,0-.05,0,0,0-.07,0,0,0,0,0a.52.52,0,0,1-.23-.18s0,0,.06,0-.06,0-.05-.09,0-.11-.08-.12l0,.06s0-.05-.09,0,0,0,.05,0,0,0,0,0-.16-.12-.21-.19,0,0,.06,0a1.07,1.07,0,0,1-.3-.3s0,0,.06,0-.07,0-.09,0,0,0,0-.1,0,.06-.05.06-.16-.08-.17-.19-.07,0-.12,0,0,0,0-.07-.11-.07-.15-.11.05,0,.07,0-.07-.09-.13-.1,0,0,0-.07,0,0,.08,0a.52.52,0,0,0-.26-.17c0-.06.07,0,.07-.07a.41.41,0,0,1-.15-.25c-.08,0-.06-.06-.06-.09s0,0-.06,0-.17-.16-.1-.22a1.19,1.19,0,0,1-.08-.16s0-.09-.1-.11,0-.08,0-.15,0,0-.1,0,0,0,0-.05S8,42.93,8,42.84a.76.76,0,0,1-.06-.27s0,0,0,0a1.5,1.5,0,0,0,0-.24,1,1,0,0,0-.09-.24s0-.09,0-.13,0,0,0,0a.23.23,0,0,0-.05-.19l0-.07a.92.92,0,0,1-.09-.28c0-.1,0-.2,0-.3s0,0,0,0c0-.35-.13-.7-.16-1.08-.08,0-.06-.32-.09-.49s-.06-.16,0-.24l0,0c.07-.06,0-.14,0-.23a.72.72,0,0,1,0-.21,25.84,25.84,0,0,0,1.71,2.82,19,19,0,0,0,7.61,6.54,1.55,1.55,0,0,1,.55.34,2.5,2.5,0,0,0,2,.89c.25,0,.41.09.47.49.09.59.28,1.31,1.14,1.35a.55.55,0,0,1,.33.14c.3.39.65.24,1,.14a4,4,0,0,1,1.67-.35,2.07,2.07,0,0,0,1.75-.09c.09.63.07,1.2.79,1.34a15.83,15.83,0,0,0,6.21.06c1-.2,2-.37,3-.51.56-.08.73.11.69.67-.06.82.26,1.1,1.07.92a1.4,1.4,0,0,0,.51-.17,5.13,5.13,0,0,0,.61-.54c-.23-.12-.46-.25-.69-.35-.42-.18-.84-.34-1.2-.48,1.75-.58,3.48-1.07,5.15-1.72a2.45,2.45,0,0,1,2.7.18c.27.22.52.15.64-.13a5.9,5.9,0,0,0,.37-1.24,1.2,1.2,0,0,1,.62-.89c.78-.45,1.51-1,2.28-1.45a2.56,2.56,0,0,1,1.05-.38c.53-.05.86-.2.91-.8,0-.19.19-.38.3-.57.26-.44.7-.84.77-1.3.11-.81.51-1.18,1.1-1.26a4.22,4.22,0,0,1,.06-1.36c.72-1.76,1.51-3.49,2.29-5.22.45-1,1-2,1.41-3A6.21,6.21,0,0,0,56.63,31a10.32,10.32,0,0,0-.26-2.12c-.11-.77-.25-1.53-.33-2.31-.06-.6.07-1.14,1.05-1.08-.75-.44-1.08-.9-.77-1.62l1,.06,0-.17a3.94,3.94,0,0,1-.73-.32,1.44,1.44,0,0,1-.56-.56,4.48,4.48,0,0,1-.26-1.05c-.13-.72,0-.81.7-.66l.67.13C56.61,20.58,57.34,20.75,57.7,20.45Zm-6.21.34c-.06,0,0-.07-.06-.13S51.49,20.75,51.49,20.79Zm-4.1-7.12c.09-.05.26.07.27-.08s-.14,0-.2,0-.08-.18,0-.25A1.1,1.1,0,0,1,48,14c.13.08.14.21.2.35s0,0,0-.07c.17.11,0,.43.14.57s-.08.05-.07.08,0,0-.06,0c0-.2-.2-.28-.29-.4s0-.15-.07-.23-.23-.18-.14-.29C47.57,14,47.54,13.73,47.39,13.67Zm0-.31a.41.41,0,0,1,0-.11.09.09,0,0,1,.13,0C47.47,13.34,47.41,13.35,47.34,13.36Zm2,.09c-.07,0-.1-.12-.11-.2A2,2,0,0,0,49.37,13.45Zm0,2.58a6.49,6.49,0,0,1,.89,2.24l-.05,0a4.65,4.65,0,0,1-.41-.69c-.1-.25-.05-.43-.23-.72,0-.08-.14-.11-.23-.23s-.1-.32-.27-.36-.09-.37-.26-.45A1.22,1.22,0,0,1,49.38,16Zm.06-2.45c.06.1.11.2.16.3A.47.47,0,0,1,49.44,13.58Zm1.65,11s0,0,0-.06,0,.08.05.09a.32.32,0,0,0,.08-.12c.08.11-.13.18-.19.09S51.1,24.55,51.09,24.57ZM52,22h0a1,1,0,0,1,0-.17Zm-.25,0c-.09,0-.11.1-.22.08a3.19,3.19,0,0,0,.11-.33,1.5,1.5,0,0,0,0-.37,1.06,1.06,0,0,0-.1-.3.46.46,0,0,1-.06-.27c.14.17.16.47.31.63,0,.1,0,.2-.08.3A.46.46,0,0,0,51.75,22Zm0,.34a3.54,3.54,0,0,0-.16.43.19.19,0,0,1-.09,0C51.61,22.67,51.6,22.43,51.76,22.37Zm0,1c.18,0,.17.28.15.33s-.13.15-.19.08S51.84,23.5,51.78,23.37Zm.13-1.2s.06-.07.1-.09v0s0,.05,0,.09S52,22.17,51.91,22.17ZM48.5,12a.61.61,0,0,1-.07.1c-.22-.17-.26-.49-.45-.7,0,0-.06,0-.08-.06a1.85,1.85,0,0,1-.21-.47l0-.09C47.94,11.21,48.22,11.62,48.5,12ZM33.8,2.65A3.08,3.08,0,0,0,36.44,3c.52-.14.68.19.44,1l-.2-.66-.9.81,2.29.6.09-.15-.93-.51c.19-.39.86-.68,1.1-.44.09.08,0,.34,0,.6s.18.51.4.66a9.87,9.87,0,0,0,1.38.69,1.26,1.26,0,0,0,.18-.46,2.74,2.74,0,0,0-.18-.6l.25-.16a5.71,5.71,0,0,1,.75.89c.06.11-.15.38-.24.61.27,0,.7-.18.78.37.13,0,.33-.07.39-.17a2.59,2.59,0,0,0,.17-.74c.26.29.54.46.52.59-.11.89.7,1,1.12,1.5.11.12.35.26.33.35-.14.53.26.57.57.68a10.48,10.48,0,0,1,1.3.5l-.68.09,0,.17c.23.06.49.21.67.15.39-.15.55.07.73.3s.44.56.65.84a3.29,3.29,0,0,0,.2.42c.07.45.33.66.52,1.09-.08.08,0,.11,0,.18a.16.16,0,0,0,0,.23s0-.08.09,0a.21.21,0,0,1-.06.18s-.07-.09-.07-.12,0,.16-.08.22c-.13-.15-.28-.25-.41-.38a1.16,1.16,0,0,1-.32-.43,1.67,1.67,0,0,0,.08-.2c-.09,0-.06.14-.13.2s-.19-.21-.31-.26.07-.06,0-.11a2.62,2.62,0,0,0-.54-.73c-.13-.17-.23-.35-.35-.53a2.05,2.05,0,0,0-.43-.52s.08-.06,0-.1a3.66,3.66,0,0,0-.33-.37.59.59,0,0,1-.21-.42c-.13-.06-.13-.13-.2-.2l-.14,0c0-.09-.17-.11-.28-.16a.83.83,0,0,1-.15-.11.74.74,0,0,0-.17-.12.53.53,0,0,0-.43,0l-.23.06a.24.24,0,0,0-.17.12l.1.09c.13-.06.31-.2.51-.16s.17.15.31.14l0,.06a1,1,0,0,1,.67.47,2.3,2.3,0,0,0,.45.6,1.42,1.42,0,0,1,0,.5.47.47,0,0,0-.17-.15A.45.45,0,0,1,45,9.83a2.12,2.12,0,0,1-.63-.28,1.15,1.15,0,0,0-.67-.2.86.86,0,0,0-.5,0l-.51.11c-.08-.1-.24-.05-.43-.06s0,.1-.09.09a.38.38,0,0,1-.35-.16c-.08-.09-.13-.18-.24-.23s-.12,0-.17,0-.22-.11-.28-.13l-.34-.07-.18-.05-.16-.08L40,8.4l-.45-.35c-.16-.29-.6-.48-.81-.83-.31-.11-.53-.57-.88-.6,0,0,0-.07,0-.1s-.29-.2-.48-.16a.12.12,0,0,1-.06-.08c-.25-.1-.52-.17-.78-.27a3,3,0,0,1-.37-.17,1.78,1.78,0,0,1-.37-.26,7.68,7.68,0,0,0-.19-.83,1.39,1.39,0,0,0-.26-.87,1.73,1.73,0,0,0-1,.16.35.35,0,0,0-.3.09L33.62,4l-.4-.14a0,0,0,0,1,0,0c0-.17,0-.32,0-.48l.85-.18-1-.36,0-.17C33.32,2.67,33.63,2.55,33.8,2.65Zm11.58,8.71c.18.2.53.18.73.32,0,.14.12.16.18.28s.07.43.29.64a2.39,2.39,0,0,1-.49.17c0,.06,0,.14-.06.19-.17-.26-.36-.49-.52-.72a4.32,4.32,0,0,0-.68-1,.68.68,0,0,0-.1-.24c0-.07-.12-.14-.2-.13a.47.47,0,0,0-.23-.21l-.11,0-.09,0a.27.27,0,0,0-.19-.11.4.4,0,0,1-.2-.11s-.05-.12-.09-.16-.1,0-.15,0-.15-.14-.24-.17-.1,0-.15,0S43,10,43,10s-.19,0-.27-.05l-.11,0H42.5l-.35,0a4.84,4.84,0,0,1-.77,0c.27-.06.55-.16.61-.39.26,0,.52-.09.68-.08a1,1,0,0,0,.36,0,1.09,1.09,0,0,1,.24-.07,2.32,2.32,0,0,1,.56.11c.15,0,.32,0,.38.15a.71.71,0,0,1,.16.07l.15.11.07.06.08.05a.35.35,0,0,0,.18.06c.07.19.3.3.41.45A.84.84,0,0,0,45.38,11.36ZM36.13,6.42c.18,0,.31.22.49.19.11.13.32.14.44.19s.2.14.31.19a1,1,0,0,1,.42.21l.2.19c.15.14.25.38.39.5s.1,0,.13.06.12.24.22.32.09,0,.11,0a1.63,1.63,0,0,1,.09.19,3.27,3.27,0,0,0,.54.48l.16.11.16.11.3.21a2.67,2.67,0,0,0,.32.24c.09,0,.19,0,.27.09s.29.26.5.26c0,0-.06.06-.06.12a.85.85,0,0,0-.5-.06L40,9.82l-.14-.07-.11,0-.1-.05-.1-.05s0-.11-.07-.16l-.28-.22L39,9c-.18-.15-.4-.26-.56-.41a1.44,1.44,0,0,1-.22-.27.4.4,0,0,0-.26-.18c-.15-.17-.29-.47-.46-.54s-.29-.38-.39-.59C36.71,6.78,36.35,6.82,36.13,6.42Zm.51.94s0,0-.06-.05S36.7,7.31,36.64,7.36ZM29.56,3c.17.13.35.23.34.28a2.11,2.11,0,0,1-.23.51c-.11-.06-.33-.14-.32-.18A2.77,2.77,0,0,1,29.56,3Zm-3-.36.19,0,.71,1c-.38,0-.78,0-.83-.07A2.22,2.22,0,0,1,26.55,2.66ZM20.77,4.79A2.14,2.14,0,0,0,20.9,5l-.29.75-.15,0a1.78,1.78,0,0,1-.12-.66C20.36,5,20.62,4.89,20.77,4.79ZM20.59,10c.08-.13.36-.15.6-.23-.06-.22-.11-.42-.15-.58.22-.21.5-.37.61-.6.23-.49.52-.47.91-.24l-.73,2.26c.62.29,1,.1.86-.46a1.94,1.94,0,0,1,1-2.13c.51-.36,1-.7,1.54-1.05.35-.25.73-.44.79-1,0-.16.46-.28.73-.44,0-.15,0-.41.05-.67l.51.45c.07-.1.25-.23.24-.34a1,1,0,0,1,.66-1.15,1.33,1.33,0,0,1,1.56.45s.1.07.13,0L32,3.9c.13-.38.28-.48.44-.45s.1.19.15.25.05,0,.06,0,.07.15.15.19a1.54,1.54,0,0,0,.46.19l.32.11.33.09a.7.7,0,0,0,.56-.12c.14.09.33-.13.5-.13s.18,0,.33.13a7.92,7.92,0,0,0,.24,1.71c.1,0,.2.11.2.21a2.18,2.18,0,0,1-.91-.48,2,2,0,0,0-1-.45c0,.12.11.11.18.15.36.22.75.49,1.17.74a1.59,1.59,0,0,0,.41.16,1.45,1.45,0,0,1,.22.09.71.71,0,0,1,.18.12,2.42,2.42,0,0,0,.35.38s0,0,0,.08c.21.14.12.53.42.57,0,0-.07,0-.07,0s.17.31.34.35a2.82,2.82,0,0,0,.85.91c.06.15.23.21.33.34a2.55,2.55,0,0,0,.92.72l.14.06.12,0,.23.08.15,0,.09,0,.1,0a2.91,2.91,0,0,0,.39.12l.21.1a4.11,4.11,0,0,0,1,.06l.55,0,.28,0,.29,0H43l.12,0s0,.06,0,.05a.94.94,0,0,1,.34.21c.09.08.14.15.19.17s.08,0,.07,0l.08,0H44a.21.21,0,0,0,0,.06l.08.06a.73.73,0,0,1,.14.06l.16.05c0,.12.16.15.23.25a9.66,9.66,0,0,1,.71,1.12c.26.43.55.92.87,1.35.1,0,.11.09.19.14a1.74,1.74,0,0,0,.58.72c0,.17.17.33.24.53s0,.34.16.39a3.94,3.94,0,0,1,.5,1c0,.17,0,.36,0,.53s.12.2.18.3a1.79,1.79,0,0,0,.19.32s0,0,.06,0,.29.28.32.48c.26.21.59.34.78.81.27.08.42.5.62.7,0,.1.08.23.12.36a1.38,1.38,0,0,1,0,.2.18.18,0,0,1,0,.15s0,.08,0,.12a.56.56,0,0,0,0,.12s-.05.06-.05.1a.1.1,0,0,1,.08,0,.47.47,0,0,0,0,.16v.17a1.54,1.54,0,0,0,.09.37c-.07,0,0,.1-.06.14a4,4,0,0,1,.11.75,1.59,1.59,0,0,1-.19.86c-.25.07-.39.22-.65.23-.05.05-.07.14-.14.16s-.08,0-.12,0a1,1,0,0,0-.17.87c.18.13.37.28.58.09.2,0,.42,0,.6,0s.32.08.37.35a.79.79,0,0,0,.54.12c.11-.13.29-.19.39-.36,0,0,.05,0,.09,0s0-.2.09-.2c0,.2.12.23.15.37a.92.92,0,0,0,.46.14,23.89,23.89,0,0,1-.18,6.32A13.6,13.6,0,0,1,51,35.32c-.35.7-.72,1.38-1.11,2a1.62,1.62,0,0,0-.81-.62,2.83,2.83,0,0,1-.41-.14c-.09,0-.16-.09-.25-.12a4.71,4.71,0,0,0-.73-.22c-.15,0-.29,0-.44,0a2,2,0,0,1-.55-.1,6.36,6.36,0,0,1-.64-.32,7.1,7.1,0,0,1-1.86-1.49c.12-.26.21-.55.33-.82s.33-.65.49-1a2.07,2.07,0,0,0,.17-.45,2.23,2.23,0,0,1,.69.86v0c0,.07,0,.15,0,.23h0v.08l0,.11a.11.11,0,0,0,.07.13.1.1,0,0,0,.12-.07s0,0,0-.06a1.8,1.8,0,0,0,.14.43c.11.19.21.39.33.57s.1.11.22.08.24,0,.23-.15-.31-.5-.33-.78c0-.11,0-.22.16-.25s.26.14.34.21a3.47,3.47,0,0,1,.29.25c.09.08.1.19.2.1a.46.46,0,0,0,.15-.26.27.27,0,0,0-.06-.16h0a.09.09,0,0,0,.1-.09.11.11,0,0,0-.1-.11H47.6l-.1,0-.1,0,0,0h-.09c-.2-.14-.42-.26-.62-.39a1.25,1.25,0,0,1-.45-.34c-.07-.14,0-.24.14-.17a4.94,4.94,0,0,1,.55.32s0,0,0,0l.41.51a.11.11,0,0,0,.14,0,.09.09,0,0,0,0-.14l-.13-.17.23.09A.81.81,0,0,0,48,33c.12,0,.17-.27.16-.38s-.12-.16-.22-.23l-.3-.19a1.85,1.85,0,0,0,.47,0,.11.11,0,0,0,.08-.12.12.12,0,0,0-.12-.08,1.89,1.89,0,0,1-.53,0,.07.07,0,0,0,0,0s0-.05-.05-.06a.09.09,0,0,0-.07,0l-.23.05h-.14c-.11-.06-.24-.15-.24-.28s.27-.43.34-.67a1.15,1.15,0,0,0,.07-.45.3.3,0,0,0-.21-.27c-.11,0-.19.32-.25.46h0a1.29,1.29,0,0,0-.1-.48.1.1,0,0,0-.13,0,.11.11,0,0,0,0,.14,1,1,0,0,1,.08.38,1.41,1.41,0,0,1,0,.2v.16h0s0,0,0,0a.1.1,0,0,0,0,.09.46.46,0,0,1-.1.18c-.14.1-.38-.08-.46-.2a1.68,1.68,0,0,1-.2-.34,2.27,2.27,0,0,1-.06-.25,1.81,1.81,0,0,0-.24-.37c0-.33,0-.66,0-1,0-.8.13-1.45-.51-2.08s-1-.45-1.45.26c-.19.3-.41.67-.78.36s-.13-.71-.59-.55c-.29.1-.37.52-.74.47s-.3-.68-.35-1a4.94,4.94,0,0,0-1.53-2.4c-.14-.15-.25-.33-.4-.47s-.1-.16-.37-.08-.06.18-.25.14a5.16,5.16,0,0,0,.1-.86s0,0-.07,0a.86.86,0,0,0-.12-.48c-.06-.09,0-.14,0-.22s-.06,0-.08-.07-.05-.31-.17-.31-.06.06-.08,0-.06,0,0-.08,0-.08.08-.12,0-.14-.07-.09-.18.23-.22.33,0,0,0,0,0-.05-.06,0c.16-.17.1-.27.16-.4s.21-.33.06-.28c0,.06-.07.15-.14.24s-.07,0-.11,0-.06.14,0,.21,0-.25-.11-.2c0-.05,0-.11.08-.13s0,.06,0,.09a.81.81,0,0,0,.22-.38,1.84,1.84,0,0,0-.21.25s-.07-.17-.15-.13a.13.13,0,0,1,0,.14s-.13.1-.16,0c.18-.26.06-.38-.14-.41.08-.1,0-.15,0-.23s-.05.13-.15.17,0,0,.06-.08-.06-.1-.12-.16c.12-.09,0-.2.13-.22s-.05,0-.08,0,0-.1,0-.14a.61.61,0,0,0-.19.3s0,0,0,0,.07,0-.05.13c.17,0,0,.19,0,.28s-.06,0-.09,0,0-.11.09-.13a.5.5,0,0,1-.14-.32.52.52,0,0,0,.18-.1c0-.08,0-.14.05-.23s0-.09-.09-.13,0,.09-.08.16-.07-.16,0-.28c-.06,0,0-.08-.08,0s.06,0,0,.07,0,0,0,0,0-.14,0-.18c.2-.25-.31-.11-.1-.3,0,0-.08,0,0-.08s0,0,0,0,0-.1,0-.13,0,.08-.06.13-.05,0,0-.07,0-.09.09-.13,0,0-.11,0,.05.05,0,.1,0,0,0-.08-.2.1-.24,0,0,.08-.1.12-.08-.08-.17-.15-.17.07-.14,0,0,0,.06,0-.13-.06-.2,0,.09-.09.09-.13-.08-.07-.15,0,.09,0,0,.1-.05,0-.07,0,.06-.08,0-.1,0,.06-.08.05,0,0,0-.06-.12-.15-.21-.13.05-.09.06-.13-.15.1-.17.15-.07,0,0-.07a.08.08,0,0,0,.08-.07s-.07.06-.09,0,0,0,.07-.06,0,0-.08,0a.13.13,0,0,1,0,.06.88.88,0,0,0-.15.05s0-.11-.06-.07,0,.16,0,.21-.14.12-.07.15,0-.07.09-.05,0,.08,0,0,0,0,0,.08.05-.09.07-.06,0,0,0,0-.06.07-.1.11-.07,0-.15,0,0,0,0-.05,0,0-.07.06,0,0,0-.06-.1.07-.17.15c0-.08-.09-.15-.12-.07s0,0,0-.12a.24.24,0,0,1-.22-.09c0,.09-.16.06-.11,0s.07,0,.11,0-.08-.07-.1-.13c-.13.1,0,.08-.08.19,0-.05-.15,0-.21,0s.08,0,0-.09,0,0,0,.06-.11,0-.06-.07.08,0,.1-.08.07-.06.09,0,.05.12.12.08-.08-.13,0-.15-.07,0,0-.1,0,.05-.07.08-.07,0-.2.1-.06-.1-.13-.05c.13-.08-.06-.06.08-.15s0,.1,0,.07.12-.1.06-.13-.1.07-.11.05.1,0,.06-.08-.16.07-.21.18c-.08-.06.11-.17.19-.21s0-.05,0-.08c-.05.12-.15.05-.17.07s.09.05,0,.07,0,0-.09.05-.12-.07,0-.15c-.07.06-.07,0-.11.06a.71.71,0,0,0,0-.17s-.1.06-.12,0,.06,0,.06,0-.15,0-.24,0,0,.12.14.13c-.11,0,0,.06-.09.1a.12.12,0,0,1,0-.1l-.09.06a.15.15,0,0,1,0,.1h0s-.12.06-.17.06-.06-.07,0-.18.12,0,.11-.06-.17,0-.19.07,0-.13-.22-.18,0,0,0,.05,0,.06-.09.09.13,0,.16.07-.06.27-.21.22c0,0,.05,0,.09,0s-.17,0-.19-.07a.19.19,0,0,1-.19.08.15.15,0,0,1,0,.17c0-.07-.05-.12-.07-.18l.07,0s0-.08-.06-.05,0,0,0,0,0-.21-.13-.2,0,0,0,.05-.29,0-.2-.1.06,0,.08.09-.09-.05,0-.15c-.08,0-.12,0-.2,0s0,0,0,0,0-.07,0-.1l.1,0s-.07-.06,0-.15-.13-.06-.19,0,0,0,.06-.1,0,.08.06.06c0-.27-.27-.55-.3-.85,0,0-.06,0-.07,0-.17.1.1.19-.16.21,0,0,0,.05,0,.09s0,.05.1,0c-.11.12.08.11,0,.26s.06-.05.1,0-.12,0-.11.06.09.09,0,.12-.11,0-.17,0,.06.18.1.22,0,0,.07-.07,0,0,.07,0-.09,0-.13.08,0,.06,0,.09,0,.05.05,0l0,0c.05,0,.05,0,.11,0s-.1-.05,0-.1c.07.13.11.18.22.22-.07.06-.07,0-.11,0a.78.78,0,0,0,.13.24c-.05,0-.08.05-.07.07s.1,0,.16,0,0-.08,0-.11.07.15,0,.15c.05,0,0,.07,0,.1s.06,0,.07,0-.13.16-.2.21a.11.11,0,0,0,.11,0s0-.05,0-.07.14-.13.22-.06c-.11,0,0,.07,0,.12s.07,0,.09,0,.06.12,0,.2.08,0,.13,0-.06-.15-.09-.2.28,0,.29.13.05-.1.1-.08-.08.09-.07.14,0-.08,0,0,.07.07,0,.1-.11,0-.16,0,0,0,0,0-.16.12-.08.05-.07.07-.08.11a.14.14,0,0,1,.13.08c-.05.05,0,0-.05.09h0s.06-.08,0-.12-.06.07-.14.11.07.1,0,.15.06-.15-.06-.1,0,.08,0,.17.08,0,.1,0,.08,0,.09.05,0,.14-.15.21-.08,0-.1,0-.18-.09-.09-.22l.11,0c-.06,0,0,.07,0,.11s.09-.07.11-.14-.06.07-.09,0a.15.15,0,0,1,0-.15c-.1,0-.1.09-.17.1s.23-.16.22-.17-.08,0-.05-.08a1,1,0,0,0-.28.21c0-.05,0,0,0-.07s.07,0,.09-.08-.14,0-.11-.08.12,0,.17,0,0,0,0,.07a.12.12,0,0,1,.13,0c0-.06.16-.15.14-.05.08-.06.12-.06.14-.11s-.14-.07-.1-.12,0,.09.09.06a.47.47,0,0,1-.08-.14c-.08,0,0,.06-.09.09s-.08-.15-.15-.13.17.18.15.28-.25.05-.29.05a.54.54,0,0,0,0-.11c0,.08.14,0,.09,0s-.06,0-.09,0,0,0,0-.07a.12.12,0,0,1-.09,0,.09.09,0,0,1,0,.1s-.05.05-.08,0,.07-.11,0-.16-.18,0-.15.08a1.46,1.46,0,0,1-.2-.05s.12.06,0,.12,0,0,0-.07,0,.07-.09.09,0,0,0-.05a.19.19,0,0,1,.09,0c-.08,0-.08-.17-.16-.09s0,.08.06.05l-.09.05s0,0,.07,0,0,.07,0,.1h-.06c0-.11-.08-.22.06-.31-.05,0,0-.06-.06-.12s.06.16-.06.21,0,0,0,0-.12-.17-.08-.25,0,0,.06,0,0,0,.09,0,0-.05,0-.05-.1,0-.11-.11l.09-.05c-.13,0-.13-.11-.2-.18s.08,0,.08-.06-.1,0-.13,0,0-.31-.13-.33,0,.1,0,.1,0,.05-.06.07-.11-.07-.15,0,0-.07.06-.1,0-.14-.11-.14c.11.13-.06.24-.23.31.06-.06.08-.16.17-.13s0-.1,0-.14c.14,0-.05-.11.1-.13,0-.06-.1,0-.12,0s0,0,0,0,0,0,.11-.05.12,0,.16.06,0-.1-.06-.08-.07,0-.08,0,0-.06,0-.09a.13.13,0,0,1,.1,0,1.33,1.33,0,0,0,0-.2c-.11,0-.15,0-.2-.1s.07-.07.09-.1a1.27,1.27,0,0,1,0-.18c-.06,0-.17.08-.2,0s0-.16-.05-.23-.12.06-.13.1.07.06,0,.06,0,0-.09,0,.13.1.22.08c-.1.06,0,.09,0,.06-.06.13-.27-.06-.33,0s0,.13-.08.14,0,.05,0,.06,0,.07-.07.09,0-.16-.09-.15.1-.1.05-.17,0,0,.07,0a.88.88,0,0,0-.09-.25s0,0-.07,0,.11.07,0,.13a.18.18,0,0,1-.13,0c-.06-.16.31-.28.22-.4s0,.07-.07.09-.1,0-.11.06-.16-.07-.11-.16a.15.15,0,0,0,.15.05c-.05,0,0-.08,0-.06s-.1,0-.09,0,0-.13.14-.21-.09.07-.09,0-.08,0-.13,0c.11-.08,0-.1,0-.17a.63.63,0,0,1-.24,0c0-.09.2-.09.21-.16s-.08,0-.1-.05-.08.08-.19.13.08,0,0,.12c.12,0,.05.07.14,0s0,0,0,0a.16.16,0,0,0-.14.07.17.17,0,0,1,0,.12.44.44,0,0,0-.12.06s.11.05.14.1l.05-.09s.1.06,0,.09a.06.06,0,0,1-.07,0c0,.17,0,.23.16.38-.11,0,0,0-.06,0s.12.17.17.27a.15.15,0,0,0-.13.07c.07,0,.08.08.13.12s0-.08.09-.09.09.06.14.07,0,.08-.11.12a.06.06,0,0,1,0-.06c-.11,0-.08.08-.14.12s.07.05,0,.1,0-.06-.05,0,.06.13,0,.18,0-.09.11-.12.06.09.12,0-.08-.14,0-.18.09,0,.14,0,0-.21.07-.32c0,.05.1,0,.13,0s0,.14-.11.19c.06,0,.1,0,.16,0s-.13,0-.16.07.1.05,0,.1,0,0,0-.08.08.11.08.15,0-.07,0-.08.12,0,.17,0c-.16.08.11.15,0,.23,0-.05,0-.07-.05-.11s-.15.06-.17.1,0-.12-.11-.07c.07.09,0,.21.11.25s0-.06,0-.09.07,0,.1,0,0,.15-.1.21c.25-.06.07-.06.21-.14,0-.06,0-.09,0-.11s.05,0,.06,0,.07.31-.25.37c-.07.15.08.16,0,.3s.07,0,.08,0,0,.07-.06.1,0-.07-.05-.05,0,.08,0,.15c.1-.06,0,0,.06,0s0,0,.06-.07,0,0,0,.06,0,0-.08.06,0,0,0,0a.1.1,0,0,0,0,.06L29.72,19c-.07-.06,0-.1,0-.18s-.05,0-.1,0a.1.1,0,0,0,.05.06l0,0c-.35-.21-.7-.43-1.06-.63v-.06s-.08,0-.1,0h0a.09.09,0,0,1,0-.11c.06,0,0,.13.09.08s.06-.06.14-.1a.67.67,0,0,1-.08-.35c.09,0,0,.31.22.22,0,.12,0,.36.17.42a3,3,0,0,0-.16-.4s.07,0,.08-.07-.1-.05-.08-.12,0,0,.06,0-.08-.29-.22-.25c0,0,0-.07.05-.08s0,.09,0,.07c.05-.24-.19-.32-.21-.52.1,0,0,0,0-.05l.08,0c0-.07-.07-.07-.13-.07a1.89,1.89,0,0,0,0,.35c-.06,0-.11,0-.14.05s.09,0,.12,0l-.07.1c-.07.05-.08,0-.11,0s.1-.09,0-.12,0,.14-.06.21c.08,0,.18-.08.19,0s-.07,0-.13,0,.12,0,.15.06,0,.05-.11.06,0,.08,0,.14.05,0,.09,0,0,.06,0,.06a.09.09,0,0,1,0-.07s-.06.23.05.29c-.05,0,0,0-.05.06s-.09,0-.12,0l0-.08s.1,0,.09,0,0,0,0-.05,0,.05-.08.07-.2-.08-.14-.22a.09.09,0,0,0,.07,0c-.07,0,0-.11-.07-.12s0,.06,0,.08,0,0-.05,0a.19.19,0,0,0,0-.18.12.12,0,0,1-.08,0c.08,0-.06-.1,0-.11s.1,0,.1,0-.12,0-.18-.05.09,0,.13-.08-.09.06-.13,0a.36.36,0,0,1,.12-.13,5,5,0,0,1-.31-1s-.07,0-.08,0,0-.09,0-.17c-.2,0-.07-.23-.3-.18,0,.09.11,0,.15.14s-.09,0-.09,0a.89.89,0,0,1,0,.61c.06,0,.08-.07.09,0s0,.14,0,.15.09,0,.1,0,.08.22.2.44c-.1,0,0,.05-.07.09s0,.06.07.06l-.07,0c.09.14,0,.32.23.33,0,0-.07,0-.07,0s.07,0,.1.06,0,0-.07,0a.2.2,0,0,1,0,.22l-1.58-.87A10.28,10.28,0,0,0,24,16c-.59-.13-1.17-.13-1.76-.26a3.39,3.39,0,0,0-3,.54c-.75.75.39,2.15.92,2.74a7.73,7.73,0,0,0,.84,1c.39.33.87.58,1.29.89.22.17,1.06.67,1,1-.36.11-.75-.18-1.12-.2a5.65,5.65,0,0,0-.82,0,4.82,4.82,0,0,0-1.58.39,3.75,3.75,0,0,0-1.28,1c-.21.21-.44.41-.63.64s-.33.57-.55.81c-.56.62-1.79.31-2.56.43s-1.68.29-2.51.45a8.54,8.54,0,0,0-2.93.95c0-.36,0-.73,0-1.09.05-1.22.11-2.44.08-3.65,0-.66.16-1.09.81-1.28a20,20,0,0,0,2.39-.84l-2.69.09,0-.23.79-.35c-.68-.13-.6-.5-.38-.95s.33-.77.49-1.16A2.46,2.46,0,0,1,12,15.5c.17-.07.28-.27.49-.48l.3.16a1.13,1.13,0,0,1,1.21-1c1-.06,1.92-.23,2.89-.34.34,0,.7,0,1-.1s.5-.07.56-.2a.72.72,0,0,0-.15-.58c-.36-.4-.29-.71-.13-1.22s.71-.85.87-1.38C19.66,10.54,20.18,10.71,20.59,10Zm7.54,8s.05,0,.05,0Zm5.24.6c0,.13,0,.18.13.2a1.13,1.13,0,0,1-.21.12s.07-.09.05-.13,0,.05-.06,0,0-.07,0-.11-.07.09-.11.07.1-.06,0-.09-.06,0-.09,0A1.55,1.55,0,0,0,33.37,18.64ZM17.24,11.09a4,4,0,0,1,0,.6,3.74,3.74,0,0,1-.12.89c-.06.17-.27.3-.49.53-.11-.33-.17-.5-.28-.79-.07.34-.11.55-.16.78a13.84,13.84,0,0,1-1.54-.73c-.16-.1-.21-.44-.22-.67,0-.08.29-.17.45-.24.31-.12.63-.23.85-.3.19-.42.35-.77.56-1.21a.85.85,0,0,1,.35,0c.17.05.43.14.46.26a.9.9,0,0,1-.13.58,6,6,0,0,1-.47.59ZM4,24.48v.12A.25.25,0,0,1,4,24.48Zm.59,7.05A17.33,17.33,0,0,1,4,29.1l0,0c0-.24-.12-.47-.08-.71,0,0-.09-.07,0-.09a.2.2,0,0,1,0-.19l0,0a.45.45,0,0,0,0-.25,3.34,3.34,0,0,0-.06-.62l0-.15a.57.57,0,0,1,0-.13.61.61,0,0,1,0-.24l0,0a.12.12,0,0,0,0-.16s0,0,.05,0,0,0,0-.06,0-.13,0-.2a0,0,0,0,1,.05,0s-.07,0,0-.05,0,0,0,0,0,0,0-.06,0,0,0,0a.12.12,0,0,1,0-.1s0,0,0,.05a.7.7,0,0,1,0-.25l.07,0s0,0,0,0,0-.09,0-.16,0-.06.07,0,0,0,0-.08,0,0,0,0,0-.12,0-.21,0,0,0,0,0-.05,0-.05,0,0,0-.09a.23.23,0,0,0,.06-.12.66.66,0,0,0,0-.15.36.36,0,0,1,.1-.25c0,.55,0,1.11,0,1.67a33,33,0,0,0,.69,5.5C4.64,31.75,4.6,31.64,4.57,31.53Zm15-27.87-.62.58a3.43,3.43,0,0,0-.46.34c-.21.21-.4.44-.59.66a9.5,9.5,0,0,0-1.93,2.33,1.23,1.23,0,0,1-1.59.89,10.64,10.64,0,0,1-.67,1c-.4.47-.84.92-1.26,1.38l0,0c-.84,0-.95.72-1.24,1.29-.4-.21-.45-.88-1-.67a3.25,3.25,0,0,0-.83.28c-.32.2-.43.52-.23.74L7.7,14.1C8.55,11.05,15.69,4.67,19.52,3.66Zm3.15,41.51c-.48.68-.85.67-1.25.23a.92.92,0,0,0-.46-.26,3.25,3.25,0,0,1-1.85-.89,4.07,4.07,0,0,0-1.3-.65.22.22,0,0,0-.21,0c-.27.34-.48.07-.73,0a7.74,7.74,0,0,0-.86-.23l-.49-.17a.82.82,0,0,0,1,.73l-.59.64.16.14c-.27,0-.64,0-.8-.13a7.67,7.67,0,0,1-1.19-1.41c-.1-.16,0-.47.06-.81a1.13,1.13,0,0,1,1.29.49l.52-.48-.8-.46a1.45,1.45,0,0,1,1.54-.46c.55.1.73-.12.67-.64-1.09,0-2.38.71-2.92-1l1.06-.15v-.13c-.5-.1-1-.22-1.5-.3a2.48,2.48,0,0,1-1.53-1,5.78,5.78,0,0,1-1.45-2.91,3.51,3.51,0,0,0-.43-1.11A9.81,9.81,0,0,1,9.31,30.1,2.39,2.39,0,0,0,9,29.35c0-.33.1-.67.12-1l0-.66A16.21,16.21,0,0,0,12.33,29a11.36,11.36,0,0,0,5.22.4,13.48,13.48,0,0,1,2.45.25,9.73,9.73,0,0,0,1.43.1c.24,0,.61-.06.82.12a1.26,1.26,0,0,1,.27.36s0,.06,0,.09-.09.27-.13.41l0,0-.09.07-.1.07s0,0,0,.05a.11.11,0,0,0,0,.08.1.1,0,0,0,.14,0l.05,0-.06.24a.19.19,0,0,0,0,.07l0,.06h0l0,0-.06.11a.1.1,0,0,0,0,.05h0l0,0a.1.1,0,0,0,0,.14.12.12,0,0,0,.08,0c0,.13-.06.26-.1.4h0l-.07.11,0,.06,0,0v0l-.19.18a.09.09,0,0,0,0,.14.1.1,0,0,0,.14,0l.08-.07c-.05.22-.1.45-.16.67s-.35.51-.62.75a4.94,4.94,0,0,1-.81.57H20a4.21,4.21,0,0,1-.6-.11c-.12,0-.18.16-.06.19l.2,0h-.3a.1.1,0,1,0,0,.2,2.44,2.44,0,0,0,.38,0c-.43.19-.86.35-1.29.52s-.9.44-1.37.62-.82.4-1.25.55a5.25,5.25,0,0,0-1.06.53c-.17.1-.31.33,0,.44a2.51,2.51,0,0,0,.61,0,5.93,5.93,0,0,1-.36,1.05c0,.15-.14.26,0,.34s.37-.12.4-.33a2.8,2.8,0,0,1,.53-1.08c.16-.24.36-.24.63-.33s.65-.23,1-.36l.3-.13a5.47,5.47,0,0,0-.51.45c-.09.09,0,.24.14.15a6.35,6.35,0,0,1,.79-.67.08.08,0,0,0,0,.07.09.09,0,0,0,.13,0c.13-.15.25-.31.37-.46l.38-.17c.54-.28,1.09-.43,1.63-.71s.82-.38,1.23-.6a2.22,2.22,0,0,0-.19.27.1.1,0,0,0,.17.11,1.85,1.85,0,0,1,.3-.39.1.1,0,0,0,0,.1.09.09,0,0,0,.13,0c.12-.17.23-.35.33-.52a.1.1,0,0,0,0-.07,2.55,2.55,0,0,0,.3-1.05v-.09a2,2,0,0,0,.1.21.1.1,0,0,0,.13,0,.09.09,0,0,0,0-.13,1.17,1.17,0,0,0-.05-.11l0-.06v0h0v0a.94.94,0,0,1-.06-.24s-.05-.07-.09-.08,0-.3,0-.45l.09.14a.1.1,0,0,0,.15,0,.1.1,0,0,0,0-.14s0,0,0,0l0,0,0-.06,0-.06v0h0v0s0,0,0-.06,0,0,0-.06v0h0v0s0,0,0,0c.05-.2.1-.4.13-.6v0a6.11,6.11,0,0,0,1.48.9,5.76,5.76,0,0,0,1.94.52c.19,0,1.35-.28.89.18-.18.16-.52.09-.72.26a1.51,1.51,0,0,0-.32.69c-.17.56-.17,1.11.27,1.35,0,.14.08.28.13.42l.06.13v.22l-.17.27a.1.1,0,0,0,0,.14.09.09,0,0,0,.13,0h0c0,.24,0,.48,0,.71s.21.14.2,0c0-.3,0-.59,0-.89.07.14.14.28.2.42.17.45.28.93.43,1.38s.26.88.42,1.31a.14.14,0,0,1,0,.07l-.23.18a.1.1,0,0,0,0,.14.11.11,0,0,0,.14,0l.07-.06a3.15,3.15,0,0,1-.5,1.14c-.08.11.09.22.17.11a3.36,3.36,0,0,0,.49-1,2.45,2.45,0,0,1,0,.6c-.08.66.12,1.34,0,2-.06.31-.12.62-.19.93H28s-.11,0-.11.09.05.11.1.11h.23a2.73,2.73,0,0,1-.33.35c-.09.08,0,.23.14.15l.17-.18a4.77,4.77,0,0,1-.84,1.83c-.22.28-.53.45-.72.74a2.55,2.55,0,0,1-.41.6,3,3,0,0,1-.36.26l-.34-.1c-.28-.1-.57-.2-.84-.31C23.88,46.47,22.86,46.5,22.67,45.17Zm13.42.44s0,0,0,0,0,0,0,0v0s0-.09-.06-.09,0,0,.06,0,.05,0,0-.06l0,0S36.08,45.57,36.09,45.61Zm.07-1.06s0,.09.05.12a.43.43,0,0,1,0-.05.07.07,0,0,1,0,.06s0,.16-.07,0c0,0,0,.06-.05,0s0-.06.05,0,0,0,0,0A.41.41,0,0,1,36.16,44.55Zm0,0a.08.08,0,0,1,0,0s0,0,0,0S36.19,44.54,36.2,44.52Zm0-.11a.05.05,0,0,1,0,.05s0,0,0,0,0,0,0,0Zm0,1.21s0,0,0,0,0,0,0-.1S36.16,45.58,36.17,45.62Zm-.06-1s0-.06,0,0S36.13,44.61,36.11,44.61Zm0,.13s0,0,0,0S36.11,44.73,36.13,44.74Zm0,.85c.05,0,0,.1,0,.06a.43.43,0,0,1,0,0S36.14,45.67,36.12,45.59Zm0,.17s0,0,0,0S36.08,45.72,36.1,45.76Zm-.06.75s0,0,0,0,0,.14,0,.11A.12.12,0,0,0,36,46.51Zm.27-.8s0,0,0,0S36.29,45.69,36.31,45.71Zm0-1.1s0,0,0,0S36.3,44.65,36.3,44.61Zm.12-.07s0,0,0,.08,0,0-.06,0,0,0,0,0,0,0,0,0Zm0,1c0,.05,0,.14,0,.06S36.42,45.52,36.44,45.51Zm.07-.93s0,0,0,0,0,0,0,0S36.52,44.58,36.51,44.58Zm.12-.07a.21.21,0,0,0,0,.08l-.06-.13s0,0,.06,0,0,0,0,0Zm.09-.13a.07.07,0,0,1,0,.07l0,0a.08.08,0,0,1,0,0l0,0a.24.24,0,0,0,0-.08s0,0,0,0A0,0,0,0,0,36.72,44.38Zm0,.1,0,0s0,0,0,0,0,0,0-.08S36.7,44.46,36.72,44.48Zm0,.13s0,0,0,0,0-.06,0-.1A.17.17,0,0,1,36.71,44.61Zm-.08-.15s0,0,0,0a0,0,0,0,0,0,0s0,0,0,0S36.66,44.48,36.63,44.46Zm.17,0s0,0,0,0S36.83,44.54,36.8,44.49Zm.06-.06s0,0,0,0,0,0,0,0,0,0,0,0Zm0,0s0,0,0,0S36.93,44.46,36.9,44.43Zm.06,0s0-.08,0-.06S37,44.41,37,44.4Zm.06.05s0,0,0,0S37,44.47,37,44.45Zm0,0h0s0,0,0,0h0Zm.13,0s0,0,0-.06l0,0S37.14,44.54,37.11,44.5Zm.11-.24s0,0,0,0,0,0,0,0S37.22,44.29,37.22,44.26Zm2.1.39h0s0,0,0,0S39.32,44.66,39.32,44.65Zm0,0s0,0,0,0S39.38,44.67,39.36,44.66Zm.49-.11s0,0,0,0S39.87,44.54,39.85,44.55Zm.9-.63s0,0,0,0S40.75,44,40.75,43.92Zm0,0s0,0,0,0S40.79,43.94,40.79,43.9Zm0,0v0s0,0,0,0Zm.54,0c0-.05,0,0,.05-.05S41.38,43.94,41.37,43.92Zm.3-.18s0-.06,0-.12,0,0,0,0,0,.09,0,.15S41.67,43.79,41.67,43.74Zm.4,1.23s0,0,0,.06,0,0,0-.06,0-.06,0-.08,0,0,0,.07S42.07,45,42.07,45Zm.16.48.08,0Zm-.11,0h0Zm-.07-.44s0-.07,0,0S42.06,45.09,42.05,45.06ZM42,44s0,0,0,0S42,44,42,44Zm0,1.58h0Zm3-1.82a7.68,7.68,0,0,1-2.49,1.61l-.1,0,0,0c0-.05,0,0-.05-.09s0,0,0,0l0,0c0-.07,0,0,0-.05a.09.09,0,0,1,0-.06c0-.05,0,0-.06,0s0,0,0-.07-.05,0-.09.05a.2.2,0,0,1,.06-.12.1.1,0,0,1,0,0s0,0,0,0,0,0,0,0v-.06a0,0,0,0,1-.07,0,.12.12,0,0,0,0,.08l0,0a.57.57,0,0,1,0-.13s.09-.07.11-.16.09,0,.13,0,0-.05.05,0,0,0,0,0,0,0,.07-.05,0,.05,0,.06.07-.06.09,0,.06,0,.09-.05,0,0,0,0,.11-.1.14,0c0-.08.15,0,.2-.15,0,0,.05-.05.07,0s0,0,0,.07a.45.45,0,0,0,.21-.27.27.27,0,0,1,0-.13s-.1,0-.08-.18c0,0-.06,0-.08.08s0,0,0,0,0,0,0,0,0,0,0,0A0,0,0,0,1,43,44s0,0,0,0-.08,0-.13,0-.1,0-.15.09v0c0-.1.08-.1.12-.16s0,0,0-.05-.12.05-.2.11,0,0,0,0,0,0,0,0-.07,0-.08.08,0-.06,0,0,0,0,0,0,0,.06,0,.09,0,0,0-.08,0,.06,0,.09,0,0,0,0,0,0,0,.05a.22.22,0,0,1,0-.06s0,0,0,0,0,0,0,.08,0,0-.08.08,0,0,0-.08l0,0a.16.16,0,0,1,0-.12s0,0,0,0,0,0,0-.06,0,0-.07,0,0-.05,0,0v0s0,0,0,0,0-.08,0-.13,0,0,0,.06,0-.05,0-.08l0,0a.16.16,0,0,0,0-.07s0,0-.06,0,0,0,0-.07,0,0,0,0,0,0,0,0-.1,0-.15,0v0s0,.05,0,0-.07,0-.09,0,.06-.1.09-.15,0,0,0,0l0,.06v-.05s0,0,0,0,0,0,0-.06,0,.09-.05,0l-.07.16a.19.19,0,0,1,0-.08s0,0,0,0a.13.13,0,0,1,0,.08s0,0,0,0,0,0,0,0l0,.08c0-.06,0,0,0,0s0-.05,0-.08,0,.06-.06.13,0,0,0-.06a.46.46,0,0,1-.08.16s0-.05,0-.08-.09.13-.11.2.06-.1.08-.12a.11.11,0,0,1,0,0s0,0,0-.06.1-.14.12,0-.09.1-.12.09-.09.11-.13.11a.84.84,0,0,0,0-.17s0,0,0,0-.05.05-.06,0l-.06,0s0,0,0,.05l0,0s0-.06,0-.05,0,0,0,0,0,0,0,0-.06.09-.07.05a.76.76,0,0,1,.06-.16s0,.08-.08.06,0,0,0,0,0,0,0,0,0,0,0,0,0,0,0,0a.08.08,0,0,1,0,0s0-.06,0-.05,0,0,0,.05,0,0,0,0,0,0,0,0,0,0,0,0a.29.29,0,0,0,0-.09c-.07.15-.11.13-.17.2a.09.09,0,0,1,0,0s-.06.08-.08.08.05-.07.06-.1,0,0,0,0-.07.06-.1,0,0,0,.06-.11,0,0,0,0-.12.07-.16.08,0,0,0-.07,0,.06-.06.07,0,0,0,0v0s0,0-.06,0,0,0,0-.05,0,0-.05,0,0,0,0,0,0,0,0,0a.06.06,0,0,0,0,0l-.07,0h0l0,0a.61.61,0,0,1-.07.1s0,0,0-.08l-.09.14c-.06.09,0,0,0,.1a.68.68,0,0,0-.14.21s0,0,0,0a.21.21,0,0,0,0,.06s0,0-.07,0,0,0,0,0,0,0,0,0-.1,0-.09,0,0,0,0,.06,0,0,0,0,0,0-.07.05,0,0,0,0l0,0s0,0,0,0-.08,0-.12.05,0,0,0,0,0,0-.08,0,0,0-.06,0,0,0-.07,0,0,0,0,0,0,0,0,0l-.08.06h0s.05,0,0,0h0s0,0,0,0l0,0s0,0,0,0,0,0-.07,0a0,0,0,0,0,0,0s0,0,0,0,0,0,0,0,0,0,0,0,0,0,0,0h0s0,0,0,0,0,0,0,0,0,0,0,0,0,0,0,0a0,0,0,0,1,0,0s0,0,0,0,0,0,0,0,0,0,0,0,0,0,0,0v0s0,0,0,0v0h0s0,0,0,0,0,0,0,0h0s0,0,0,0h0v0h0v0h0a0,0,0,0,1,0,0h0l0,0h0a0,0,0,0,1,0,0h0l0,0h0l0,0s0,0,0,0,0,0,0,0h0l0,0s0,0,.05,0,0,0-.05,0h0a0,0,0,0,1,0,0h0s0,0,0,0v0s0,0,0,0h0s0,0,0,0-.09.08-.08,0l0,0s-.05,0-.07.06,0,0,0,0,0,0,0,0a.18.18,0,0,0-.08.05s0,0,0,0h0s0,0,0,0,0,0,0,0,0,0,0,0h0l-.08,0h0s0,0,0,0a.15.15,0,0,1-.07,0h0l-.05,0h0s0,0,0,0,0,0,0,0,0,0,0,0h0l0-.07c-.06-.1-.11-.18-.15-.26l-.32-.53-.07-.12,0-.07h0l0,0h-.06s0,0,0-.06,0,0,0,0,0,0,0,0l0,.05s0,0,0,0,0,0,0-.05,0,0,0,0,0,0,0,0,0,0,0,0l0,0v0s0,0,0-.06a.13.13,0,0,1-.07.06l0,0s0,0,0,0,0,0,0-.05,0,0,0,.06,0,0,0,0,0,0,0,.06.06,0,.07,0,0,0,0,0,0,0,0,0l.06.06c-.06,0-.06.07-.12,0v0s0,0,0,0,0,0,0,0,0,0,0,0a.56.56,0,0,0,0-.12s0,0,0,0l0,0s0,0,0,.07,0,0,0,0,0,0-.06,0,0-.05,0,0,0,0,0-.05,0,.05,0,0,0,0,0,0,0,0,0,0,0,0,0,0,0,0,0,0a.09.09,0,0,1,0-.06s-.06,0,0,.05,0,0,0-.05,0,0,0,0,0,.09,0,0,0,0,0,0,0,0,0,0,0,0,0,.08,0,0,0,0,0,0,0,0,0,0,0,0a.11.11,0,0,1,0,.05s0-.05,0,0a.21.21,0,0,1,0-.06s0,0,0,0,0,0,0,.06,0,0,0-.06h0a.4.4,0,0,1,0-.11l-.05,0s0,0,0,0a.08.08,0,0,1,0,.05s0,0,0-.05,0,.11-.06,0,0,0,0,.05,0,0,0,0,0,0,0,0,0,0,0,.06,0,0,0,0,0,.05,0,.06,0,0,0,0l0,0s0,0,0,0,0-.12,0-.12,0,0,0,0,0,0,0,0,0,0,0,.07,0,0,0,0,0-.09.1-.05,0,0,0-.11l0,0c0,.06,0,0,0,0s0,.06,0,.11,0,0,0,0,0,0,0,0,0,0,0,0,0,0,0,0,0,0,0,0,0,0,0,.06,0,0,0,0-.05,0,0,.09,0-.05,0-.07,0,0,0,0a.13.13,0,0,0,0-.08s0,0,0,0a.05.05,0,0,0,0,0c-.05,0-.07,0-.06.08,0-.1,0,0-.08-.11s0,0,0,0,0,0,0,0,0,.07,0,.13,0-.06,0-.1,0,0,0,0l0,.06s0,0,0,0,0,0,0,0,0-.09,0-.08,0,0,0,0,0,0,0,0c.07.18-.08.05-.11.13a.05.05,0,0,1,0,0s0,0,0,0,0,.07,0,0,0,.11,0,.06,0,0,0,0a.26.26,0,0,1,0-.11l0-.05s0,0,0-.08,0,0,0-.07a.29.29,0,0,1,0,.1s-.06,0-.07,0l0,0h0a.16.16,0,0,1,0,.07.08.08,0,0,1,0,0s0,0,0,0a.41.41,0,0,1,0-.08c0,.07-.07,0-.07.09s0,0,0-.06,0,0,0,.06l0,.05s0,0,0,0,0-.11,0-.07a.41.41,0,0,0,0-.08c0,.07,0,0,0,.1s0,0,0,0,0,0,0,.06l0,0c0,.11,0,0,0,.06s0-.05,0-.1h0s0,0,0,0,0,0,0,0,0,0,0,0,0-.06,0,0,0,.06-.06,0v.06l0,0s0,0,0,0,0,0-.09,0-.07,0-.09,0,0,0,0,0,0,0,0,0,0,0,0,0l0-.05v.12s0-.05,0-.06,0,.06,0,0,0,0-.07,0,0-.06,0-.08,0,0,0,.08,0,0-.05-.07,0,0,0,0a.3.3,0,0,0,0-.08s0,.05,0,0,0,0,0,0,0,0,0,0,0,0,0,0,0,0,0,.07,0,0,0,0,0,0,0-.06,0,0,0,0,0,0-.05,0,0-.06,0-.09-.06-.09-.06,0,0-.05-.06-.06l0,0s0,0,0,0,0,0,0,.06.06,0,0,0a.25.25,0,0,1,0,.07s0,0,0,0,0,0,0-.06,0,.06,0,0,0,0,0,0,0,0,0,0,0,0,0-.06,0,.06,0,0,0,.08,0,.06a.09.09,0,0,1,0,0s-.07-.05,0,0,0,0,0,0,0,.09,0,.2,0,0,0,0,0-.07,0-.1,0,0,0,0,0,0,0-.06,0,0,0,0,0,0,0,0,0,0,0,0,0,0-.08,0,0,.11,0,.11,0,0,0,0,0,0,0,0,0,0,.07,0-.14,0-.19.1,0,0,0,0,0,0,0,0,0,0,0,0,0-.05,0-.07,0,0,0,0,0,.08,0,0,0,0,0,.07c-.08-.13-.12,0-.21-.06s0,.08,0,0,0,0,0,.07h0s0-.05,0-.09,0,.08,0,0,0,.06,0,.06a.08.08,0,0,1,0-.07c0,.07-.09,0-.08.16s0,0,0,0,0-.06,0-.09a.24.24,0,0,0,0,.08s0,0,0,0,0-.11,0-.12,0,0,0,0-.1-.1-.1,0c0,0,0-.06,0-.08s0,0-.06,0,0,0,0,0,0,0,0,0,0,0,0,0a0,0,0,0,0,0,0s0,0,0,0,0,0,0,0a.06.06,0,0,1,0,0s-.08-.06-.07,0,0,0,0,0a1,1,0,0,0,0,.11s0,0,0,0,0,0,0,0v0s0,0-.05,0a0,0,0,0,1,0,0s0,0,0,0,0,0,0,0,0,0,.05.06,0,0,0,0,0,0,0,0v.06l0-.05s0,.12,0,.07,0,0,0-.06a.14.14,0,0,0,0-.07s0,.13,0,.08a.13.13,0,0,0,0-.06s0,.09,0,.06a.64.64,0,0,1,0-.07h0v0h0v0s0,0,0,0h0v.08h0v0s0,0,0,0,0,0,0,0a.13.13,0,0,0,0,.06v0a.16.16,0,0,1,0,.06s0,0,0,0h0l0,.07c0-.06,0,0,0,0s0,0,0,0,0,0,0,0l0-.07c0-.06,0,0,0,0s0-.05,0,0,0,.06,0,.09l0,0a.13.13,0,0,0,0,.06s0,0,0,0,0,0,0,0l0-.08s0,0,0,.07,0,0,0,0,0,0,.1.09,0,0,.06,0,0,.05,0,.1,0-.07,0,0a.3.3,0,0,0,0-.1s0,0,.07,0,0-.06,0,0v0l0,0s0,0,0,0v0s0,0,.05,0,0,0,0,0,0,0,0,0h0s0,0,0,0l0,0s0,0,0,0h0l0,0h0l0,0h0c0,.09,0,0,.07,0s0-.09,0-.09,0,0,.05.1,0,0,0,0,0-.06,0-.11.06.06.07,0,0,.05,0,.07a.05.05,0,0,0,0,0s0,0,0,0a.09.09,0,0,1,0-.05l0,0c0,.06,0,0,0,0s0,0,.06,0,.06,0,.11.08,0,0,0,0,.05,0,.06,0a.24.24,0,0,1,0-.08s0,.05,0,.07,0,0,0,0,0-.06,0,0,0,0,0-.08,0,.06,0,.1,0-.06,0-.1,0,.05,0,.08,0,0,0-.06,0,0,0,.06,0,0,.06-.05a.21.21,0,0,0,0,.06c0-.05,0,0,0,0s0,.06,0,.08,0,0,0,0,0,0,0,0,0,0,0,0,.05,0,.06,0,0,0,0,0,0,0-.06,0a.05.05,0,0,1,0,0s0,0,0-.05,0,0,0,0-.05,0,0,.06,0-.06,0,0,0,.08,0,.12,0,0,0,0a.08.08,0,0,0,0,0s0,0,0,0,0,0,0,.07,0,0,0,0,0-.06,0-.05-.09.06-.14.08,0,0,0-.08.09,0,.13,0,0,0,0-.06l0,0s0-.06,0-.08,0,0,0,0,0-.05,0-.07,0,0-.05,0a.08.08,0,0,0,0,.06s0,0,0,0,0,0,0,0,0,0-.08,0v.08l0-.07c0,.06,0,.06,0,.09s0-.06,0,0a.18.18,0,0,1,0-.09s-.06,0-.08,0,0,.08,0,.07,0,.12,0,.08,0,0,0-.05,0,0,0,0,0,0,0,.07a.08.08,0,0,1,0-.05s0,.08,0,0,0-.06,0-.08,0,0,0,.07h0s0,0,0-.08,0,0,0-.06h0l-.05.07-.06.07h0l-.09.11,0,0,0-.05h0l0,0h0l.07-.09,0-.05s-.05,0-.06,0-.06,0-.08-.06,0,0,0,0,0,.06,0,0,0,0,0,0,0,0,0,0,0,0-.07-.07,0,0,0,.06,0,0,0,0,0-.05-.06-.13l0,.12,0,0s0,0,0-.05,0,0,0,0,0-.06,0,0,0,0,0,0,0,0,0,0,0-.12,0-.07v0s0,0,0,0h0v.09h0v0h0v0h0v.05h0v0h0v0h0v.06h0v0h0V46h0v0h0v0h0v0s0,0,0,0,0,0,0,0,0,0,0,0v.05c0-.09,0,0,0-.1l0,.11a.2.2,0,0,0,0-.07l0,0,0-.06s0,0,0,0v0h0l0,.11,0,.07v0l0,.08h0v0l0,0v0h0l0,.07,0-.06,0,0h0l.06-.14h0l0,0h0l0,0,0,0h0v0h0v0h0l0,0h0v-.06l0-.06c0,.05,0,0,0,0a.29.29,0,0,1,0,.09h0v0l0,.08,0-.05h0l0,0h0l0,0,0,0a.41.41,0,0,1,0,.1c0-.09,0,0,0,0s0-.09,0-.13,0,.06,0,0,0,0,0,0,0,0,0,0,0,.07,0,.15a.07.07,0,0,0,0-.06s0,0,0,0a.43.43,0,0,0,0,0s0,0,0,0v-.06s0,.05,0,0v.06s0,.07.06,0v.05c0-.06.05,0,.06,0a.08.08,0,0,1,0,0s0,0,0-.07a.13.13,0,0,1,0,.06s.08.09.09,0,0,0,0,.07,0,0,0,0,0-.08.09,0,0,0,0-.08,0,.07.06,0,0,0,0,0,0,0,0,0l0,.1s0-.09.07-.06l0,0,0,0v-.06l0,.06s0,0,0,0,0,0,0,0,0,0,0-.08,0,.05,0,.08,0-.09.06-.06,0,.06,0,0,0,.05.06.05,0,0,0,0,0,0,0,0,0,0,0,0,0-.07,0-.05,0,0,0,0,0,0,0-.08,0,.05,0,.07a.21.21,0,0,0,0-.08s.08,0,.09,0a.09.09,0,0,1,0-.07s0,.09,0,.09,0,0,0,0,0,0,.05,0v0s0,0,.05,0,0,0,0-.08,0,.08,0,0,0,0,0,.06,0,0,0,0,.14,0,.22,0a.22.22,0,0,1,0,.08s0,0,0,0,0,0,0-.07.11.08.1-.06c0,0,0,0,0,.07h0s0,0,0,0,.1.08.08,0,0,0,0,.06,0-.06,0,0,.07,0,.07-.06,0,0,0,.05,0-.06.06,0,0,0,0,0l0,0s0,0,0,0,0,0,0,0,0,0,0,0a.06.06,0,0,1,0,0h.05s0,0,0,0h0a.07.07,0,0,1,0,0s-.05-.06-.05,0,0,.06.05,0,0,.05,0,.06a.64.64,0,0,1,0-.07s0,0,0,.06,0,0,0,0,0-.06,0,0,0,0,0-.06,0,.06,0,0,0,0,0-.06h0s-.05,0-.09,0,0,0,0,.06a.06.06,0,0,0,0,0c.06.13,0,.1,0,.14s0-.1-.07-.14,0,0,0,0,.05,0,.05.06,0,0-.05,0,0-.06,0-.08v.05a.05.05,0,0,1,0,0s-.05,0-.08.08,0,0,0,0,0,.07-.07,0,0,0,0,0,0,0,0,0,0,.1-.06,0,0,0,0,0a.07.07,0,0,1,0,0s-.06,0-.09,0,0,0,0,0a.07.07,0,0,1,0,0s0,0,0,.06a.38.38,0,0,1,0-.1s0,0-.06-.05a.53.53,0,0,1,0,.12s0-.09,0-.05a.15.15,0,0,1,0,.08s-.08-.06-.1,0,0,0,0-.06,0,0,0,0l0,0s0,0,0,0,0,.08-.07,0,0,.06,0,0,0,.09,0,.06v0s0,0-.06-.06V47s0-.07,0-.1,0,0,0,0a.34.34,0,0,1,0,.1s0-.08,0-.11,0,.1,0,.06,0,.08,0,.07,0-.08,0-.06a.28.28,0,0,1,0-.09h0v0s0,.06,0,.08,0,0-.06-.07,0,0,0,0,0,0,.05,0a.43.43,0,0,0,0,.07s0,0,0,0,0,0,0,.06-.06,0-.09,0,0,0,0,0,0,.08,0,.06,0,0,0,0,0,0,0,0,0,0-.1-.07,0,.07,0,.12-.06,0-.06,0l0,0s0,0,0,0,0,0,0,0,0,0,0-.07-.06,0-.1,0,0,0,0,0,0,0,0,0,0,.11,0,.09,0,0,0,0,0,0,0,0,0,0,0,0,0,0,0,0,0,0,0,0,0-.07,0-.06a.08.08,0,0,1,0,.09c0-.06,0,0,0-.06s0,0,0,0,0,0,0-.05,0,0,0,.09,0,.06,0,0,0,0,0-.08,0,0,0,0-.06.06-.07.08l0-.06v0s0,0,0,0,0,0,0-.09,0,0,0,.07-.09,0-.11-.05a.11.11,0,0,0,0,.07s0,0,0,0a.24.24,0,0,1,0-.08.16.16,0,0,0,0,0s0-.07,0-.08,0,0,0,0v0s0,0,0,.07,0,0,0,0a.21.21,0,0,0,.13.1s0,0,0,.06,0,0,0,0,0,.08,0,.11,0-.11-.1,0,0-.05,0,0,0,0,0,0,0,0,0,.06,0,0-.05,0,0,0,0-.07,0,.07,0,0,0,0,0-.06,0,0,0,0l0,0a.18.18,0,0,1,0-.11c0,.08,0,0-.05,0s0,0,0,0,0,0,0,0,0,0,0,0,0,0-.06.07,0,.07.05,0,0,0,0,.06a.11.11,0,0,0,0-.08s0,0,0,0,0,0,0,0,0,0-.05.08,0,0,0,0a.12.12,0,0,0,0,.08.43.43,0,0,1,0-.07s0,.07,0,.11,0,0,0,0a.64.64,0,0,0,0,.07s.09,0,.13.06,0,0,.08,0c0,.12.11,0,.14.1,0,0,0,0,0,0s0,0,0,.06,0,0,0,.05,0,0,0,0,0,0,0,0,0,0-.07,0,0,0,0,0-.06,0-.08,0,0,0,0,0-.06,0-.1,0,0,0,0-.07l0,0c0-.05-.09,0-.13,0s0,0,0-.06,0,0,0,.05,0-.05-.07,0,0-.06,0-.09-.05,0-.05,0,0-.08-.07,0,0,0,0-.06-.09,0-.12,0,0,0,.08,0a.31.31,0,0,1,0-.08s0,.07,0,0,0,0,0,0-.1.08-.09,0-.13.07-.11,0l0,0s0,0,0-.05-.07,0,0,0,0,0,0,0-.11,0-.08-.09,0,0-.06,0,0,0,0,0,0,0,0-.1,0,0,0,0a.11.11,0,0,0,0-.08s0,0,0,.05,0,0-.06,0l0,0s0,0,0,0h0c0-.07,0-.06,0-.1s0,0,0,0,0,0,0-.06a.05.05,0,0,1-.07,0l0,0s0,0,0,0l0,0s0,0,0,0,0,0,0,0l0,0s0,0,0,0,0,0,0,0,0,0,0,0a.15.15,0,0,0-.07.07s0,0,0,0,0,0,0,0l0,0s0,0,0,0,0,0,0,.09,0,0-.09,0,0,.08.1.06,0,.08,0,.05a.13.13,0,0,1-.08.07s0,0,0,0,.06,0,.07-.08.06,0,.07.06-.11,0-.12,0,.08,0,.11,0,0,.06,0,.06,0,0,0,0h0s0,0,0,.05.1,0,.14,0v0c-.06,0-.09,0-.14,0s.06.06.09.11,0,0,0-.05,0,0,0,0,0,.08,0,.09,0,0,0,0,0,0,0,0,0-.1,0-.05.05-.07.07,0,0,.06,0,.08.05,0,.06,0,0,0-.07,0,0,.06,0,.07,0,0,.07,0,0,0-.08.05.06,0,.06.07,0,0,0-.07,0,0,.06,0,0-.07,0-.11h0s0,0,0,.06.17,0,.13.12,0,0,.06,0,0,.06,0,.1-.07,0-.09,0,.07.09.12.08,0,0,0,.06.07-.05.1,0,0,0,0-.09,0,0,.07,0,.06,0,.07-.07,0,0,0,.09,0,0,.06,0a.19.19,0,0,1,0,.07c-.07,0-.13,0-.19,0s0,0,0,0c.11-.1.17.1.27,0,.07.12.23,0,.27.13l.08,0c0-.08.06,0,.09,0a.05.05,0,0,0,0,0c0-.06,0-.06,0,0s.14,0,.21,0,0,0,0-.06,0,.05,0,.07.11,0,.16,0,.08.07.08,0,0,0,0,0c0-.12.15,0,.18-.09.08.1.1-.09.16,0s0,0,0,0,.06,0,.1,0,.09,0,.07,0,0,0,0,0,0,0,.07-.07.11,0,.16,0l.22,0h.21l.46-.07.09,0-.67.22s0,0,0,0-.1,0-.16,0,0,0,0,0h0c0-.07-.06,0-.09,0s0,0,0,0v0h0c-.05-.08-.08,0-.14-.05s0,0,0,.07,0,0,0,0a.07.07,0,0,1,0,0s0,0,0,0,0,0,0,.06h0l-.06,0s0,0,0,0,0,0,0-.05,0,0-.09,0,0,0,0,.06,0,0,0,0,0,0,0,0,0,0,0,0l-.12,0h0s0,0,0,0l0,0s0,0,0,0,0,0,0,0h0s0,0,0,0,0,0-.06,0h0c-.05-.05-.07,0-.1,0,0,.12-.12,0-.16,0s-.1,0-.16,0,0,0,0,0-.18,0-.27,0,0,0,0,0,0,0,0,0l-.13-.06s0,0,0,0,0,0,0,0h0s0,0,0,0l0,0h-.06a.08.08,0,0,0-.08,0h0a.06.06,0,0,1,0-.08s0,0-.06,0,0,0,0,.06,0,0-.06,0,0,0,0-.06-.11,0-.17,0,0,0,0-.06-.2,0-.26,0-.07-.06,0-.09,0,0-.06,0,0-.1-.06-.07,0,0,0,0a0,0,0,0,0,0,0c-.08,0-.13-.11-.23-.06s0-.05,0-.11,0,.06,0,.09-.05-.07-.13,0,.05,0,0-.1,0,.06-.07.09,0-.06,0-.05,0,0,0,0-.09,0-.09,0-.05,0-.06-.13-.07,0-.1-.07,0,.06-.06.05v.07s0,0,.05,0,0,0,0,0l.12.08s.08.07,0,.1,0,0,.07,0,0,.07-.07.06.13.07.1,0,.06.06.12,0,0,0,0,.05l0,0c-1.09-.2-2.17-.46-3.25-.69a1.25,1.25,0,0,1-1.1-.89c0-.1-.35-.21-.49-.18.35-.62.67-1.26,1.06-1.87a.54.54,0,0,0,.07-.13,2.58,2.58,0,0,0,.11.42s.06.09.12.07a.1.1,0,0,0,.08-.11,2.17,2.17,0,0,1-.11-.42.28.28,0,0,1,0-.09v-.1l0-.09,0-.1s0,0,0-.07c.23-.61.35-1.28.54-1.88,0-.1.06-.21.08-.31h0a.1.1,0,0,0,.12.08c.06,0,.08-.06.08-.12,0-.21-.05-.42-.08-.63a.51.51,0,0,0,.16.09.09.09,0,0,0,.13,0,.1.1,0,0,0,0-.14,1.28,1.28,0,0,1-.26-.17c0-.35,0-.71,0-1.08a9.55,9.55,0,0,0-.74-3.4.11.11,0,0,0,.08,0,.11.11,0,0,0,0-.15,1.43,1.43,0,0,1-.24-.31,1,1,0,0,1-.1-.17.08.08,0,0,1,0,0v0l.23.15a.1.1,0,0,0,.14,0,.1.1,0,0,0,0-.14l-.5-.32h0A11.14,11.14,0,0,0,28,34.78c0-.15,0-.33,0-.54.68,0,1.13.75,1.87.74a7.51,7.51,0,0,0,2.36-.72,14.79,14.79,0,0,0,1.74-.58A6.7,6.7,0,0,1,35.49,33c-.17,1.23-.65,2.58.68,3.35a2.92,2.92,0,0,0,1.6.21h0q0,.34,0,.69a.11.11,0,0,0,.1.1.09.09,0,0,0,.1-.09c0-.19,0-.38,0-.58h0a.1.1,0,0,0,.14,0,.13.13,0,0,0,0-.12c.47,0,.93,0,1.4,0s.89.1,1.06.63.33,1.32.55,2a3.51,3.51,0,0,0,.55,1c0,.07,0,.14,0,.21v0l0,.07a.83.83,0,0,1,0,.15.1.1,0,0,0,.07.12.1.1,0,0,0,.13-.06s0-.09,0-.13a4.23,4.23,0,0,0,.25.58.1.1,0,0,0,.18-.1,4.83,4.83,0,0,1-.23-.52,10.41,10.41,0,0,0,1.89,1.35,13.66,13.66,0,0,0,1.95,1C45.59,43.1,45.32,43.42,45,43.71ZM42.09,44s0-.06,0,0S42.1,44.05,42.09,44Zm.17-.14s0,0,0,0V44a.17.17,0,0,0,0-.12s0,.12,0,.17-.06,0-.08,0,0,0,0-.06,0,0,0,0S42.23,43.94,42.26,43.88Zm0,0a.08.08,0,0,0,0,0s0,0,0,0S42.22,43.91,42.22,43.88Zm0,.16s0,0,0,0S42.2,44,42.21,44Zm.58.39s0-.08.05,0S42.81,44.43,42.79,44.43Zm-6.88,1.2s0,0,0,0S35.88,45.58,35.91,45.63Zm-.11.1s0,0,0-.06.05,0,.08,0S35.82,45.73,35.8,45.73Zm.07.08s0,0,0,0S35.85,45.79,35.87,45.81Zm0-.14s0,0,0,0,0-.07,0,0S35.82,45.62,35.83,45.67Zm0,1s0-.07,0-.08,0,0,0,0S35.86,46.7,35.82,46.66Zm-.13-.95s0,0,0,0S35.67,45.68,35.69,45.71Zm-.12-.14s.06,0,.09,0S35.6,45.67,35.57,45.57Zm.07,1.15,0,0s0-.09,0-.06S35.63,46.67,35.64,46.72Zm0,0s0-.1,0-.07S35.59,46.67,35.61,46.73Zm-.06,0s0,0,0-.06,0,0,0,0,0,0,0,0,0,0,0,0,0-.07,0,0,0,0,0,.07,0,0,0,0,0-.06,0-.09l0,0a.13.13,0,0,1,.16,0c0,.07,0,0,0,0S35.54,46.67,35.55,46.71Zm-.21-1c0-.08,0,0-.06-.05a.23.23,0,0,0,0-.11c0,.1.07,0,.11,0s0,0-.07,0A.09.09,0,0,1,35.34,45.71Zm-.06-.05s0,0,0,0S35.26,45.6,35.28,45.66Zm.09-.75s0,0,0,0S35.38,45,35.37,44.91Zm.15.16s0,0,0,0,0-.09,0-.08S35.51,45.05,35.52,45.07Zm0-.11s0,0,0,0S35.52,45,35.5,45Zm0,.61s0,.11-.06,0S35.5,45.53,35.54,45.57Zm0,.16c0,.05-.05,0-.07,0s0,0,0,0S35.49,45.7,35.52,45.73Zm0,.16s0,0-.06,0S35.53,45.82,35.55,45.89Zm-.09-.24a.08.08,0,0,0-.05-.07s0,0,.06,0,0,0,0,.05Zm0-.66c0-.06-.07-.21,0-.18a.18.18,0,0,0,0,.09s0,0,0,0S35.47,45,35.44,45Zm0,0s0,0,0,0S35.4,44.94,35.42,45Zm-.23.77s0,0,0-.06-.06,0-.1,0,.07,0,.08,0a.21.21,0,0,0,0,.07s0,0,0,0,0,0,0,0,0,0,0,0,0,0,0,0,0,0,0,.07S35.18,45.67,35.19,45.73Zm-.06.05s0,0,0,.06,0,0,0,0,0-.07,0-.1l0,0v0S35.14,45.78,35.13,45.78Zm0-.22,0,0s0,0,0,0S35.13,45.61,35.13,45.56Zm-.13,0s0,0,0,.05,0,0-.06,0S35,45.6,35,45.55ZM35,45v0s0,0,0,0A.13.13,0,0,1,35,45S35,45,35,45Zm0,.66s0,.07,0,.06,0,0,0-.05Zm0-.32s0-.07,0,0S35,45.31,35,45.32Zm-.08.39s0,0,0,0-.07-.07-.09-.08v0s-.07,0-.09,0,0,.09,0,.1,0,0,0,0a.85.85,0,0,0,0-.16c.05.08.06,0,.09,0s0,0,0,.06,0,0,0-.05,0,0,0,0,0,0,.06,0,0,.06,0,.1,0,0,.05,0S34.9,45.64,34.93,45.71Zm0,.25v0l0,0S34.89,45.94,34.91,46Zm-.33.67s0,0,0,0a.05.05,0,0,1,0,0S34.55,46.58,34.58,46.63Zm0-1,0,0s0,0,0,0Zm0,.12s0-.08,0-.07l0,.07S34.59,45.74,34.58,45.73Zm0-.08s0,.09,0,.07S34.58,45.67,34.59,45.65Zm0,.13s0,.06-.05,0S34.62,45.74,34.63,45.78Zm0-.23s0,0,0,0S34.64,45.59,34.62,45.55Zm.05-.54a.14.14,0,0,1,0-.06s0-.06,0-.06,0,0,0,.1S34.68,45,34.67,45Zm0,.57s0,.05,0,0S34.71,45.56,34.72,45.58Zm-.09-.28s0,0,0,0S34.65,45.32,34.63,45.3Zm.08.34s0,.07,0,.09,0,0,0-.07,0,0,0,0a.11.11,0,0,1,0-.08S34.68,45.62,34.71,45.64Zm0,.14s0,0-.05,0S34.71,45.78,34.74,45.78Zm0-.83s0-.08,0-.06,0,0,0,.06,0,0,0,0S34.72,45,34.7,45Zm0,.84,0,0s0,.06,0,0S34.75,45.8,34.75,45.79Zm.06-.81v0s0,0,.07,0S34.83,45,34.81,45Zm0,.16s0-.08,0-.06S34.84,45.16,34.82,45.14Zm0,.43s0,0,0,0S34.8,45.54,34.82,45.57ZM34.76,45s0,0,0,0,0,0,0,0S34.77,45,34.76,45Zm.16,0a.32.32,0,0,1,0-.09s0,0,.06,0,0,.07,0,.08,0-.09,0-.07S34.93,44.89,34.92,44.92Zm0,.67s0,0,0,0a.08.08,0,0,1,0,0S34.94,45.56,35,45.59Zm-.06-.65s0,0,0,.05,0,0,0,0S34.88,44.93,34.9,44.94Zm0,.05s0-.05,0,0S35,45,34.94,45Zm-.49.27s0,0,0,0S34.47,45.29,34.45,45.26Zm0,0s0,.06-.06,0Zm-.07,0s0,.08,0,.05S34.36,45.2,34.38,45.23Zm-.05,0s0,0,0,0v-.06C34.32,45.27,34.31,45.2,34.33,45.24Zm-.2,0s0,0,0,0,0,0,0,0S34.11,45.2,34.13,45.23Zm-.27,0s.07-.08.1,0C33.91,45.21,33.9,45.31,33.86,45.25Zm.09.09s0,0,0,0,0,0,0,0S34,45.32,34,45.34Zm0,.16h0v-.06A.1.1,0,0,1,33.92,45.5Zm-.09-.22c0-.05,0,0,0,0s0,0,0,0l0,0S33.82,45.22,33.83,45.28Zm0,.06s0-.1,0-.11A.2.2,0,0,1,33.79,45.34Zm0,.08s0-.07,0-.05S33.76,45.44,33.74,45.42Zm-.1-.17s0,0,0-.1,0,.05,0,.07,0,0,0,0S33.66,45.25,33.64,45.25Zm0,.15c0,.05,0,0,0,0S33.64,45.39,33.65,45.4Zm-.07-.07,0,0s0,0,0,0Zm0,0s0,0,0-.06,0-.08,0,0,0,0,0,0,0-.07,0,0S33.52,45.32,33.53,45.37Zm0-.27s0,0,0,0S33.51,45.1,33.49,45.1Zm-.07.17,0,0s0,0,0,0,0,0,0-.06,0,0,0,0S33.4,45.22,33.42,45.27Zm0-.07c0-.05,0,0,0,0S33.41,45.22,33.39,45.2Zm0-.07s0,.06,0,.1a.2.2,0,0,0,0-.06S33.32,45.06,33.36,45.13Zm0,.15v0S33.36,45.24,33.38,45.28Zm0-.07,0-.1s0,0,0,.08S33.38,45.21,33.38,45.21Zm.88.77c0-.07.07,0,.08.08A.13.13,0,0,0,34.26,46Zm.07.6c0,.05,0,.05,0,0S34.31,46.58,34.33,46.58Zm-.27-.75s0,0,0,0,0,0,0,0,0,0,.07,0a.43.43,0,0,1,0,.05s0,0,0-.07a.22.22,0,0,0,0,.11S34.07,45.86,34.06,45.83Zm0,0s0,0,0,0S34.05,45.84,34.07,45.87Zm.07.12s0,0,0,0,0,0,0,.06,0,0,0,0,0,0,0,0S34.1,45.94,34.14,46Zm0-.08c0-.09,0-.06.07,0S34.15,45.92,34.12,45.91Zm.05-.15s0,0,0,0S34.2,45.78,34.17,45.76Zm.06.1v0a.05.05,0,0,1,0,0S34.2,45.8,34.23,45.86Zm-.22,0s0,.07,0,0S34,45.84,34,45.85Zm-.08.13V46s0,0,0,0,0,0,0,0,0,0,0-.05Zm0-.14s0,0,0,0S33.93,45.87,33.93,45.84Zm.06.81s0,0,0,0,0,0,0,0S34,46.59,34,46.65ZM33.8,46a.13.13,0,0,1,0-.06s0,0,.05,0,0,0,0,0S33.82,46,33.8,46Zm.06.57s0,0,0,0S33.84,46.56,33.86,46.59Zm0-.45s0,0,0,0S33.86,46.17,33.85,46.14Zm-.07-.33s0,0,0,0S33.77,45.78,33.78,45.81Zm0,0s0,0,0-.07S33.76,45.83,33.75,45.82Zm-.08.82s0,0,0,0S33.68,46.67,33.67,46.64Zm-.19-.29s0,0,0,0S33.48,46.31,33.48,46.35Zm0,.21a.43.43,0,0,1,0,0s0,0,0,0S33.49,46.61,33.49,46.56Zm0-.49h0l-.06.09h0l.05-.06,0,0v0l0,0h0l0,.08,0-.06h0v0h0v0h0l0,0h0v0h0v0c0-.08,0,0,0,0h0l0,0,0,0,0,0h0l0,.06,0,0h0s0,0,0,0v0s0,0,.06-.07,0,0,0,0l0-.05-.06.07h0Zm-.07.47s0,0,0,0S33.39,46.51,33.4,46.54Zm0-.17a.21.21,0,0,1,0-.11s0,.07,0,0v0s0,.05,0,0v0Zm0-.14h0Zm0,0a.43.43,0,0,0,0,0,.11.11,0,0,1,0-.05.13.13,0,0,0,0,.06Zm0,0s0-.06,0-.05S33.37,46.2,33.37,46.17Zm0-.14Zm0,0Zm0,0Zm0-.07Zm0,0Zm0,0h0v0h0Zm0,0h0Zm0,0Zm0-.08h0v0h0Zm0-.08h0Zm0,0Zm0,0Zm0,0Zm0,.27v0S33.39,46.13,33.39,46.09Zm0-.17c0,.06,0,.18,0,.14a1.11,1.11,0,0,0,0-.19s0,0,0,0,0,0,0,0,0,0,0,.07S33.42,45.91,33.41,45.92Zm0,.08v.08s0,0,0,0S33.43,46,33.43,46Zm0-.24c0,.05,0,0,0,0S33.49,45.82,33.48,45.76Zm.06,0s0,0,0,0,0,0,0,.06l0,0Zm.09.06s0,0,0,0S33.66,45.84,33.63,45.81Zm-.25-.08Zm0,0Zm0,.27Zm0,0Zm0,0Zm0,0Zm0,0Zm-.06.17v0s0,0,0,0Zm0,0s0,.06,0,0S33.33,46.21,33.33,46.25Zm0,.09Zm0,0Zm0,0Zm0,0h0Zm0,0Zm.06-.09Zm0,.06Zm0,0Zm0,0Zm2,.42s0,0,0-.07S35.35,46.8,35.33,46.78Zm-.39.56,0,0h0s0-.08,0,0S34.92,47.3,34.94,47.34Zm-.32,1.15s0,0-.07,0S34.59,48.47,34.62,48.49Zm-.19-1.44s0,0,0,0a.18.18,0,0,1,0,.09S34.44,47,34.43,47.05Zm0,.36s0,0,0,0S34.48,47.45,34.45,47.41Zm-.08,1.07c0,.07-.08,0,0,0S34.34,48.45,34.37,48.48Zm-.07-1.4a.11.11,0,0,1-.08,0S34.26,47.05,34.3,47.08Zm-.18.27s0,0,0,0,0,0,0,0Zm0,0s0,0,0,0v0s0,0,0,0,0,0,0,0h0S34.13,47.33,34.12,47.32Zm-.12,0s0,0,0,0S34,47.43,34,47.35Zm0,1.13c0,.05,0,0-.05,0S34,48.46,34,48.48Zm0-1.37s0,0,0,0S34,47.15,34,47.11Zm-.11.26s0,0,0,0S33.9,47.31,33.91,47.37Zm-.15,0s0,0,0,0l0,0s0,0,0,0,0,0,0,.06,0,0,0,0a.16.16,0,0,1,0,.1l0-.05s0,0,0,0S33.77,47.37,33.76,47.33Zm0,.05s0,0,0,0S33.77,47.37,33.78,47.38Zm.09,1.17s0,0-.07,0S33.84,48.54,33.87,48.55Zm-.36-1.09s0-.09,0,0,0-.12,0-.09,0,0,0,0,0-.08.07-.11l0,0s0-.07,0,0,0,.07,0,.06,0,0,0,0,0,0,0,0,0-.1.06,0,0,0,0,.07,0,0,0,0,0,0,0,0S33.53,47.4,33.51,47.46Zm0,1s-.07,0-.07,0S33.53,48.42,33.55,48.48Zm-.19-1.14h0s0,0,0,0,0,0,0,0h0s0,0,0-.07,0-.05.06,0c0-.06,0-.06,0,0s0,.09-.06.13,0,0,0-.06-.06,0-.06,0,0,0,0,0Zm0-.06,0,0s0,.13,0,.1S33.32,47.32,33.31,47.28Zm0-.16s0-.06,0,0S33.28,47.17,33.27,47.12Zm0,.06s0,0,0-.06v0S33.32,47.19,33.31,47.18Zm.27,0s0,0,0,0S33.58,47.19,33.58,47.16Zm.08.19s0,0,.05,0v0q0-.08,0,0Zm-.29,1.11s0,0-.07,0S33.35,48.44,33.37,48.46Zm-.07-.69s0,0,0,0S33.31,47.72,33.3,47.77Zm-.7.14s-.05,0-.05,0S32.6,47.9,32.6,47.91Zm-.4-.67s0,0,0,0,0,0,0,0S32.23,47.21,32.2,47.24ZM46.87,41.7a3.67,3.67,0,0,1-1.27-.11c-.33-.13-.69-.27-1-.43l.45,0a.1.1,0,0,0,0-.2,2,2,0,0,1-.85,0l0,0,.05,0,0,0h0l.12-.07a.1.1,0,0,0,0-.13.1.1,0,0,0-.13-.05,1.72,1.72,0,0,0-.37.28,4.43,4.43,0,0,1-.42-.29,3.87,3.87,0,0,1-1.4-1.82,20.69,20.69,0,0,0-.47-2.24,2.55,2.55,0,0,0-1.78-1.11,5.93,5.93,0,0,1-.71-.24,1.11,1.11,0,0,0,.25,0,.1.1,0,0,0-.05-.19l-.15,0-.08,0h-.3s0,0,0,0v0s0,0,0,0l0,0s0,0,0,0h0a.11.11,0,0,0-.07,0,.09.09,0,0,0,0,.07v.06c-.37-.16-.74-.33-1.12-.48.11-.81,1.1-.93,1.33-1.65a.65.65,0,0,1,.86.12c.22.24.2.59.35.9a2.41,2.41,0,0,0,1.51,1.3,2.38,2.38,0,0,0,2,0,.83.83,0,0,0,.18-.13,2.73,2.73,0,0,0,.45.45c.22.17.4.37.6.55a4.12,4.12,0,0,0,.85.58l.37.19a.2.2,0,0,0,0,.07l0,.06A.37.37,0,0,1,46,37v0a.06.06,0,0,0,0,.07.1.1,0,0,0,.06.05.06.06,0,0,0,.07,0s0,0,0-.06a.59.59,0,0,0,0-.13l.13.14,0,0,0,0h0l.07.11a.1.1,0,0,0,.13,0,.11.11,0,0,0,0-.14l-.14-.21h0a4.7,4.7,0,0,0,.53,0,4.08,4.08,0,0,1,.59.11,2.46,2.46,0,0,1,.7.21,6,6,0,0,0,.84.31.83.83,0,0,1,.32.17l.06,0A29.46,29.46,0,0,1,46.87,41.7ZM55,29.15a.36.36,0,0,0-.24.27c.2,1.18-.49,2.1-.9,3.1-.26.63-.32.67.06,1.3-1.17.51-1.31,1.66-1.51,2.68a6.87,6.87,0,0,1-2.24,3.86A11.83,11.83,0,0,1,49,41.48c.29-.44.56-.89.87-1.32A24.16,24.16,0,0,0,53.09,33a15.79,15.79,0,0,1,.64-1.74A7.93,7.93,0,0,0,54.45,28c0-.38,0-.76,0-1.2h.67c.1.56.18,1.05.27,1.54S55.58,29.07,55,29.15Z"/><path class="cls-1" d="M24.8,11.89c.15-.06.25-.22.37-.33-.1-.09-.2-.24-.3-.24a1.19,1.19,0,0,0-.5.17c-.22.14-.42.31-.63.47l-.3.23.1.17C24,12.21,24.39,12.07,24.8,11.89Z"/><path class="cls-1" d="M21.3,11.35c-.69.25-.84.82-.26,1.35C21.12,12.28,21.21,11.85,21.3,11.35Z"/><path class="cls-1" d="M21.35,15.48h.19a1.84,1.84,0,0,0,.14-.62c0-.14-.23-.26-.36-.38a1.18,1.18,0,0,0-.16.44A2.24,2.24,0,0,0,21.35,15.48Z"/><polygon class="cls-1" points="33.38 46.2 33.38 46.2 33.38 46.2 33.38 46.2"/><polygon class="cls-1" points="33.29 46.33 33.29 46.34 33.29 46.34 33.29 46.33 33.29 46.33"/><polygon class="cls-1" points="33.29 46.33 33.29 46.34 33.29 46.34 33.29 46.33 33.29 46.33"/><path class="cls-1" d="M33.27,46.36Z"/><polygon class="cls-1" points="33.37 46.04 33.37 46.04 33.37 46.04 33.37 46.04"/><polygon class="cls-1" points="33.38 45.69 33.38 45.69 33.38 45.69 33.38 45.69 33.38 45.69"/><polygon class="cls-1" points="33.37 46.2 33.37 46.21 33.38 46.2 33.37 46.2"/><polygon class="cls-1" points="33.32 46.28 33.32 46.28 33.32 46.28 33.32 46.28"/><polygon class="cls-1" points="33.38 45.88 33.38 45.88 33.38 45.89 33.38 45.88 33.38 45.88"/><polygon class="cls-1" points="33.18 46.55 33.18 46.55 33.18 46.55 33.18 46.55"/><polygon class="cls-1" points="33.18 46.55 33.18 46.55 33.18 46.55 33.18 46.55"/><polygon class="cls-1" points="33.37 46.21 33.37 46.22 33.37 46.21 33.37 46.21 33.37 46.21"/><polygon class="cls-1" points="33.32 46.28 33.32 46.28 33.32 46.28 33.32 46.28 33.32 46.28 33.32 46.28 33.32 46.28 33.32 46.28 33.32 46.28 33.32 46.28 33.32 46.28 33.32 46.28 33.32 46.28"/><polygon class="cls-1" points="33.29 46.33 33.29 46.33 33.29 46.33 33.29 46.33"/><polygon class="cls-1" points="33.28 46.35 33.28 46.35 33.28 46.35 33.28 46.35"/><polygon class="cls-1" points="33.37 46.04 33.37 46.04 33.37 46.04 33.37 46.04"/><polygon class="cls-1" points="33.29 46.33 33.29 46.33 33.29 46.33 33.29 46.33 33.29 46.33 33.3 46.32 33.3 46.33 33.3 46.32 33.3 46.32 33.3 46.32 33.3 46.32 33.3 46.32 33.3 46.32 33.3 46.32 33.3 46.32 33.3 46.32 33.29 46.33 33.3 46.33 33.29 46.33 33.29 46.33 33.29 46.33 33.29 46.33"/><polygon class="cls-1" points="33.28 46.35 33.28 46.35 33.28 46.35 33.28 46.35 33.28 46.35 33.28 46.35 33.28 46.35 33.28 46.35 33.28 46.35 33.28 46.34 33.28 46.35 33.28 46.35 33.28 46.35"/><polygon class="cls-1" points="33.27 46.37 33.27 46.37 33.27 46.37 33.27 46.37"/><polygon class="cls-1" points="33.37 46.04 33.37 46.04 33.37 46.04 33.37 46.04"/><path class="cls-1" d="M33.45,46.1h0Z"/><path class="cls-1" d="M33.45,46.1h0Z"/><polygon class="cls-1" points="33.5 46.03 33.5 46.03 33.49 46.04 33.5 46.03"/><path class="cls-1" d="M33.41,46.13h0s0,0,0,0Z"/><polygon class="cls-1" points="33.38 45.81 33.38 45.81 33.38 45.81 33.38 45.81"/><polygon class="cls-1" points="33.38 45.97 33.38 45.97 33.38 45.97 33.38 45.97"/><path class="cls-1" d="M33.48,46.05h0v0h0Z"/><polygon class="cls-1" points="33.37 46.04 33.37 46.04 33.37 46.04 33.37 46.04 33.37 46.04"/><path class="cls-1" d="M33.38,45.87h0Z"/><polygon class="cls-1" points="33.38 46.2 33.38 46.2 33.38 46.2 33.38 46.2"/><polygon class="cls-1" points="33.38 45.85 33.38 45.84 33.38 45.84 33.38 45.84 33.38 45.85"/><polygon class="cls-1" points="33.37 46.04 33.37 46.04 33.37 46.04 33.37 46.04 33.37 46.04"/><polygon class="cls-1" points="33.28 46.35 33.28 46.35 33.28 46.35 33.28 46.35"/><polygon class="cls-1" points="33.37 46.04 33.37 46.04 33.37 46.04 33.37 46.04"/><polygon class="cls-1" points="33.44 46.11 33.43 46.12 33.44 46.11 33.44 46.11"/><polygon class="cls-1" points="33.28 46.34 33.28 46.34 33.28 46.34 33.28 46.34"/><polygon class="cls-1" points="33.37 46.04 33.37 46.04 33.37 46.04 33.37 46.04 33.37 46.04"/><polygon class="cls-1" points="33.28 46.34 33.29 46.34 33.28 46.34 33.28 46.34 33.28 46.34"/><path class="cls-1" d="M33.46,46.09l0,0h0v0h0v0l0,0Z"/><polygon class="cls-1" points="33.37 46.04 33.37 46.04 33.37 46.04 33.37 46.04 33.37 46.04 33.37 46.04"/><path class="cls-1" d="M33.4,46.17h0v0Z"/><polygon class="cls-1" points="33.38 45.93 33.38 45.93 33.38 45.93 33.38 45.93"/><polygon class="cls-1" points="33.29 46.33 33.29 46.33 33.29 46.33 33.29 46.33 33.29 46.33"/><rect class="cls-2" x="33.37" y="46.04"/><polygon class="cls-1" points="33.28 46.35 33.28 46.35 33.28 46.35 33.28 46.35"/><polygon class="cls-1" points="33.29 46.33 33.29 46.33 33.29 46.33 33.29 46.33 33.29 46.33 33.29 46.33"/><polygon class="cls-1" points="33.29 46.33 33.3 46.33 33.29 46.33 33.29 46.33"/><polygon class="cls-1" points="33.37 46.04 33.37 46.04 33.37 46.04 33.37 46.04"/><polygon class="cls-1" points="33.29 46.33 33.29 46.33 33.29 46.33 33.29 46.33"/><polygon class="cls-1" points="33.37 46.04 33.37 46.04 33.37 46.04 33.37 46.04 33.37 46.04"/><polygon class="cls-1" points="33.36 46.23 33.36 46.23 33.36 46.22 33.36 46.22 33.36 46.23"/><polygon class="cls-1" points="33.28 46.35 33.28 46.35 33.28 46.35 33.28 46.35"/><polygon class="cls-1" points="33.38 45.93 33.38 45.93 33.38 45.93 33.38 45.93 33.38 45.93"/><polygon class="cls-1" points="33.28 46.35 33.28 46.35 33.28 46.35 33.28 46.35 33.28 46.35"/><polygon class="cls-1" points="33.37 46.04 33.37 46.04 33.37 46.04 33.37 46.04"/><polygon class="cls-1" points="33.28 46.36 33.28 46.36 33.28 46.35 33.28 46.36"/><polygon class="cls-1" points="33.19 46.53 33.19 46.53 33.19 46.53 33.19 46.53"/><polygon class="cls-1" points="33.42 46.13 33.42 46.13 33.42 46.14 33.42 46.13 33.42 46.13"/><polygon class="cls-1" points="33.31 46.3 33.31 46.3 33.31 46.3 33.31 46.3"/><polygon class="cls-1" points="33.37 46.04 33.37 46.04 33.37 46.04 33.37 46.04"/><polygon class="cls-1" points="33.37 46.04 33.37 46.04 33.37 46.04 33.37 46.04"/><polygon class="cls-1" points="33.38 45.93 33.38 45.93 33.38 45.92 33.38 45.92 33.38 45.93"/><polygon class="cls-1" points="33.28 46.35 33.28 46.35 33.28 46.35 33.28 46.35 33.28 46.35"/><polygon class="cls-1" points="33.28 46.35 33.28 46.35 33.28 46.35 33.28 46.35"/><polygon class="cls-1" points="33.29 46.33 33.29 46.33 33.29 46.33 33.29 46.33"/><polygon class="cls-1" points="33.38 46.03 33.38 46.03 33.38 46.03 33.38 46.03"/><polygon class="cls-1" points="33.36 46.22 33.36 46.23 33.36 46.23 33.36 46.22 33.36 46.22"/><polygon class="cls-1" points="33.32 46.29 33.32 46.29 33.32 46.29 33.32 46.29"/><polygon class="cls-1" points="33.38 45.96 33.38 45.96 33.38 45.96 33.38 45.96 33.38 45.96"/><polygon class="cls-1" points="33.38 46.03 33.38 46.03 33.38 46.03 33.38 46.03 33.38 46.03 33.38 46.03"/><polygon class="cls-1" points="33.32 46.28 33.32 46.29 33.32 46.28 33.32 46.28"/><path class="cls-1" d="M33.29,45.13Z"/><path class="cls-1" d="M33.31,46.31h0Z"/><polygon class="cls-1" points="33.38 46.03 33.38 46.03 33.38 46.03 33.38 46.03 33.38 46.03"/><polygon class="cls-1" points="33.32 46.28 33.32 46.28 33.32 46.28 33.32 46.28 33.32 46.29 33.32 46.28 33.32 46.28 33.32 46.28 33.32 46.28 33.32 46.28 33.32 46.28"/><polygon class="cls-1" points="33.38 46.03 33.38 46.03 33.38 46.03 33.38 46.03 33.38 46.03"/><polygon class="cls-1" points="33.32 46.29 33.32 46.29 33.32 46.29 33.32 46.29"/><polygon class="cls-1" points="33.38 46.03 33.38 46.03 33.38 46.03 33.38 46.03 33.38 46.03"/><polygon class="cls-1" points="33.3 46.31 33.3 46.32 33.3 46.32 33.3 46.31"/><polygon class="cls-1" points="33.37 46.04 33.37 46.04 33.37 46.04 33.37 46.04 33.37 46.04"/><polygon class="cls-1" points="33.37 46.04 33.37 46.04 33.37 46.04 33.37 46.04 33.37 46.04"/><polygon class="cls-1" points="33.3 46.32 33.3 46.32 33.3 46.31 33.3 46.32"/><polygon class="cls-1" points="33.3 46.33 33.3 46.32 33.3 46.32 33.3 46.33"/><polygon class="cls-1" points="33.38 46.03 33.38 46.03 33.38 46.03 33.38 46.03"/><polygon class="cls-1" points="33.38 46.03 33.38 46.03 33.38 46.03 33.38 46.03"/><polygon class="cls-1" points="33.29 46.34 33.29 46.34 33.29 46.34 33.29 46.34 33.29 46.34 33.29 46.34"/><path class="cls-1" d="M33.3,46.32Z"/><polygon class="cls-1" points="33.37 46.04 33.37 46.04 33.37 46.04 33.37 46.04 33.37 46.04 33.37 46.04"/><polygon class="cls-1" points="33.36 46.22 33.36 46.22 33.36 46.22 33.36 46.22"/><polygon class="cls-1" points="33.18 46.54 33.18 46.54 33.18 46.54 33.18 46.54"/><polygon class="cls-1" points="33.37 46.05 33.37 46.05 33.37 46.05 33.37 46.05 33.37 46.05"/><polygon class="cls-1" points="33.2 46.49 33.2 46.49 33.2 46.49 33.2 46.49"/><polygon class="cls-1" points="33.2 46.49 33.2 46.49 33.2 46.49 33.2 46.49"/><polygon class="cls-1" points="33.2 46.5 33.2 46.5 33.2 46.5 33.2 46.5"/><path class="cls-1" d="M33.37,46.05Zm0,0Zm0,0Z"/><polygon class="cls-1" points="33.2 46.49 33.2 46.49 33.2 46.49 33.2 46.49 33.2 46.49"/><polygon class="cls-1" points="33.2 46.49 33.2 46.49 33.2 46.49 33.2 46.49"/><polygon class="cls-1" points="33.2 46.49 33.2 46.49 33.2 46.49 33.2 46.49"/><polygon class="cls-1" points="33.37 46.05 33.37 46.05 33.37 46.05 33.37 46.05 33.37 46.05"/><polygon class="cls-1" points="33.2 46.49 33.2 46.49 33.2 46.49 33.2 46.49"/><polygon class="cls-1" points="33.37 46.05 33.37 46.05 33.37 46.05 33.37 46.05 33.37 46.05 33.37 46.05 33.37 46.05 33.37 46.05 33.37 46.05 33.37 46.05 33.37 46.05 33.37 46.05 33.37 46.05"/><polygon class="cls-1" points="33.2 46.5 33.2 46.5 33.2 46.5 33.2 46.5"/><polygon class="cls-1" points="33.2 46.49 33.2 46.5 33.2 46.5 33.2 46.49"/><polygon class="cls-1" points="33.37 46.05 33.36 46.07 33.37 46.05 33.37 46.05"/><polygon class="cls-1" points="33.37 46.05 33.37 46.05 33.37 46.05 33.37 46.05 33.37 46.05 33.37 46.05 33.37 46.05 33.37 46.05 33.37 46.05"/><polygon class="cls-1" points="33.37 46.05 33.37 46.05 33.37 46.05 33.37 46.05"/><polygon class="cls-1" points="33.2 46.49 33.2 46.49 33.2 46.49 33.2 46.49 33.2 46.49 33.2 46.49 33.2 46.49 33.2 46.49 33.2 46.49 33.2 46.49 33.2 46.49 33.2 46.49 33.2 46.49 33.2 46.49"/><polygon class="cls-1" points="33.2 46.49 33.2 46.49 33.2 46.49 33.2 46.49 33.2 46.49 33.2 46.49 33.2 46.49 33.2 46.49 33.2 46.49 33.2 46.49 33.2 46.49 33.2 46.49 33.2 46.49 33.2 46.49 33.2 46.49 33.2 46.49 33.2 46.49 33.2 46.49 33.2 46.49 33.2 46.49 33.2 46.49 33.2 46.49 33.2 46.49 33.2 46.49 33.2 46.49 33.2 46.49"/><polygon class="cls-1" points="33.2 46.5 33.2 46.5 33.2 46.5 33.2 46.5 33.2 46.5 33.2 46.5 33.2 46.5 33.2 46.5 33.2 46.5 33.2 46.49 33.2 46.5 33.2 46.5"/><polygon class="cls-1" points="33.37 46.05 33.37 46.05 33.37 46.05 33.37 46.05 33.37 46.05"/><path class="cls-1" d="M33.19,46.52Zm0,0Zm0,0Z"/><polygon class="cls-1" points="33.19 46.52 33.19 46.52 33.19 46.52 33.19 46.52"/><polygon class="cls-1" points="33.37 46.05 33.37 46.05 33.37 46.05 33.37 46.05"/><polygon class="cls-1" points="33.37 46.05 33.37 46.05 33.37 46.05 33.37 46.05 33.37 46.05"/><polygon class="cls-1" points="33.2 46.51 33.2 46.51 33.2 46.51 33.2 46.51"/><polygon class="cls-1" points="33.28 46.29 33.28 46.27 33.26 46.34 33.28 46.29"/><polygon class="cls-1" points="33.35 46.1 33.35 46.09 33.36 46.07 33.35 46.1"/><polygon class="cls-1" points="33.19 46.52 33.19 46.52 33.19 46.52 33.19 46.52 33.19 46.52"/><rect class="cls-2" x="33.19" y="46.52" transform="translate(-22.8 57.95) rotate(-66.04)"/><polygon class="cls-1" points="33.2 46.51 33.2 46.51 33.2 46.51 33.2 46.51"/><polygon class="cls-1" points="33.2 46.51 33.2 46.51 33.2 46.51 33.2 46.51 33.2 46.51"/><polygon class="cls-1" points="33.2 46.5 33.2 46.5 33.2 46.5 33.2 46.5 33.2 46.5 33.2 46.5 33.2 46.5 33.2 46.5 33.2 46.5 33.2 46.5 33.2 46.5 33.2 46.5 33.2 46.5 33.2 46.5"/><polygon class="cls-1" points="33.2 46.5 33.2 46.5 33.2 46.5 33.2 46.5"/><polygon class="cls-1" points="33.37 46.05 33.37 46.05 33.37 46.05 33.37 46.05"/><polygon class="cls-1" points="33.37 46.05 33.37 46.05 33.37 46.05 33.37 46.05 33.37 46.05"/><polygon class="cls-1" points="33.37 46.05 33.37 46.05 33.37 46.05 33.37 46.05 33.37 46.05 33.37 46.05 33.37 46.05 33.37 46.05 33.37 46.05"/><polygon class="cls-1" points="33.2 46.5 33.2 46.5 33.2 46.5 33.2 46.5 33.2 46.5 33.2 46.5 33.2 46.5 33.2 46.5 33.2 46.5 33.2 46.5"/><path class="cls-1" d="M33.2,46.5Zm0,0Zm0,0Z"/><polygon class="cls-1" points="33.37 46.05 33.37 46.05 33.37 46.05 33.37 46.05"/><polygon class="cls-1" points="33.19 46.52 33.19 46.52 33.19 46.52 33.19 46.52"/><polygon class="cls-1" points="33.37 46.05 33.37 46.04 33.37 46.04 33.37 46.05"/><polygon class="cls-1" points="33.37 46.04 33.37 46.04 33.37 46.04 33.37 46.04"/><polygon class="cls-1" points="33.37 46.04 33.37 46.04 33.37 46.04 33.37 46.04"/><polygon class="cls-1" points="33.19 46.52 33.19 46.52 33.19 46.52 33.19 46.52 33.19 46.52"/><polygon class="cls-1" points="33.37 46.05 33.37 46.05 33.37 46.05 33.37 46.05 33.37 46.05"/><polygon class="cls-1" points="33.37 46.05 33.37 46.05 33.37 46.05 33.37 46.05 33.37 46.05 33.37 46.05 33.37 46.05 33.37 46.05 33.37 46.05 33.37 46.05 33.37 46.05"/><polygon class="cls-1" points="33.19 46.52 33.19 46.51 33.19 46.51 33.19 46.52"/><polygon class="cls-1" points="33.19 46.52 33.19 46.52 33.19 46.52 33.19 46.52"/><polygon class="cls-1" points="33.19 46.52 33.19 46.52 33.19 46.52 33.19 46.52"/><polygon class="cls-1" points="33.19 46.52 33.19 46.52 33.19 46.52 33.19 46.52 33.19 46.52 33.19 46.52"/><polygon class="cls-1" points="33.19 46.52 33.19 46.52 33.19 46.52 33.19 46.52"/><polygon class="cls-1" points="33.37 46.04 33.37 46.04 33.37 46.04 33.37 46.04 33.37 46.04"/><polygon class="cls-1" points="33.37 46.04 33.37 46.04 33.37 46.04 33.37 46.04"/><polygon class="cls-1" points="33.37 46.05 33.37 46.05 33.37 46.05 33.37 46.05"/><path class="cls-1" d="M33.37,46Z"/><polygon class="cls-1" points="33.19 46.52 33.19 46.52 33.19 46.52 33.19 46.52"/><polygon class="cls-1" points="33.37 46.04 33.37 46.04 33.37 46.04 33.37 46.04"/><polygon class="cls-1" points="33.37 46.05 33.37 46.05 33.37 46.05 33.37 46.05"/><polygon class="cls-1" points="33.2 46.5 33.2 46.5 33.2 46.5 33.2 46.5"/><polygon class="cls-1" points="33.37 46.05 33.37 46.05 33.37 46.05 33.37 46.05 33.37 46.05 33.37 46.05"/><polygon class="cls-1" points="33.2 46.5 33.2 46.5 33.2 46.5 33.2 46.5 33.2 46.5"/><polygon class="cls-1" points="33.2 46.5 33.2 46.5 33.2 46.5 33.2 46.5"/><polygon class="cls-1" points="33.37 46.05 33.37 46.05 33.37 46.05 33.37 46.05"/><polygon class="cls-1" points="33.37 46.05 33.37 46.05 33.37 46.05 33.37 46.05 33.37 46.05 33.37 46.05 33.37 46.05 33.37 46.05 33.37 46.05"/><polygon class="cls-1" points="33.2 46.49 33.2 46.49 33.2 46.49 33.2 46.49"/><polygon class="cls-1" points="33.2 46.5 33.2 46.5 33.2 46.5 33.2 46.5"/><polygon class="cls-1" points="33.2 46.5 33.2 46.5 33.2 46.49 33.2 46.5"/><polygon class="cls-1" points="33.2 46.5 33.2 46.5 33.2 46.5 33.2 46.5"/><polygon class="cls-1" points="33.2 46.5 33.2 46.5 33.2 46.5 33.2 46.5 33.2 46.5 33.2 46.5 33.2 46.5 33.2 46.5 33.2 46.5 33.2 46.5 33.2 46.5 33.2 46.5"/><polygon class="cls-1" points="33.37 46.05 33.37 46.05 33.37 46.05 33.37 46.05 33.37 46.05"/><polygon class="cls-1" points="33.37 46.05 33.37 46.05 33.37 46.05 33.37 46.05 33.37 46.05"/><polygon class="cls-1" points="33.2 46.5 33.2 46.5 33.2 46.5 33.2 46.5"/><polygon class="cls-1" points="33.37 46.05 33.37 46.05 33.37 46.05 33.37 46.05"/><polygon class="cls-1" points="33.2 46.5 33.2 46.5 33.2 46.5 33.2 46.5"/><polygon class="cls-1" points="33.37 46.05 33.37 46.05 33.37 46.05 33.37 46.05 33.37 46.05"/><polygon class="cls-1" points="33.2 46.5 33.2 46.5 33.2 46.5 33.2 46.5"/><polygon class="cls-1" points="33.18 46.54 33.18 46.54 33.18 46.54 33.18 46.54"/><polygon class="cls-1" points="33.18 46.54 33.18 46.54 33.18 46.54 33.18 46.54 33.18 46.54 33.18 46.53 33.18 46.54 33.18 46.54 33.18 46.53 33.18 46.53 33.18 46.53 33.18 46.53 33.18 46.53 33.18 46.53 33.18 46.53 33.18 46.53 33.18 46.53 33.18 46.54 33.18 46.53 33.18 46.54 33.18 46.54 33.18 46.54"/><polygon class="cls-1" points="33.18 46.55 33.18 46.55 33.18 46.55 33.18 46.55 33.18 46.55"/><polygon class="cls-1" points="33.21 46.48 33.21 46.48 33.21 46.48 33.21 46.48 33.21 46.48"/><polygon class="cls-1" points="33.18 46.53 33.18 46.53 33.18 46.53 33.18 46.53"/><polygon class="cls-1" points="33.18 46.54 33.18 46.54 33.18 46.54 33.18 46.54 33.18 46.54 33.18 46.54 33.18 46.54 33.18 46.54 33.18 46.54 33.18 46.54 33.18 46.54 33.18 46.54"/><path class="cls-1" d="M33.21,46.49h0v0Z"/><polygon class="cls-1" points="33.21 46.48 33.21 46.48 33.21 46.48 33.21 46.48"/><path class="cls-1" d="M33.19,46.52v0Z"/><path class="cls-1" d="M33.19,46.53Zm0,0Zm0,0Zm0,0Z"/><polygon class="cls-1" points="33.18 46.54 33.18 46.54 33.18 46.54 33.18 46.54"/><polygon class="cls-1" points="33.19 46.53 33.19 46.53 33.19 46.53 33.19 46.53"/><polygon class="cls-1" points="33.19 46.53 33.19 46.53 33.19 46.53 33.19 46.53 33.19 46.53 33.19 46.53 33.19 46.53 33.19 46.53 33.19 46.53 33.19 46.53 33.19 46.53 33.19 46.53 33.19 46.53 33.19 46.53"/><polygon class="cls-1" points="33.21 46.48 33.21 46.48 33.21 46.48 33.21 46.48"/><polygon class="cls-1" points="33.19 46.53 33.19 46.53 33.19 46.53 33.19 46.53 33.19 46.53 33.19 46.53"/><polygon class="cls-1" points="33.21 46.48 33.21 46.48 33.21 46.48 33.21 46.48 33.21 46.48 33.21 46.48 33.21 46.48"/><polygon class="cls-1" points="33.18 46.53 33.19 46.53 33.18 46.53 33.18 46.53 33.18 46.53"/><polygon class="cls-1" points="33.18 46.53 33.18 46.53 33.18 46.53 33.18 46.53 33.18 46.53 33.18 46.53 33.18 46.53 33.18 46.53 33.18 46.53 33.18 46.53"/><polygon class="cls-1" points="33.19 46.53 33.19 46.53 33.19 46.53 33.19 46.53"/><polygon class="cls-1" points="33.19 46.53 33.19 46.53 33.19 46.53 33.19 46.53 33.19 46.53 33.19 46.53 33.19 46.53 33.19 46.53 33.19 46.53"/><polygon class="cls-1" points="33.18 46.53 33.19 46.53 33.19 46.53 33.18 46.53"/><path class="cls-1" d="M33.18,46.54Zm0,0Zm0,0Zm0,0Zm0,0Z"/><polygon class="cls-1" points="33.18 46.55 33.18 46.55 33.18 46.55 33.18 46.55 33.18 46.55"/><polygon class="cls-1" points="33.18 46.55 33.18 46.55 33.18 46.55 33.18 46.55 33.18 46.55"/><polygon class="cls-1" points="33.18 46.55 33.18 46.55 33.18 46.55 33.18 46.55"/><polygon class="cls-1" points="33.18 46.54 33.18 46.54 33.18 46.54 33.18 46.54"/><polygon class="cls-1" points="33.18 46.55 33.18 46.55 33.18 46.55 33.18 46.55 33.18 46.55"/><polygon class="cls-1" points="33.18 46.55 33.18 46.55 33.18 46.55 33.18 46.55"/><path class="cls-1" d="M33.18,46.55Z"/><polygon class="cls-1" points="33.18 46.55 33.18 46.55 33.18 46.55 33.18 46.55 33.18 46.55 33.18 46.55 33.18 46.55 33.18 46.55 33.18 46.55 33.18 46.55 33.18 46.55"/><polygon class="cls-1" points="33.18 46.55 33.18 46.55 33.18 46.55 33.18 46.55"/><polygon class="cls-1" points="33.19 46.53 33.19 46.53 33.19 46.53 33.19 46.53"/><polygon class="cls-1" points="33.19 46.53 33.19 46.53 33.19 46.53 33.19 46.53"/><polygon class="cls-1" points="33.18 46.54 33.18 46.54 33.18 46.54 33.18 46.54 33.18 46.54 33.18 46.54 33.18 46.54 33.18 46.54 33.18 46.54 33.18 46.54 33.18 46.54 33.18 46.54 33.18 46.54 33.18 46.54 33.18 46.54 33.18 46.54 33.18 46.54 33.18 46.54 33.18 46.54 33.18 46.54 33.18 46.54"/><polygon class="cls-1" points="33.18 46.55 33.18 46.55 33.18 46.55 33.18 46.55 33.18 46.55 33.18 46.55"/><polygon class="cls-1" points="33.18 46.55 33.18 46.55 33.18 46.55 33.18 46.55"/><polygon class="cls-1" points="33.18 46.55 33.18 46.55 33.18 46.55 33.18 46.55"/><polygon class="cls-1" points="33.19 46.52 33.19 46.52 33.19 46.52 33.19 46.52"/><polygon class="cls-1" points="33.19 46.53 33.19 46.53 33.18 46.53 33.18 46.53 33.18 46.53 33.18 46.54 33.18 46.54 33.18 46.54 33.18 46.54 33.18 46.53 33.18 46.53 33.19 46.53"/><path class="cls-1" d="M33.19,46.52Z"/><polygon class="cls-1" points="33.19 46.52 33.19 46.52 33.19 46.52 33.19 46.52 33.19 46.52 33.19 46.52 33.19 46.52 33.19 46.52 33.19 46.52"/><path class="cls-1" d="M33.19,46.52h0l0-.05Z"/><polygon class="cls-1" points="33.19 46.52 33.19 46.52 33.19 46.52 33.19 46.52 33.19 46.53 33.19 46.53 33.19 46.52"/><polygon class="cls-1" points="33.19 46.52 33.19 46.52 33.19 46.52 33.19 46.52"/><path class="cls-1" d="M33.24,46.38v0h0Z"/><path class="cls-1" d="M33.19,46.53Zm0,0Z"/><polygon class="cls-1" points="33.25 46.4 33.25 46.4 33.25 46.4 33.25 46.4"/><path class="cls-1" d="M33.19,46.52h0Z"/><polygon class="cls-1" points="33.19 46.52 33.19 46.51 33.19 46.52 33.19 46.52"/><polygon class="cls-1" points="33.24 46.37 33.24 46.38 33.24 46.37 33.24 46.37"/><polygon class="cls-1" points="33.25 46.41 33.25 46.41 33.25 46.4 33.25 46.4 33.25 46.41"/><polygon class="cls-1" points="33.19 46.52 33.19 46.52 33.19 46.52 33.19 46.52"/><path class="cls-1" d="M33.24,46.38l0,.09v0l0-.07Z"/><path class="cls-1" d="M33.19,46.52Zm0,0Z"/><polygon class="cls-1" points="33.19 46.52 33.19 46.52 33.19 46.52 33.19 46.52"/><polygon class="cls-1" points="33.19 46.52 33.19 46.52 33.19 46.52 33.19 46.52 33.19 46.52"/><polygon class="cls-1" points="33.19 46.52 33.19 46.52 33.19 46.52 33.19 46.52 33.19 46.52 33.19 46.52 33.19 46.52 33.19 46.52 33.19 46.52 33.19 46.52 33.19 46.52"/><polygon class="cls-1" points="33.26 46.34 33.24 46.37 33.24 46.37 33.26 46.34"/><polygon class="cls-1" points="33.18 46.53 33.18 46.53 33.18 46.53 33.18 46.53 33.18 46.53"/><polygon class="cls-1" points="33.18 46.53 33.18 46.53 33.19 46.53 33.19 46.53 33.18 46.53"/><polygon class="cls-1" points="33.21 46.48 33.21 46.48 33.21 46.48 33.21 46.48"/><polygon class="cls-1" points="33.19 46.53 33.19 46.53 33.19 46.53 33.19 46.53 33.19 46.53 33.19 46.53 33.19 46.53 33.19 46.53 33.19 46.53 33.19 46.53 33.19 46.53 33.19 46.53"/><polygon class="cls-1" points="33.18 46.53 33.18 46.53 33.18 46.53 33.18 46.53"/><polygon class="cls-1" points="33.18 46.53 33.18 46.53 33.19 46.53 33.19 46.53 33.18 46.53 33.19 46.53 33.18 46.53 33.18 46.53 33.18 46.53 33.18 46.53 33.18 46.53 33.18 46.53 33.18 46.53"/><polygon class="cls-1" points="33.21 46.48 33.21 46.48 33.21 46.48 33.21 46.48"/><polygon class="cls-1" points="33.21 46.48 33.21 46.48 33.21 46.48 33.21 46.48"/><polygon class="cls-1" points="33.18 46.53 33.18 46.53 33.18 46.53 33.18 46.53 33.18 46.53 33.18 46.53"/><polygon class="cls-1" points="33.21 46.47 33.21 46.48 33.21 46.48 33.21 46.47 33.21 46.47"/><polygon class="cls-1" points="33.18 46.54 33.18 46.54 33.18 46.54 33.18 46.54"/><polygon class="cls-1" points="33.25 46.41 33.25 46.4 33.25 46.41 33.25 46.41"/><polygon class="cls-1" points="33.18 46.54 33.18 46.54 33.18 46.54 33.18 46.54 33.18 46.54"/><path class="cls-1" d="M33.25,46.41h0v0h0v0h0v0h0s0,0,0-.08h0Zm0,0Zm0,0Zm0,0Zm0,0Zm0-.07Zm0,0Z"/><polygon class="cls-1" points="33.18 46.54 33.18 46.54 33.18 46.54 33.18 46.54 33.18 46.54"/><polygon class="cls-1" points="33.18 46.54 33.18 46.54 33.18 46.54 33.18 46.54 33.18 46.54 33.18 46.54 33.18 46.54 33.18 46.54 33.18 46.54 33.18 46.54 33.18 46.54 33.18 46.53 33.18 46.54"/><polygon class="cls-1" points="33.18 46.54 33.18 46.54 33.18 46.54 33.18 46.54"/><polygon class="cls-1" points="33.18 46.54 33.18 46.54 33.18 46.54 33.18 46.54 33.18 46.54"/><polygon class="cls-1" points="33.38 45.96 33.38 45.96 33.38 45.96 33.38 45.96"/><polygon class="cls-1" points="33.23 46.44 33.23 46.44 33.23 46.44 33.23 46.44 33.23 46.44 33.23 46.44"/><polygon class="cls-1" points="33.23 46.43 33.23 46.43 33.23 46.44 33.23 46.44 33.23 46.43"/><polygon class="cls-1" points="33.23 46.44 33.23 46.44 33.23 46.44 33.23 46.44 33.23 46.44"/><polygon class="cls-1" points="33.34 45.37 33.34 45.37 33.34 45.37 33.34 45.37"/><polygon class="cls-1" points="33.33 45.32 33.33 45.32 33.33 45.32 33.33 45.32"/><polygon class="cls-1" points="33.23 46.43 33.23 46.43 33.23 46.43 33.23 46.43 33.23 46.43 33.23 46.43"/><polygon class="cls-1" points="33.23 46.44 33.23 46.44 33.23 46.44 33.23 46.44 33.23 46.44"/><polygon class="cls-1" points="33.23 46.44 33.23 46.44 33.23 46.44 33.23 46.44 33.23 46.44"/><polygon class="cls-1" points="33.33 45.32 33.33 45.32 33.33 45.32 33.33 45.32"/><polygon class="cls-1" points="33.33 45.32 33.33 45.33 33.33 45.33 33.33 45.32"/><polygon class="cls-1" points="33.34 45.39 33.34 45.4 33.34 45.39 33.34 45.39"/><path class="cls-1" d="M33.35,45.42h0a.13.13,0,0,1,0,.06h0Z"/><polygon class="cls-1" points="33.24 46.42 33.24 46.42 33.24 46.42 33.24 46.42"/><polygon class="cls-1" points="33.34 45.4 33.34 45.41 33.34 45.4 33.34 45.4"/><polygon class="cls-1" points="33.23 46.43 33.23 46.43 33.23 46.43 33.23 46.43"/><polygon class="cls-1" points="33.23 46.43 33.23 46.43 33.23 46.43 33.23 46.43 33.23 46.43"/><polygon class="cls-1" points="33.23 46.43 33.23 46.43 33.23 46.43 33.23 46.43"/><polygon class="cls-1" points="33.34 45.38 33.34 45.39 33.34 45.39 33.34 45.38"/><path class="cls-1" d="M33.33,45.34v0h0Z"/><polygon class="cls-1" points="33.24 46.43 33.24 46.43 33.23 46.43 33.24 46.43"/><path class="cls-1" d="M33.35,45.43v0h0Z"/><polygon class="cls-1" points="33.34 45.39 33.34 45.39 33.34 45.39 33.34 45.39"/><path class="cls-1" d="M33.34,45.41Z"/><polygon class="cls-1" points="33.24 46.41 33.24 46.42 33.24 46.41 33.24 46.41"/><path class="cls-1" d="M33.34,45.4h0Z"/><path class="cls-1" d="M33.34,45.41v0Z"/><polygon class="cls-1" points="33.24 46.42 33.24 46.42 33.24 46.42 33.24 46.42 33.24 46.42 33.24 46.42 33.24 46.42 33.24 46.42 33.24 46.42 33.24 46.42"/><path class="cls-1" d="M33.24,46.42Zm0,0h0Z"/><path class="cls-1" d="M33.23,46.43v0h0v0Z"/><polygon class="cls-1" points="33.24 46.42 33.24 46.42 33.24 46.42 33.24 46.42"/><polygon class="cls-1" points="33.34 45.39 33.34 45.38 33.34 45.37 33.34 45.37 33.34 45.37 33.34 45.37 33.34 45.38 33.34 45.39"/><polygon class="cls-1" points="33.24 46.42 33.24 46.42 33.24 46.42 33.24 46.42 33.24 46.42"/><path class="cls-1" d="M33.34,45.37h0v0h0Z"/><path class="cls-1" d="M33.33,45.33h0Z"/><polygon class="cls-1" points="33.34 45.38 33.34 45.37 33.34 45.38 33.34 45.38"/><polygon class="cls-1" points="33.24 46.42 33.24 46.41 33.24 46.41 33.24 46.42"/><polygon class="cls-1" points="33.34 45.39 33.34 45.39 33.34 45.39 33.34 45.39"/><polygon class="cls-1" points="33.24 46.42 33.24 46.42 33.24 46.42 33.24 46.42"/><path class="cls-1" d="M33.33,45.33h0Z"/><polygon class="cls-1" points="42.59 43.88 42.59 43.89 42.59 43.89 42.59 43.88"/><path class="cls-1" d="M42.63,43.78s0,0,0,0a.17.17,0,0,1,0,.07s0,0,.06-.07S42.63,43.81,42.63,43.78Z"/><polygon class="cls-1" points="33.23 46.45 33.22 46.45 33.23 46.45 33.23 46.45 33.23 46.45"/><polygon class="cls-1" points="33.23 46.45 33.23 46.45 33.23 46.45 33.23 46.45 33.23 46.45"/><path class="cls-1" d="M39,44.62h0S39,44.63,39,44.62Z"/><polygon class="cls-1" points="33.22 46.45 33.22 46.45 33.22 46.45 33.22 46.45 33.23 46.45 33.22 46.45"/><path class="cls-1" d="M34.6,44.87a.06.06,0,0,0,0,0h0A0,0,0,0,1,34.6,44.87Z"/><path class="cls-1" d="M33.29,45.11h0v0Z"/><polygon class="cls-1" points="38.95 44.62 38.95 44.63 38.95 44.62 38.95 44.62"/><polygon class="cls-1" points="33.2 46.5 33.2 46.5 33.2 46.5 33.2 46.5"/><polygon class="cls-1" points="33.2 46.5 33.2 46.5 33.2 46.49 33.2 46.5"/><polygon class="cls-1" points="33.21 46.48 33.21 46.48 33.21 46.48 33.21 46.48"/><polygon class="cls-1" points="33.23 46.44 33.23 46.44 33.23 46.44 33.23 46.44"/><polygon class="cls-1" points="33.21 46.48 33.21 46.48 33.21 46.48 33.21 46.48"/><polygon class="cls-1" points="33.24 46.41 33.24 46.41 33.24 46.41 33.24 46.41"/><polygon class="cls-1" points="33.25 46.41 33.25 46.4 33.25 46.41 33.24 46.41 33.24 46.41 33.25 46.41"/><polygon class="cls-1" points="33.24 46.42 33.24 46.42 33.24 46.42 33.24 46.42"/><polygon class="cls-1" points="33.25 46.41 33.25 46.41 33.25 46.41 33.25 46.41"/><polygon class="cls-1" points="33.35 45.48 33.35 45.48 33.35 45.47 33.35 45.48 33.35 45.48"/><polygon class="cls-1" points="33.23 46.43 33.23 46.43 33.23 46.43 33.23 46.43 33.23 46.43"/><path class="cls-1" d="M33.35,45.48h0s0,0,0,.05h0v0Z"/><polygon class="cls-1" points="33.24 46.42 33.24 46.42 33.24 46.42 33.24 46.42 33.24 46.42"/><path class="cls-1" d="M34,45.69a0,0,0,0,1,0,0h0A0,0,0,0,1,34,45.69Z"/><polygon class="cls-1" points="33.24 46.42 33.24 46.42 33.24 46.42 33.24 46.42 33.24 46.42"/><polygon class="cls-1" points="33.35 45.47 33.35 45.47 33.35 45.47 33.35 45.47"/><polygon class="cls-1" points="33.24 46.42 33.24 46.42 33.24 46.42 33.24 46.42 33.24 46.42"/><polygon class="cls-1" points="33.35 45.48 33.35 45.48 33.35 45.48 33.35 45.48"/><polygon class="cls-1" points="33.24 46.42 33.24 46.42 33.24 46.42 33.24 46.42"/><path class="cls-1" d="M34.36,45.84h0S34.36,45.81,34.36,45.84Z"/><polygon class="cls-1" points="33.5 45.48 33.5 45.48 33.5 45.48 33.5 45.48"/><path class="cls-1" d="M33.33,45.31v0Z"/><polygon class="cls-1" points="33.23 46.44 33.23 46.44 33.23 46.44 33.23 46.44"/><polygon class="cls-1" points="33.23 46.44 33.23 46.44 33.23 46.44 33.23 46.44"/><path class="cls-1" d="M33.49,45.5s0,0,0,0l0,0s0,0,0,0S33.49,45.48,33.49,45.5Z"/><path class="cls-1" d="M33.8,45.64s0,0,0,.06,0,0,0,0l0,0,0,0s0,0,0,0l0,.07h0l.08-.1,0,0h0l-.06.07C33.75,45.71,33.79,45.64,33.8,45.64Z"/><polygon class="cls-1" points="33.24 46.42 33.24 46.42 33.24 46.42 33.24 46.42"/><polygon class="cls-1" points="34.36 45.84 34.36 45.84 34.36 45.85 34.36 45.84"/><polygon class="cls-1" points="33.38 45.96 33.38 45.96 33.38 45.96 33.38 45.96"/><polygon class="cls-1" points="33.19 46.53 33.19 46.53 33.19 46.53 33.19 46.53 33.19 46.53"/><polygon class="cls-1" points="33.38 45.96 33.38 45.96 33.38 45.96 33.38 45.96 33.38 45.96"/><polygon class="cls-1" points="33.19 46.53 33.19 46.53 33.19 46.53 33.19 46.53 33.19 46.53"/><polygon class="cls-1" points="33.19 46.53 33.19 46.53 33.19 46.53 33.19 46.53"/><polygon class="cls-1" points="33.19 46.53 33.19 46.53 33.19 46.53 33.19 46.53"/><polygon class="cls-1" points="33.19 46.53 33.19 46.53 33.19 46.53 33.19 46.53 33.19 46.53"/><polygon class="cls-1" points="33.19 46.53 33.19 46.52 33.19 46.53 33.19 46.53"/><polygon class="cls-1" points="33.38 45.96 33.38 45.96 33.38 45.96 33.38 45.96 33.38 45.96 33.38 45.96 33.38 45.96 33.38 45.96 33.38 45.96"/><polygon class="cls-1" points="33.19 46.53 33.19 46.52 33.19 46.52 33.19 46.52 33.19 46.53"/><polygon class="cls-1" points="33.38 45.96 33.38 45.96 33.38 45.96 33.38 45.96 33.38 45.96"/><polygon class="cls-1" points="33.19 46.52 33.19 46.52 33.19 46.52 33.19 46.52"/><polygon class="cls-1" points="33.37 46.04 33.37 46.04 33.37 46.04 33.37 46.04 33.37 46.04"/><polygon class="cls-1" points="33.38 45.96 33.38 45.96 33.38 45.96 33.38 45.96"/><polygon class="cls-1" points="33.38 45.96 33.38 45.96 33.38 45.96 33.38 45.96 33.38 45.96"/><polygon class="cls-1" points="33.19 46.52 33.19 46.52 33.19 46.52 33.19 46.52 33.19 46.52 33.19 46.52 33.19 46.52 33.19 46.52 33.19 46.52 33.19 46.52 33.19 46.52 33.19 46.52 33.19 46.52"/><polygon class="cls-1" points="33.19 46.53 33.19 46.53 33.19 46.53 33.19 46.53"/><polygon class="cls-1" points="33.19 46.52 33.19 46.52 33.19 46.53 33.19 46.53 33.19 46.52 33.19 46.52"/><path class="cls-1" d="M33.37,46Z"/><polygon class="cls-1" points="33.37 46.02 33.37 46.02 33.38 46.02 33.37 46.02"/><polygon class="cls-1" points="33.19 46.52 33.19 46.52 33.19 46.52 33.19 46.52 33.19 46.52"/><polygon class="cls-1" points="33.24 46.42 33.24 46.42 33.24 46.42 33.24 46.42"/><polygon class="cls-1" points="33.37 46.03 33.37 46.03 33.37 46.04 33.37 46.04 33.37 46.03 33.37 46.03 33.37 46.03 33.37 46.03"/><polygon class="cls-1" points="33.37 46.04 33.37 46.03 33.37 46.03 33.37 46.04 33.37 46.04"/><polygon class="cls-1" points="33.19 46.52 33.19 46.52 33.19 46.52 33.19 46.52"/><polygon class="cls-1" points="33.19 46.52 33.19 46.52 33.19 46.52 33.19 46.52 33.19 46.52 33.19 46.52 33.19 46.52 33.19 46.52 33.19 46.52 33.19 46.52 33.19 46.52 33.19 46.52"/><polygon class="cls-1" points="33.38 46.02 33.38 46.02 33.38 46.02 33.38 46.02 33.38 46.02 33.38 46.02"/><polygon class="cls-1" points="33.19 46.52 33.19 46.52 33.19 46.52 33.19 46.52 33.19 46.52 33.19 46.52 33.19 46.52 33.19 46.52 33.19 46.52 33.19 46.52 33.19 46.52 33.19 46.52 33.19 46.52 33.19 46.52"/><polygon class="cls-1" points="33.38 46.02 33.38 46.02 33.38 46.02 33.38 46.02"/><polygon class="cls-1" points="33.38 45.96 33.38 45.96 33.38 45.96 33.38 45.96"/><polygon class="cls-1" points="33.38 45.96 33.38 45.96 33.38 45.96 33.38 45.96 33.38 45.96"/><polygon class="cls-1" points="33.38 45.98 33.38 45.97 33.38 45.98 33.38 45.98"/><polygon class="cls-1" points="33.19 46.52 33.19 46.52 33.19 46.52 33.19 46.52"/><polygon class="cls-1" points="33.38 45.99 33.38 45.98 33.38 45.98 33.38 45.99"/><path class="cls-1" d="M33.38,46h0Z"/><polygon class="cls-1" points="33.38 45.99 33.38 46 33.38 46 33.38 45.99"/><polygon class="cls-1" points="33.19 46.52 33.19 46.52 33.19 46.52 33.19 46.52"/><path class="cls-1" d="M33.38,45.68h0v0Z"/><polygon class="cls-1" points="33.23 46.45 33.22 46.45 33.22 46.45 33.23 46.45"/><path class="cls-1" d="M33.22,46.45Zm0,0Z"/><path class="cls-1" d="M33.37,45.6v0Z"/><path class="cls-1" d="M33.37,45.64h0v0Z"/><path class="cls-1" d="M33.38,45.69h0v0Z"/><path class="cls-1" d="M33.36,45.56v0Z"/><path class="cls-1" d="M33.36,45.52h0v0h0A.07.07,0,0,1,33.36,45.52Z"/><path class="cls-1" d="M33.37,45.58h0Z"/><polygon class="cls-1" points="33.23 46.45 33.23 46.45 33.23 46.45 33.23 46.45 33.23 46.45 33.23 46.45 33.23 46.44 33.23 46.45 33.23 46.45 33.23 46.44 33.23 46.44 33.23 46.44 33.23 46.44 33.23 46.44 33.23 46.44 33.23 46.44 33.23 46.44 33.23 46.44 33.23 46.44 33.23 46.45 33.23 46.45 33.23 46.45 33.23 46.45"/><polygon class="cls-1" points="33.33 45.32 33.33 45.32 33.33 45.32 33.33 45.32"/><polygon class="cls-1" points="33.24 46.42 33.24 46.42 33.24 46.42 33.24 46.42 33.24 46.42 33.24 46.42 33.24 46.42 33.24 46.42"/><path class="cls-1" d="M33.33,45.31h0Z"/><polygon class="cls-1" points="33.24 46.42 33.23 46.43 33.24 46.43 33.24 46.42"/><path class="cls-1" d="M33.37,45.62h0v0Z"/><path class="cls-1" d="M33.38,45.89Z"/><polygon class="cls-1" points="33.23 46.44 33.23 46.44 33.23 46.44 33.23 46.44 33.23 46.44 33.23 46.44 33.23 46.44 33.23 46.44 33.23 46.44 33.23 46.44 33.23 46.44 33.23 46.44 33.23 46.44 33.23 46.44 33.23 46.44 33.23 46.44 33.23 46.44 33.23 46.44 33.23 46.44 33.23 46.44 33.23 46.44 33.23 46.44 33.23 46.44 33.23 46.44"/><path class="cls-1" d="M33.23,46.44Z"/><polygon class="cls-1" points="33.23 46.44 33.23 46.44 33.23 46.44 33.23 46.44 33.23 46.44"/><polygon class="cls-1" points="33.38 45.77 33.38 45.77 33.38 45.77 33.38 45.77"/><polygon class="cls-1" points="33.2 46.49 33.2 46.49 33.2 46.49 33.2 46.49"/><polygon class="cls-1" points="33.21 46.49 33.21 46.49 33.21 46.49 33.21 46.49 33.2 46.49 33.2 46.49 33.21 46.49"/><polygon class="cls-1" points="33.21 46.49 33.2 46.49 33.21 46.49 33.21 46.49 33.21 46.49"/><polygon class="cls-1" points="33.38 45.9 33.38 45.9 33.38 45.9 33.38 45.89 33.38 45.9"/><polygon class="cls-1" points="33.19 46.53 33.19 46.53 33.19 46.53 33.19 46.53"/><polygon class="cls-1" points="33.21 46.49 33.2 46.49 33.2 46.49 33.2 46.49 33.21 46.49 33.21 46.49 33.21 46.48 33.21 46.49 33.2 46.49 33.2 46.49 33.21 46.48 33.21 46.48 33.21 46.48 33.21 46.48 33.21 46.48 33.21 46.48 33.21 46.49 33.21 46.48 33.21 46.48 33.21 46.49 33.21 46.49"/><polygon class="cls-1" points="33.38 45.89 33.38 45.89 33.38 45.89 33.38 45.89"/><polygon class="cls-1" points="33.38 45.77 33.38 45.77 33.38 45.77 33.38 45.77"/><polygon class="cls-1" points="33.38 45.75 33.38 45.74 33.38 45.74 33.38 45.75"/><polygon class="cls-1" points="33.38 45.77 33.38 45.76 33.38 45.76 33.38 45.77"/><path class="cls-1" d="M33.38,45.76h0v0h0Z"/><polygon class="cls-1" points="33.38 45.76 33.38 45.76 33.38 45.76 33.38 45.76"/><polygon class="cls-1" points="33.38 45.75 33.38 45.75 33.38 45.75 33.38 45.75"/><polygon class="cls-1" points="33.38 45.77 33.38 45.77 33.38 45.77 33.38 45.77 33.38 45.77 33.38 45.77 33.38 45.77 33.38 45.77 33.38 45.77 33.38 45.77 33.38 45.77 33.38 45.77"/><polygon class="cls-1" points="33.38 45.77 33.38 45.77 33.38 45.77 33.38 45.77 33.38 45.77 33.38 45.77"/><polygon class="cls-1" points="33.38 45.77 33.38 45.77 33.38 45.77 33.38 45.77 33.38 45.77"/><polygon class="cls-1" points="33.38 45.78 33.38 45.78 33.38 45.78 33.38 45.78 33.38 45.77 33.38 45.78"/><path class="cls-1" d="M4.57,43.31a.17.17,0,0,0,0-.07S4.54,43.3,4.57,43.31Z"/><path class="cls-1" d="M10.19,45.85c-.1-.13-.2-.19-.28-.29s0,0,0,.06a.11.11,0,0,1,.09.1C10.08,45.68,10.09,45.83,10.19,45.85Z"/><path class="cls-1" d="M4.57,43.31h0Z"/></g></g></svg>