<svg width="268" height="267" viewBox="0 0 268 267" fill="none" xmlns="http://www.w3.org/2000/svg">
    <rect width="268" height="267" fill="#E5E5E5"/>
    <rect width="375" height="667" transform="translate(-53 -263)" fill="url(#paint0_linear_0_1)"/>
    <g filter="url(#filter0_d_0_1)">
        <rect x="-28" y="-25" width="324" height="324" rx="20" fill="white"/>
        <rect x="-27.5" y="-24.5" width="323" height="323" rx="19.5" stroke="white"/>
    </g>
    <g opacity="0.75">
        <path fill-rule="evenodd" clip-rule="evenodd" d="M89.5532 -0.0106506V88.2447H0.436157V89.2447H89.5532V177.862H0.436157V178.862H89.5532V267.117H90.5532V178.862H179.17V267.117H180.17V178.862H267.564V177.862H180.17V89.2447H267.564V88.2447H180.17V-0.0106506H179.17V88.2447H90.5532V-0.0106506H89.5532ZM179.17 177.862V89.2447H90.5532V177.862H179.17Z" fill="#C1C1C1"/>
        <path d="M89.5532 88.2447V88.7447H90.0532V88.2447H89.5532ZM89.5532 -0.0106506V-0.510651H89.0532V-0.0106506H89.5532ZM0.436157 88.2447V87.7447H-0.0638428V88.2447H0.436157ZM0.436157 89.2447H-0.0638428V89.7447H0.436157V89.2447ZM89.5532 89.2447H90.0532V88.7447H89.5532V89.2447ZM89.5532 177.862V178.362H90.0532V177.862H89.5532ZM0.436157 177.862V177.362H-0.0638428V177.862H0.436157ZM0.436157 178.862H-0.0638428V179.362H0.436157V178.862ZM89.5532 178.862H90.0532V178.362H89.5532V178.862ZM89.5532 267.117H89.0532V267.617H89.5532V267.117ZM90.5532 267.117V267.617H91.0532V267.117H90.5532ZM90.5532 178.862V178.362H90.0532V178.862H90.5532ZM179.17 178.862H179.67V178.362H179.17V178.862ZM179.17 267.117H178.67V267.617H179.17V267.117ZM180.17 267.117V267.617H180.67V267.117H180.17ZM180.17 178.862V178.362H179.67V178.862H180.17ZM267.564 178.862V179.362H268.064V178.862H267.564ZM267.564 177.862H268.064V177.362H267.564V177.862ZM180.17 177.862H179.67V178.362H180.17V177.862ZM180.17 89.2447V88.7447H179.67V89.2447H180.17ZM267.564 89.2447V89.7447H268.064V89.2447H267.564ZM267.564 88.2447H268.064V87.7447H267.564V88.2447ZM180.17 88.2447H179.67V88.7447H180.17V88.2447ZM180.17 -0.0106506H180.67V-0.510651H180.17V-0.0106506ZM179.17 -0.0106506V-0.510651H178.67V-0.0106506H179.17ZM179.17 88.2447V88.7447H179.67V88.2447H179.17ZM90.5532 88.2447H90.0532V88.7447H90.5532V88.2447ZM90.5532 -0.0106506H91.0532V-0.510651H90.5532V-0.0106506ZM179.17 177.862V178.362H179.67V177.862H179.17ZM179.17 89.2447H179.67V88.7447H179.17V89.2447ZM90.5532 89.2447V88.7447H90.0532V89.2447H90.5532ZM90.5532 177.862H90.0532V178.362H90.5532V177.862ZM90.0532 88.2447V-0.0106506H89.0532V88.2447H90.0532ZM0.436157 88.7447H89.5532V87.7447H0.436157V88.7447ZM0.936157 89.2447V88.2447H-0.0638428V89.2447H0.936157ZM89.5532 88.7447H0.436157V89.7447H89.5532V88.7447ZM90.0532 177.862V89.2447H89.0532V177.862H90.0532ZM0.436157 178.362H89.5532V177.362H0.436157V178.362ZM0.936157 178.862V177.862H-0.0638428V178.862H0.936157ZM89.5532 178.362H0.436157V179.362H89.5532V178.362ZM90.0532 267.117V178.862H89.0532V267.117H90.0532ZM90.5532 266.617H89.5532V267.617H90.5532V266.617ZM90.0532 178.862V267.117H91.0532V178.862H90.0532ZM179.17 178.362H90.5532V179.362H179.17V178.362ZM179.67 267.117V178.862H178.67V267.117H179.67ZM180.17 266.617H179.17V267.617H180.17V266.617ZM179.67 178.862V267.117H180.67V178.862H179.67ZM267.564 178.362H180.17V179.362H267.564V178.362ZM267.064 177.862V178.862H268.064V177.862H267.064ZM180.17 178.362H267.564V177.362H180.17V178.362ZM179.67 89.2447V177.862H180.67V89.2447H179.67ZM267.564 88.7447H180.17V89.7447H267.564V88.7447ZM267.064 88.2447V89.2447H268.064V88.2447H267.064ZM180.17 88.7447H267.564V87.7447H180.17V88.7447ZM179.67 -0.0106506V88.2447H180.67V-0.0106506H179.67ZM179.17 0.489349H180.17V-0.510651H179.17V0.489349ZM179.67 88.2447V-0.0106506H178.67V88.2447H179.67ZM90.5532 88.7447H179.17V87.7447H90.5532V88.7447ZM90.0532 -0.0106506V88.2447H91.0532V-0.0106506H90.0532ZM89.5532 0.489349H90.5532V-0.510651H89.5532V0.489349ZM179.67 177.862V89.2447H178.67V177.862H179.67ZM179.17 88.7447H90.5532V89.7447H179.17V88.7447ZM90.0532 89.2447V177.862H91.0532V89.2447H90.0532ZM90.5532 178.362H179.17V177.362H90.5532V178.362Z" fill="#C1C1C1"/>
    </g>
    <defs>
        <filter id="filter0_d_0_1" x="-38" y="-35" width="352" height="352" filterUnits="userSpaceOnUse" color-interpolation-filters="sRGB">
            <feFlood flood-opacity="0" result="BackgroundImageFix"/>
            <feColorMatrix in="SourceAlpha" type="matrix" values="0 0 0 0 0 0 0 0 0 0 0 0 0 0 0 0 0 0 127 0" result="hardAlpha"/>
            <feOffset dx="4" dy="4"/>
            <feGaussianBlur stdDeviation="7"/>
            <feColorMatrix type="matrix" values="0 0 0 0 0 0 0 0 0 0 0 0 0 0 0 0 0 0 0.15 0"/>
            <feBlend mode="normal" in2="BackgroundImageFix" result="effect1_dropShadow_0_1"/>
            <feBlend mode="normal" in="SourceGraphic" in2="effect1_dropShadow_0_1" result="shape"/>
        </filter>
        <linearGradient id="paint0_linear_0_1" x1="0" y1="0" x2="375" y2="667" gradientUnits="userSpaceOnUse">
            <stop stop-color="#00D2FF"/>
            <stop offset="1" stop-color="#3A7BD5"/>
        </linearGradient>
    </defs>
</svg>
